SplineFontDB: 1.0
FontName: DBThaiText-Oblique
FullName: DBThaiText Oblique
FamilyName: DBThaiText
Weight: Medium
Copyright: Typeface (c) The Monotype Corporation plc. Data (c) The Monotype Corporation plc/Type Solutions Inc. 1990-1992. All Rights Reserved\n\nModified by TLWG
Version: 2.0 : Dec 10, 2003
ItalicAngle: -12
UnderlinePosition: -477
UnderlineWidth: 84
Ascent: 800
Descent: 200
NeedsXUIDChange: 1
FSType: 0
PfmFamily: 33
TTFWeight: 500
TTFWidth: 5
Panose: 2 0 6 3 0 0 0 0 0 0
LineGap: 184
VLineGap: 0
ScriptLang: 3
 1 DFLT 1 dflt 
 1 thai 1 dflt 
 1 latn 1 dflt 
LangName: 1033 "" "" "" "PfaEdit : DBThaiText : 13-0-2003" 
Encoding: compacted
OldEncoding: iso8859_1
UnicodeInterp: none
DisplaySize: -72
AntiAlias: 1
FitToEm: 1
WinInfo: 216 8 2
BeginPrivate: 10
BlueValues 25 [ -35 0 315 346 437 445 ]
OtherBlues 13 [ -133 -131 ]
BlueScale 7 0.02857
BlueShift 1 7
BlueFuzz 1 1
StdHW 6 [ 31 ]
StdVW 6 [ 38 ]
ForceBold 5 false
StemSnapH 9 [ 31 36 ]
StemSnapV 9 [ 38 42 ]
EndPrivate
TeXData: 1 10485760 0 295936 147968 98645 381440 -1048576 98645 783286 444596 497025 792723 393216 433062 380633 303038 157286 324010 404750 52429 2506097 1059062 262144
BeginChars: 290 257
StartChar: .notdef
Encoding: 0 -1 0
OldEncoding: 0
Width: 532
VWidth: 2048
Flags: W
HStem: -26 70<23 361> 853 70<139 477>
DStem: 139 923 195 853 -63 -26 23 44 477 853 563 923 305 44 361 -26
Fore
-63 -26 m 1
 139 923 l 1
 563 923 l 1
 361 -26 l 1
 -63 -26 l 1
23 44 m 1
 305 44 l 1
 477 853 l 1
 195 853 l 1
 23 44 l 1
EndSplineSet
EndChar
StartChar: exclam
Encoding: 33 33 3
OldEncoding: 33
Width: 188
Flags: W
HStem: 0 21G<31 88>
DStem: 46 70 103 70 31 0 88 0 137 494 194 494 85 251 142 251
Fore
99 113 m 1
 70 113 l 1
 85 251 l 1
 137 494 l 1
 194 494 l 1
 142 251 l 1
 99 113 l 1
46 70 m 1
 103 70 l 1
 88 0 l 1
 31 0 l 1
 46 70 l 1
EndSplineSet
EndChar
StartChar: quotedbl
Encoding: 34 34 4
OldEncoding: 34
Width: 226
VWidth: 2048
Flags: W
HStem: 328 21G<26 54 132 160>
DStem: 48 494 105 494 31 417 88 417 154 494 211 494 137 417 194 417
Fore
26 328 m 1
 31 417 l 1
 48 494 l 1
 105 494 l 1
 88 417 l 1
 54 328 l 1
 26 328 l 1
132 328 m 1
 137 417 l 1
 154 494 l 1
 211 494 l 5
 194 417 l 1
 160 328 l 1
 132 328 l 1
EndSplineSet
EndChar
StartChar: numbersign
Encoding: 35 35 5
OldEncoding: 35
Width: 377
Flags: W
HStem: -14 21G<0 51 137 188> 129 54<-2 56 130 193 267 324> 287 54<58 118 191 254 329 379>
DStem: 56 129 109 129 0 -14 51 -14 118 287 170 287 77 183 130 183 192 473 244 473 139 341 191 341 193 129 245 129 137 -14 188 -14 254 287 307 287 214 183 267 183 328 473 381 473 276 341 329 341
Fore
192 473 m 1
 244 473 l 1
 191 341 l 1
 276 341 l 1
 328 473 l 1
 381 473 l 1
 329 341 l 1
 391 341 l 1
 379 287 l 1
 307 287 l 1
 267 183 l 1
 335 183 l 1
 324 129 l 1
 245 129 l 1
 188 -14 l 1
 137 -14 l 1
 193 129 l 1
 109 129 l 1
 51 -14 l 1
 0 -14 l 1
 56 129 l 1
 -12 129 l 1
 -1 183 l 1
 77 183 l 1
 118 287 l 1
 47 287 l 1
 59 341 l 1
 139 341 l 1
 192 473 l 1
170 287 m 1
 130 183 l 1
 214 183 l 1
 254 287 l 1
 170 287 l 1
EndSplineSet
EndChar
StartChar: dollar
Encoding: 36 36 6
OldEncoding: 36
Width: 377
Flags: W
HStem: 436 86<230 266.065>
DStem: 115 -16 156 -15 100 -85 141 -85 164 216 204 209 125 32 167 33 211 437 252 436 177 276 217 270
Fore
366 353 m 1
 311 353 l 1
 312.403 361.419 313.191 369.345 313.191 376.65 c 0
 313.191 390.17 310.492 401.56 304 410 c 1
 295 427 278 436 252 436 c 1
 217 270 l 1
 250 260 275 251 290 243 c 0
 306 236 317 224 328 205 c 0
 333.738 193.523 336.513 180.399 336.513 165.251 c 0
 336.513 154.002 334.983 141.637 332 128 c 0
 324 93 307 62 279 37 c 0
 250 11 222 -3 195 -8 c 2
 156 -15 l 1
 141 -85 l 1
 100 -85 l 1
 115 -16 l 1
 89 -10 67 -5 52 1 c 0
 35 8 21 23 10 44 c 0
 3.85071 56.2986 0.514018 71.7223 0.514018 90.4457 c 0
 0.514018 105.215 2.59026 122.038 7 141 c 1
 59 141 l 1
 57.0981 128.321 56.4019 116.847 56.4019 107.088 c 0
 56.4019 101.454 56.634 96.3923 57 92 c 0
 57 79 63 67 72 55 c 0
 83 45 100 37 125 32 c 1
 164 216 l 1
 154 219 142 224 129 228 c 0
 115 233 103 238 94 245 c 0
 83 251 76 259 69 267 c 1
 62.0039 279.243 58.4068 295.225 58.4068 315.144 c 0
 58.4068 329.391 60.247 345.652 64 364 c 1
 76 403 98 433 126 452 c 0
 153 471 186 483 222 486 c 1
 230 522 l 1
 271 522 l 1
 263 486 l 1
 299 483 328 470 347 450 c 0
 359 437 366 423 369 405 c 0
 369 385 369 368 366 353 c 1
177 276 m 1
 211 437 l 1
 191 436 172 429 153 416 c 0
 134 401 120 384 116 365 c 0
 114.111 357.443 113.213 350.382 113.213 343.754 c 0
 113.213 329.332 117.464 316.962 125 306 c 0
 136 290 153 280 177 276 c 1
204 209 m 1
 167 33 l 1
 178 34 190 37 205 43 c 0
 218 47 232 56 247 71 c 0
 260 85 269 103 275 127 c 0
 276.368 134.114 277.062 140.704 277.062 146.729 c 0
 277.062 162.724 272.169 174.736 262 182 c 0
 248 193 228 201 204 209 c 1
EndSplineSet
EndChar
StartChar: percent
Encoding: 37 37 7
OldEncoding: 37
Width: 602
Flags: W
HStem: -14 48<412 427> 171 47<452 466> 233 47<134 148> 417 47<173 187>
DStem: 465 480 512 480 92 -14 138 -14
Fore
465 480 m 1
 512 480 l 1
 138 -14 l 1
 92 -14 l 1
 465 480 l 1
43 348 m 0
 50 381 68 408 95 431 c 0
 124 453 153 464 185 464 c 0
 217 464 242 453 260 431 c 0
 272.812 414.629 279.038 396.231 279.038 375.085 c 0
 279.038 366.523 278.017 357.511 276 348 c 0
 270 316 253 289 224 267 c 0
 196 244 167 233 136 233 c 0
 105 233 80 244 61 267 c 0
 47.5 283.5 40.75 302.812 40.75 324.938 c 0
 40.75 332.312 41.5 340 43 348 c 0
322 103 m 0
 329 134 347 162 374 184 c 0
 401 207 431 218 464 218 c 0
 485 218 503 212 517 202 c 0
 533 192 545 179 550 160 c 0
 554.357 150.04 556.777 138.53 556.777 126.194 c 0
 556.777 118.713 555.888 110.928 554 103 c 0
 547 70 531 43 503 20 c 0
 475 -2 445 -14 414 -14 c 0
 382 -14 358 -2 339 20 c 0
 326.414 37.0285 319.309 56.2496 319.309 78.475 c 0
 319.309 86.2689 320.183 94.4322 322 103 c 0
91 348 m 0
 89.8796 342.678 89.3083 337.591 89.3083 332.762 c 0
 89.3083 320.35 93.0812 309.639 101 301 c 0
 112 287 126 280 146 280 c 0
 165 280 183 287 199 301 c 0
 215 313 225 329 229 348 c 0
 230.183 352.733 230.744 357.622 230.744 362.421 c 0
 230.744 369.789 229.422 376.944 227 383 c 0
 224 393 217 402 208 408 c 0
 198 414 187 417 175 417 c 0
 155 417 139 411 122 398 c 0
 104 383 95 367 91 348 c 0
370 103 m 0
 368.967 98.0915 368.467 93.3165 368.467 88.7094 c 0
 368.467 75.4833 372.583 63.6415 380 54 c 0
 391 41 405 34 425 34 c 0
 444 34 461 41 477 54 c 0
 493 67 502 84 506 103 c 0
 507.211 108.753 507.872 114.23 507.872 119.405 c 0
 507.872 131.322 504.367 141.633 496 150 c 0
 486 164 472 171 454 171 c 0
 434 171 417 164 400 150 c 0
 385 138 374 122 370 103 c 0
EndSplineSet
EndChar
StartChar: ampersand
Encoding: 38 38 8
OldEncoding: 38
Width: 452
Flags: W
HStem: -16 54<118 140> 0 21G<308 383> 434 47<244 260>
DStem: 174 227 229 257 254 92 295 147
Fore
383 0 m 1
 308 0 l 1
 276 50 l 1
 273 47 267 43 257 36 c 0
 249 28 239 23 230 17 c 0
 220 10 210 5 197 -1 c 1
 168 -11 141 -16 118 -16 c 0
 91 -16 68 -10 50 2 c 0
 21.6684 21.4274 6.44174 48.0625 6.44174 83.4967 c 0
 6.44174 91.8368 7.28527 100.664 9 110 c 0
 15 141 27 167 44 188 c 0
 61 208 83 227 109 243 c 2
 149 267 l 1
 134 299 l 2
 124.674 318.43 118.368 337.255 118.368 357.355 c 0
 118.368 363.117 118.886 368.984 120 375 c 0
 128 410 150 441 188 462 c 0
 211 476 235 481 260 481 c 0
 290 481 314 471 331 452 c 0
 344.77 434.405 352.102 416.226 352.102 395.67 c 0
 352.102 389.355 351.41 382.816 350 376 c 0
 345 357 336 339 321 322 c 0
 305 304 289 289 270 279 c 2
 229 257 l 1
 295 147 l 1
 316 176 328 202 333 226 c 1
 388 226 l 1
 384 208 375 188 361 164 c 0
 348 140 335 120 320 103 c 1
 383 0 l 1
292 406 m 0
 291 415 285 421 277 426 c 0
 269 432 259 434 246 434 c 0
 233 434 219 431 207 423 c 0
 196 415 188 405 181 390 c 1
 178.754 377.646 177.454 367.499 177.454 359.383 c 0
 177.454 353.045 178.246 347.946 180 344 c 0
 184 334 193 320 206 298 c 1
 222 304 240 313 258 327 c 0
 277 340 288 357 293 376 c 0
 293.899 380.495 294.394 384.99 294.394 389.485 c 0
 294.394 394.99 293.652 400.495 292 406 c 0
254 92 m 1
 174 227 l 1
 166 224 157 218 145 211 c 0
 134 205 123 197 114 189 c 0
 104 180 93 168 86 155 c 0
 77 141 71 127 67 111 c 1
 66.9278 109.917 66.8921 108.83 66.8921 107.737 c 0
 66.8921 93.6853 72.7939 78.7731 83 63 c 0
 93 46 114 38 140 38 c 0
 157 38 174 42 189 49 c 0
 205 54 226 69 254 92 c 1
EndSplineSet
EndChar
StartChar: quotesingle
Encoding: 39 39 9
OldEncoding: 39
Width: 121
VWidth: 2048
Flags: W
HStem: 328 21G<26 54>
DStem: 48 494 105 494 31 417 88 417
Fore
26 328 m 1
 31 417 l 1
 48 494 l 1
 105 494 l 5
 88 417 l 1
 54 328 l 1
 26 328 l 1
EndSplineSet
EndChar
StartChar: parenleft
Encoding: 40 40 10
OldEncoding: 40
Width: 226
Flags: W
Fore
227 494 m 1
 266 494 l 1
 221 438 186 384 161 329 c 0
 134 273 116 221 106 175 c 0
 98.5834 140.884 94.4672 104.017 94.4672 64.8084 c 0
 94.4672 51.1507 94.9666 37.2088 96 23 c 0
 97 -33 109 -89 130 -145 c 1
 91 -145 l 1
 82 -124 71 -101 63 -75 c 0
 55 -50 48 -23 44 7 c 0
 41.75 28.75 40.625 51.0625 40.625 72.6719 c 0
 40.625 79.875 40.75 87 41 94 c 0
 41 123 45 150 50 175 c 0
 58 212 71 250 88 288 c 0
 108 328 127 365 152 400 c 0
 177 436 201 468 227 494 c 1
EndSplineSet
EndChar
StartChar: parenright
Encoding: 41 41 11
OldEncoding: 41
Width: 226
Flags: W
Fore
94 494 m 1
 131 494 l 1
 147 466 158 435 168 400 c 0
 177 365 181 327 183 287 c 0
 183.4 279 183.6 271.12 183.6 263.352 c 0
 183.6 232.28 180.4 203 174 175 c 0
 166 139 155 102 135 63 c 0
 117 24 97 -14 72 -49 c 0
 48 -84 23 -116 -5 -145 c 1
 -42 -145 l 1
 -11 -107 15 -69 37 -29 c 0
 59 8 76 44 90 79 c 0
 102 114 112 146 118 175 c 0
 123 199 126 221 128 245 c 0
 129.172 259.059 129.657 273.461 129.657 288.407 c 0
 129.657 298.976 129.414 309.816 129 321 c 0
 129 347 125 376 120 408 c 0
 112 440 104 468 94 494 c 1
EndSplineSet
EndChar
StartChar: asterisk
Encoding: 42 42 12
OldEncoding: 42
Width: 263
Flags: W
DStem: 96 391 123 370 37 331 65 307 123 370 156 391 151 306 189 330 129 502 171 502 116 426 153 426
Fore
29 412 m 1
 50 452 l 1
 116 426 l 1
 129 502 l 1
 171 502 l 1
 153 426 l 1
 228 451 l 1
 234 409 l 1
 156 391 l 1
 189 330 l 1
 151 306 l 1
 123 370 l 1
 65 307 l 1
 37 331 l 1
 96 391 l 1
 29 412 l 1
EndSplineSet
EndChar
StartChar: plus
Encoding: 43 43 13
OldEncoding: 43
Width: 395
Flags: W
HStem: 219 48<38 169 226 357>
DStem: 169 219 216 219 139 79 186 79 209 407 256 407 179 267 226 267
Fore
209 407 m 5
 256 407 l 5
 226 267 l 5
 367 267 l 5
 357 219 l 5
 216 219 l 5
 186 79 l 5
 139 79 l 5
 169 219 l 5
 29 219 l 5
 39 267 l 5
 179 267 l 5
 209 407 l 5
EndSplineSet
EndChar
StartChar: comma
Encoding: 44 44 14
OldEncoding: 44
Width: 188
Flags: W
Fore
149 34 m 0
 143 3 127 -21 106 -38 c 0
 83 -55 62 -64 39 -68 c 0
 29.9902 -68 25.851 -66.3765 25.851 -63.1294 c 0
 25.851 -62.7725 25.901 -62.3961 26 -62 c 0
 26 -61 27 -59 30 -56 c 1
 41 -53 54 -46 70 -37 c 0
 87 -28 97 -17 102 -2 c 1
 100 -3 96 -3 93 -5 c 0
 90 -6 84 -7 80 -7 c 0
 55.5534 -3.74045 43.0595 6.82356 43.0595 26.3154 c 0
 43.0595 30.7432 43.7042 35.6317 45 41 c 0
 47 54 55 66 65 75 c 0
 75 84 87 88 102 88 c 0
 133.939 88 150.23 74.5876 150.23 47.7628 c 0
 150.23 43.512 149.821 38.9244 149 34 c 0
EndSplineSet
EndChar
StartChar: hyphen
Encoding: 45 45 15
OldEncoding: 45
Width: 226
Flags: W
HStem: 163 49<36 187>
Fore
197 212 m 1
 187 163 l 1
 27 163 l 1
 37 212 l 1
 197 212 l 1
EndSplineSet
EndChar
StartChar: period
Encoding: 46 46 16
OldEncoding: 46
Width: 188
Flags: W
Fore
36 52 m 0
 39 64 46 76 58 86 c 0
 70 96 82 101 95 101 c 0
 103 101 111 98 117 94 c 0
 124 89 129 84 132 76 c 0
 133.236 71.0557 134.09 66.1115 134.09 61.1672 c 0
 134.09 58.1115 133.764 55.0557 133 52 c 0
 130 40 124 28 112 18 c 0
 101 8 88 3 75 3 c 0
 62 3 52 8 44 18 c 0
 38.0435 25.4456 34.8589 34 34.8589 42.8376 c 0
 34.8589 45.8695 35.2337 48.9348 36 52 c 0
EndSplineSet
EndChar
StartChar: slash
Encoding: 47 47 17
OldEncoding: 47
Width: 188
Flags: W
HStem: -15 21G<-59 -21>
DStem: 208 480 245 480 -59 -15 -21 -15
Fore
-59 -15 m 1
 208 480 l 1
 245 480 l 1
 -21 -15 l 1
 -59 -15 l 1
EndSplineSet
EndChar
StartChar: zero
Encoding: 48 48 18
OldEncoding: 48
Width: 387
Flags: W
HStem: -17 58<137 151> 434 60<231 247>
Fore
137 -17 m 0
 113 -17 91 -11 72 1 c 0
 50 13 37 33 26 57 c 0
 20.8297 73.9881 17.8416 93.7039 17.8416 116.953 c 0
 17.8416 125.181 18.2158 133.851 19 143 c 0
 20 177 24 208 30 240 c 0
 37 270 46 302 60 336 c 0
 72 370 87 399 104 422 c 1
 125 445 146 463 172 476 c 0
 197 488 221 494 245 494 c 0
 272 494 294 488 314 476 c 0
 334 463 348 445 356 422 c 0
 363.158 402.911 366.901 379.267 366.901 350.851 c 0
 366.901 319.723 362.41 282.867 353 240 c 0
 336 157 310 97 278 57 c 0
 260 33 238 13 213 1 c 0
 187 -11 163 -17 137 -17 c 0
149 41 m 0
 183 41 214 57 240 92 c 0
 245 98 252 109 259 125 c 0
 265 139 271 157 277 178 c 0
 284 198 290 219 294 238 c 0
 298 255 301 276 303 298 c 0
 305 318 307 336 307 351 c 0
 307 367 305 378 302 385 c 0
 291 419 267 434 233 434 c 0
 219 434 202 431 187 422 c 0
 171 414 157 402 144 385 c 0
 135 373 126 353 114 323 c 0
 104 293 93 264 88 238 c 0
 82 212 80 183 78 154 c 0
 76.9233 143.592 76.3618 134.214 76.3618 125.913 c 0
 76.3618 111.086 78.1534 99.6932 82 92 c 0
 87 75 96 63 109 54 c 0
 121 45 135 41 149 41 c 0
EndSplineSet
EndChar
StartChar: one
Encoding: 49 49 19
OldEncoding: 49
Width: 387
Flags: W
HStem: 0 21G<130 189>
DStem: 204 348 295 494 130 0 189 0
Fore
189 0 m 1
 130 0 l 1
 204 348 l 1
 92 348 l 1
 103 397 l 1
 138 401 163 407 180 411 c 0
 196 417 207 425 217 436 c 0
 226 448 238 466 254 494 c 1
 295 494 l 5
 189 0 l 1
EndSplineSet
EndChar
StartChar: two
Encoding: 50 50 20
OldEncoding: 50
Width: 387
Flags: W
HStem: 0 57<48 300> 323 21G<50 110> 440 54<237 261>
Fore
249 202 m 2
 159 160 l 2
 141 151 120 138 94 117 c 0
 67 97 52 77 48 57 c 1
 313 57 l 1
 300 0 l 1
 -30 0 l 1
 -16 40 -5 68 4 87 c 0
 12 105 27 125 49 145 c 0
 70 166 102 188 143 208 c 2
 228 250 l 2
 276 273 305 305 314 341 c 0
 315.868 348.845 316.619 356.41 316.619 363.644 c 0
 316.619 375.776 314.506 386.977 312 397 c 0
 305 411 294 422 281 430 c 0
 267 436 252 440 237 440 c 0
 201 439 172 428 153 408 c 0
 134 387 120 359 110 323 c 1
 50 323 l 1
 58 355 69 381 81 404 c 0
 92 427 110 445 137 461 c 1
 156 474 175 483 194 486 c 0
 212 491 235 494 261 494 c 0
 300 492 331 482 351 460 c 0
 371 438 381 410 381 378 c 0
 381 365 380 355 378 346 c 0
 372 316 356 288 330 263 c 0
 304 236 276 214 249 202 c 2
EndSplineSet
EndChar
StartChar: three
Encoding: 51 51 21
OldEncoding: 51
Width: 387
Flags: W
HStem: -17 57<117 135> 227 53<164 183> 439 55<220 239>
Fore
2 144 m 1
 61 144 l 1
 61 138 60 129 59 117 c 0
 58.634 112.974 58.4019 109.081 58.4019 105.127 c 0
 58.4019 98.2776 59.0981 91.2417 61 83 c 0
 63 71 70 62 81 54 c 1
 92 45 107 40 127 40 c 0
 128.125 39.9861 129.244 39.9792 130.357 39.9792 c 0
 209.354 39.9792 257.181 74.9724 270 144 c 0
 271.947 152.623 272.888 160.472 272.888 167.569 c 0
 272.888 185.986 266.549 199.338 255 208 c 0
 239 220 216 227 181 227 c 0
 169 227 159 227 152 225 c 1
 164 280 l 1
 207 281 240 286 260 295 c 0
 279 305 295 327 301 361 c 0
 302.836 369.131 303.709 376.642 303.709 383.481 c 0
 303.709 402.715 296.803 416.623 285 424 c 0
 270 433 249 439 220 439 c 1
 198 434 180 430 166 421 c 0
 152 413 141 403 136 393 c 0
 128 382 122 371 119 359 c 0
 115 347 113 339 112 334 c 1
 55 335 l 1
 65 386 85 424 119 453 c 0
 149 480 190 494 237 494 c 0
 266 494 291 488 312 479 c 0
 333 469 350 453 358 432 c 0
 362.9 418.526 365.924 403.927 365.924 387.283 c 0
 365.924 376.752 364.713 365.402 362 353 c 0
 357 328 348 309 335 296 c 0
 321 283 303 270 284 255 c 1
 308 243 325 227 330 209 c 0
 333.339 198.984 335.439 187.109 335.439 173.377 c 0
 335.439 162.432 334.105 150.306 331 137 c 0
 327 105 310 77 289 53 c 0
 267 28 239 8 204 -2 c 0
 178 -11 155 -15 135 -17 c 0
 114 -17 101 -13 91 -12 c 0
 51 -2 25 13 12 41 c 0
 4.75255 60.5681 -0.393877 84.3383 -0.393877 111.549 c 0
 -0.393877 121.884 0.348469 132.715 2 144 c 1
EndSplineSet
EndChar
StartChar: four
Encoding: 52 52 22
OldEncoding: 52
Width: 387
Flags: W
HStem: 0 21G<179 237> 116 58<58 204 274 334>
DStem: 204 116 262 116 179 0 237 0 264 396 343 494 216 174 274 174 297 494 264 396 5 182 58 174
Fore
204 116 m 1
 -9 116 l 1
 5 182 l 1
 297 494 l 1
 343 494 l 1
 274 174 l 1
 346 174 l 1
 334 116 l 1
 262 116 l 1
 237 0 l 1
 179 0 l 1
 204 116 l 1
216 174 m 1
 264 396 l 1
 58 174 l 1
 216 174 l 1
EndSplineSet
EndChar
StartChar: five
Encoding: 53 53 23
OldEncoding: 53
Width: 387
Flags: W
HStem: -17 59<142 155> 267 58<193 212> 433 61<131 375>
DStem: 131 494 168 433 37 224 118 296
Fore
93 224 m 1
 37 224 l 1
 131 494 l 1
 388 494 l 1
 375 433 l 1
 168 433 l 1
 118 296 l 1
 145 316 177 325 212 325 c 0
 237 325 259 322 276 315 c 0
 322.423 295.657 346.098 258.953 346.098 205.815 c 0
 346.098 190.275 344.073 173.329 340 155 c 0
 332 119 314 88 293 63 c 0
 274 39 248 19 222 6 c 0
 200 -4 176 -11 146 -17 c 1
 121 -17 98 -13 79 -8 c 0
 57 -1 39 10 28 23 c 0
 16 35 9 46 6 59 c 0
 2 71 -0 83 -0 96 c 0
 0 108 -1 116 -1 120 c 1
 62 120 l 1
 64 99 72 82 83 65 c 0
 96 51 118 42 155 42 c 1
 213 50 250 80 268 136 c 1
 272.153 154.275 274.409 170.825 274.409 185.506 c 0
 274.409 206.173 269.939 223.137 260 236 c 0
 246 257 224 267 195 267 c 0
 160 267 125 253 93 224 c 1
EndSplineSet
EndChar
StartChar: six
Encoding: 54 54 24
OldEncoding: 54
Width: 387
Flags: W
HStem: -17 55<138 154> 253 54<198 221>
Fore
374 365 m 1
 314 365 l 1
 315.298 370.517 315.964 376.035 315.964 381.381 c 0
 315.964 392.508 313.079 402.895 307 411 c 0
 296 424 282 433 262 438 c 1
 210 438 171 416 142 373 c 0
 115 335 99 299 92 267 c 0
 91 261 91 255 90 250 c 1
 104 260 114 267 123 275 c 0
 131 282 138 287 149 292 c 0
 160 296 170 301 181 304 c 0
 191 306 204 307 221 307 c 0
 247 307 270 302 288 292 c 0
 307 281 322 265 330 248 c 0
 337.413 231.32 343.109 213.782 343.109 194.589 c 0
 343.109 193.07 343.073 191.54 343 190 c 1
 343.236 187.403 343.361 184.695 343.361 181.862 c 0
 343.361 172.695 342.056 162.223 339 150 c 0
 336 136 332 122 326 113 c 1
 316 86 302 64 283 46 c 0
 260 24 239 8 220 -1 c 0
 199 -11 171 -17 140 -17 c 0
 115 -17 93 -11 74 0 c 0
 54 10 40 24 33 42 c 1
 20.5 65.3333 14.25 88.6667 14.25 113.736 c 0
 14.25 118.75 14.5 123.833 15 129 c 0
 16 160 22 201 33 252 c 0
 41 292 54 329 73 364 c 0
 98 409 126 442 162 462 c 0
 195 483 228 494 262 494 c 0
 298 494 328 482 349 459 c 0
 360 445 368 432 372 419 c 0
 374.422 411.733 375.744 401.9 375.744 390.166 c 0
 375.744 382.522 375.183 374.072 374 365 c 1
247 81 m 0
 262 97 270 117 276 143 c 0
 278.071 153.355 279.284 163.882 279.284 174.51 c 0
 279.284 189.539 276.858 204.77 271 220 c 0
 262 242 238 253 200 253 c 0
 185 253 170 250 156 243 c 0
 138 236 126 229 116 219 c 0
 95 201 81 179 75 150 c 0
 73.4057 142.029 72.6248 133.956 72.6248 125.943 c 0
 72.6248 108.826 76.1885 91.9852 83 77 c 0
 97 52 119 38 154 38 c 0
 156.666 37.7715 159.308 37.659 161.927 37.659 c 0
 193.699 37.659 222.056 54.2086 247 81 c 0
EndSplineSet
EndChar
StartChar: seven
Encoding: 55 55 25
OldEncoding: 55
Width: 387
Flags: W
HStem: 0 21G<43 108> 436 58<85 338>
Fore
73 436 m 1
 86 494 l 1
 415 494 l 1
 403 442 l 1
 332 364 l 2
 306 335 277 298 244 253 c 0
 192 179 144 94 108 0 c 1
 43 0 l 1
 72 63 96 109 113 139 c 0
 128 168 153 203 186 248 c 0
 208 276 238 313 274 358 c 0
 309 402 331 428 338 436 c 1
 73 436 l 1
EndSplineSet
EndChar
StartChar: eight
Encoding: 56 56 26
OldEncoding: 56
Width: 387
Flags: W
HStem: 232 52<185 193> 440 54<223 251>
Fore
144 465 m 0
 174 484 205 494 240 494 c 0
 279 494 315 485 342 465 c 0
 355 455 362 439 367 420 c 0
 368.754 411.669 369.546 403.147 369.546 394.6 c 0
 369.546 383.654 368.246 372.669 366 362 c 0
 361 335 350 315 335 301 c 1
 322 287 303 273 282 260 c 1
 297 257 312 243 325 219 c 0
 333.909 203.091 338.364 184.347 338.364 163.284 c 0
 338.364 151.248 336.909 138.455 334 125 c 1
 320 81 292 45 249 17 c 1
 213.427 -5.11275 175.082 -17.0578 135.74 -17.0578 c 0
 134.162 -17.0578 132.582 -17.0386 131 -17 c 0
 111 -17 91 -11 71 -4 c 0
 53 2 38 13 26 28 c 0
 8.59801 45.402 0.659438 67.5357 0.659437 93.6387 c 0
 0.659437 103.536 1.80066 114.003 4 125 c 0
 9 165 26 194 45 212 c 1
 53 224 75 241 110 260 c 1
 100 270 93 275 90 280 c 0
 85 283 81 287 79 293 c 0
 76 298 73 304 69 311 c 0
 67.6077 317.497 66.8616 325.072 66.8616 333.123 c 0
 66.8616 342.42 67.8564 352.354 70 362 c 0
 79 404 105 439 144 465 c 0
289 422 m 0
 278 434 261 440 235 440 c 0
 209 440 186 433 168 420 c 0
 150 407 137 387 131 362 c 0
 130.317 357.219 128.701 350.572 128.701 342.377 c 0
 128.701 338.574 129.049 334.438 130 330 c 0
 136 302 156 284 193 284 c 0
 194.547 283.958 196.082 283.937 197.604 283.937 c 0
 232.49 283.937 260.794 294.878 279 315 c 0
 292 329 303 346 306 362 c 0
 307.516 368.316 308.266 374.378 308.266 380.135 c 0
 308.266 397.165 301.705 411.537 289 422 c 0
264 197 m 0
 249.951 218.542 226.252 232.189 193.724 232.189 c 0
 191.523 232.189 189.282 232.127 187 232 c 0
 150 232 121 219 97 196 c 0
 81 179 71 157 65 131 c 0
 64.6277 125.788 64.4287 120.853 64.4287 116.196 c 0
 64.4287 95.8316 68.2337 80.7663 78 71 c 1
 87 57 109 48 141 41 c 1
 166 42 191 48 213 57 c 1
 246 76 265 103 272 134 c 0
 273.954 143.771 275.484 152.269 275.484 159.77 c 0
 275.484 163.785 275.046 167.514 274 171 c 0
 272 182 271 190 264 197 c 0
EndSplineSet
EndChar
StartChar: nine
Encoding: 57 57 27
OldEncoding: 57
Width: 387
Flags: W
HStem: -17 59<124 132> 168 52<184 189> 438 56<228 244>
Fore
7 109 m 1
 69 109 l 1
 68.347 105.517 68.0256 102.035 68.0256 98.5931 c 0
 68.0256 86.2241 72.1767 74.388 80 65 c 0
 92 53 107 45 125 42 c 1
 176 42 215 62 243 102 c 0
 254 117 262 136 272 156 c 0
 280 175 288 192 292 208 c 0
 292 212 292 219 292 225 c 1
 274 207 253 191 230 180 c 0
 218 175 205 171 188 168 c 1
 167 168 150 169 136 171 c 0
 103 175 81 189 65 211 c 0
 49 231 42 255 40 284 c 0
 41 294 43 307 46 325 c 0
 49 335 52 348 57 367 c 1
 68 392 82 413 101 431 c 0
 126 454 146 471 166 480 c 0
 186 488 211 494 244 494 c 0
 245.198 494.022 246.387 494.033 247.567 494.033 c 0
 300.517 494.033 334.392 472.128 352 433 c 0
 362.667 412.333 367.556 384.556 367.556 349.074 c 0
 367.556 331.333 366.333 311.667 364 290 c 0
 364 281 361 265 356 244 c 0
 352 224 349 209 345 200 c 0
 337 172 326 144 311 113 c 0
 289 67 257 31 218 11 c 0
 190 -4 161 -12 132 -17 c 1
 106 -17 86 -13 70 -10 c 0
 54 -4 42 4 30 17 c 0
 13.1918 38.0102 6.27168 63.9644 6.27168 92.4883 c 0
 6.27168 97.905 6.52122 103.414 7 109 c 1
139 397 m 0
 123 380 112 358 107 333 c 0
 104.75 322.875 103.625 313.031 103.625 303.311 c 0
 103.625 287.109 106.75 271.25 113 255 c 0
 123.605 232.826 144.435 219.946 179.969 219.946 c 0
 181.292 219.946 182.636 219.964 184 220 c 0
 199 220 216 225 231 232 c 0
 246 240 259 248 268 257 c 1
 290 275 302 296 308 324 c 0
 310.038 333.173 311.038 342.115 311.038 350.827 c 0
 311.038 367.756 307.263 383.814 300 399 c 0
 296 410 288 420 274 427 c 0
 261 433 248 438 231 438 c 0
 193 438 164 424 139 397 c 0
EndSplineSet
EndChar
StartChar: colon
Encoding: 58 58 28
OldEncoding: 58
Width: 188
Flags: W
HStem: 8 97<57 78> 293 97<118 139>
Fore
20 56 m 0
 22 69 29 80 41 90 c 0
 54 101 66 105 78 105 c 0
 87 105 95 103 101 98 c 0
 108 95 112 88 115 80 c 0
 116.902 74.9282 117.598 69.8564 117.598 64.7846 c 0
 117.598 61.8564 117.366 58.9282 117 56 c 0
 114 44 107 33 95 23 c 0
 82 12 70 8 57 8 c 0
 45 8 35 12 27 23 c 0
 21.332 30.085 18.6759 37.6719 18.6759 45.7608 c 0
 18.6759 49.0889 19.1255 52.502 20 56 c 0
80 341 m 0
 83 354 89 366 102 376 c 0
 115 385 127 390 139 390 c 0
 153 390 163 385 171 376 c 1
 175.392 368.68 178.177 360.287 178.177 351.215 c 0
 178.177 347.895 177.804 344.483 177 341 c 0
 175 329 167 318 155 307 c 0
 143 297 131 293 118 293 c 0
 106 293 96 297 87 307 c 0
 81.2462 314.911 79.1134 322.823 79.1134 331.106 c 0
 79.1134 334.34 79.4385 337.631 80 341 c 0
EndSplineSet
EndChar
StartChar: semicolon
Encoding: 59 59 29
OldEncoding: 59
Width: 188
Flags: W
HStem: -7 95<53 74> 288 97<108 128>
Fore
122 34 m 0
 115 3 101 -21 78 -38 c 0
 57 -55 35 -64 13 -68 c 0
 3.72557 -68 -2.10826 -66.2797 -2.10826 -62.8391 c 0
 -2.10826 -62.5699 -2.07256 -62.2902 -2 -62 c 0
 -2 -61 -0 -59 3 -56 c 1
 14 -53 27 -46 43 -37 c 0
 59 -28 71 -17 76 -2 c 1
 73 -3 70 -3 66 -5 c 0
 61 -6 57 -7 53 -7 c 0
 28.8559 -3.66978 16.4953 7.28505 16.4953 27.5958 c 0
 16.4953 31.6807 16.9953 36.1441 18 41 c 0
 21 54 27 66 37 75 c 0
 47 84 60 88 74 88 c 0
 106.818 88 123.227 74.5744 123.227 47.7231 c 0
 123.227 43.4835 122.818 38.9091 122 34 c 0
70 337 m 0
 72 349 79 360 91 371 c 0
 103 381 116 385 128 385 c 0
 136 385 144 383 151 379 c 0
 158 374 164 368 165 360 c 0
 167.343 356.485 168.314 352.284 168.314 347.598 c 0
 168.314 344.284 167.828 340.728 167 337 c 0
 164 324 157 313 145 303 c 0
 133 293 121 288 108 288 c 0
 96 288 85 293 77 303 c 0
 71.332 310.085 68.6758 317.672 68.6758 326.116 c 0
 68.6758 329.591 69.1255 333.21 70 337 c 0
EndSplineSet
EndChar
StartChar: less
Encoding: 60 60 30
OldEncoding: 60
Width: 395
Flags: W
DStem: 26 220 94 244 327 80 339 134 397 408 385 354 36 268 94 244
Fore
397 408 m 5
 385 354 l 5
 94 244 l 5
 339 134 l 5
 327 80 l 5
 26 220 l 5
 36 268 l 5
 397 408 l 5
EndSplineSet
EndChar
StartChar: equal
Encoding: 61 61 31
OldEncoding: 61
Width: 395
Flags: W
HStem: 162 47<26 345> 277 47<50 369>
Fore
51 324 m 5
 379 324 l 5
 369 277 l 5
 41 277 l 5
 51 324 l 5
27 209 m 5
 355 209 l 5
 345 162 l 5
 17 162 l 5
 27 209 l 5
EndSplineSet
EndChar
StartChar: greater
Encoding: 62 62 32
OldEncoding: 62
Width: 395
Flags: W
DStem: 57 354 69 408 299 244 370 268 299 244 360 220 11 134 -1 80
Fore
370 268 m 5
 360 220 l 5
 -1 80 l 5
 11 134 l 5
 299 244 l 5
 57 354 l 5
 69 408 l 5
 370 268 l 5
EndSplineSet
EndChar
StartChar: question
Encoding: 63 63 33
OldEncoding: 63
Width: 377
Flags: W
HStem: 0 21G<110 172> 341 21G<71 130> 449 52<241 258>
DStem: 125 70 187 70 110 0 172 0
Fore
200 132 m 1
 138 132 l 1
 147 173 l 2
 151 192 159 210 176 226 c 0
 191 243 209 258 228 272 c 0
 237 279 243 285 250 290 c 0
 271 307 l 0
 277 314 283 321 287 327 c 0
 299 345 307 360 310 374 c 0
 311.125 379.625 311.688 384.828 311.688 389.715 c 0
 311.688 397.859 310.125 405.125 307 412 c 0
 303 424 296 433 284 440 c 0
 273 445 259 449 243 449 c 0
 222 449 203 444 188 436 c 0
 174 428 162 417 154 405 c 0
 145 392 141 380 138 367 c 0
 134 355 133 347 130 341 c 1
 71 341 l 1
 78 371 87 398 103 421 c 0
 117 445 137 463 163 478 c 0
 190 493 220 501 258 501 c 0
 268 501 276 501 281 499 c 0
 310 496 331 487 345 472 c 0
 359 459 369 443 371 425 c 0
 372.5 416 373.25 407 373.25 398 c 0
 373.25 389 372.5 380 371 371 c 0
 367 355 361 340 354 325 c 0
 343 304 312 273 259 234 c 0
 246 224 235 215 226 205 c 0
 216 194 210 181 207 164 c 2
 200 132 l 1
110 0 m 1
 125 70 l 1
 187 70 l 1
 172 0 l 1
 110 0 l 1
EndSplineSet
EndChar
StartChar: at
Encoding: 64 64 34
OldEncoding: 64
Width: 688
Flags: W
HStem: -99 50<253 292> 36 48<426 454> 40 42<252 281> 304 50<368 386> 318 20G<480 536>
DStem: 480 338 536 338 456 293 428 134
Fore
536 338 m 1
 428 134 l 2
 422 124 420 118 419 114 c 0
 418.414 112.243 418.172 110.485 418.172 108.728 c 0
 418.172 104.485 419.586 100.243 421 96 c 0
 425 88 436 84 454 84 c 1
 474 88 493 96 510 108 c 0
 528 121 542 133 553 147 c 0
 577 179 595 217 604 262 c 1
 604.129 264.325 604.192 266.667 604.192 269.03 c 0
 604.192 284.959 601.354 301.842 597 321 c 0
 590 342 583 359 574 372 c 0
 563 385 545 400 521 415 c 0
 495 429 469 440 441 445 c 0
 427 447 415 449 401 449 c 0
 371 449 340 443 309 432 c 0
 279 420 252 406 226 389 c 0
 198 368 172 345 149 319 c 0
 127 293 111 270 101 251 c 0
 91 229 83 208 78 188 c 0
 74.249 170.183 72.4766 152.805 72.4766 135.868 c 0
 72.4766 116.681 74.751 98.0584 79 80 c 0
 85 59 99 38 118 19 c 0
 138 -1 161 -19 191 -33 c 0
 217 -44 245 -49 278 -49 c 0
 319 -49 365 -41 416 -25 c 1
 427 -70 l 1
 370 -89 316 -99 266 -99 c 0
 230 -99 195 -94 163 -82 c 0
 139 -73 111 -56 80 -32 c 0
 49 -7 29 21 20 53 c 0
 14.1078 72.8192 11.0849 94.073 11.0849 116.761 c 0
 11.0849 136.43 13.3565 157.176 18 179 c 0
 24 205 32 227 42 246 c 0
 59 279 80 313 107 346 c 0
 134 379 167 408 206 433 c 0
 226 445 249 458 274 468 c 0
 300 478 327 486 354 492 c 0
 376.135 496.099 398.941 499.526 421.318 499.526 c 0
 426.237 499.526 431.135 499.36 436 499 c 0
 470 498 505 488 544 471 c 0
 581 454 607 431 627 402 c 0
 639 384 651 364 655 339 c 0
 658.662 323.132 660.834 308.008 660.834 293.403 c 0
 660.834 284.077 659.948 274.963 658 266 c 0
 652 234 644 209 634 191 c 0
 625 174 613 155 598 136 c 0
 586 119 570 101 550 82 c 0
 530 66 506 51 479 43 c 0
 460 37 443 36 426 36 c 0
 411 36 400 37 394 40 c 0
 383 43 374 50 368 60 c 0
 362.762 67.8568 359.81 75.7137 359.81 83.5705 c 0
 359.81 84.7137 359.873 85.8568 360 87 c 1
 344 73 l 0
 338 68 331 63 323 59 c 0
 314 53 302 49 289 45 c 0
 278 42 265 40 252 40 c 0
 238 40 226 42 216 46 c 0
 198 54 187 64 182 76 c 0
 176 86 170 99 167 115 c 0
 166.172 121.213 165.686 127.598 165.686 134.154 c 0
 165.686 143.426 166.657 153.042 169 163 c 0
 172 177 177 190 182 202 c 0
 205 251 239 293 286 322 c 0
 321 345 355 354 386 354 c 0
 395 354 402 353 409 350 c 0
 423 346 434 338 443 327 c 0
 450 314 455 303 456 293 c 1
 480 338 l 1
 536 338 l 1
423 255 m 0
 423.309 259.017 423.523 262.748 423.523 266.192 c 0
 423.523 273.894 422.455 280.163 419 285 c 0
 415 292 406 297 392 301 c 0
 387 303 380 304 372 304 c 0
 356 304 340 299 323 290 c 0
 307 281 294 271 282 259 c 0
 271 246 261 231 251 212 c 0
 242 195 235 179 232 163 c 0
 230.556 155.421 229.764 148.232 229.764 141.387 c 0
 229.764 129.267 232.248 118.225 238 108 c 0
 247 92 262 82 281 82 c 0
 287 82 293 84 298 85 c 0
 319 90 340 104 360 128 c 1
 372 141 383 160 397 186 c 0
 409 211 418 234 423 255 c 0
EndSplineSet
EndChar
StartChar: A
Encoding: 65 65 35
OldEncoding: 65
Width: 452
Flags: W
HStem: 0 21G<-42 26 319 390> 148 53<139 300>
DStem: 244 494 265 417 -42 0 139 201 244 494 111 148 -42 0 26 0 265 417 322 494 293 201 390 0 300 148 322 494 319 0 390 0
Fore
111 148 m 1
 26 0 l 1
 -42 0 l 1
 244 494 l 1
 322 494 l 1
 390 0 l 1
 319 0 l 1
 300 148 l 1
 111 148 l 1
265 417 m 1
 139 201 l 1
 293 201 l 1
 265 417 l 1
EndSplineSet
EndChar
StartChar: B
Encoding: 66 66 36
OldEncoding: 66
Width: 452
Flags: W
HStem: 0 56<77 246> 226 56<125 258> 438 56<106 289>
DStem: 106 494 159 438 0 0 125 282 106 494 114 226 0 0 77 56
Fore
244 0 m 2
 0 0 l 1
 106 494 l 1
 325 494 l 2
 342 494 359 490 374 483 c 0
 389 475 402 466 411 453 c 0
 422.85 438.61 429.685 420.638 429.685 397.87 c 0
 429.685 393.74 429.461 389.453 429 385 c 1
 416 321 387 280 341 262 c 1
 349 259 356 255 363 251 c 0
 370 246 378 240 385 231 c 0
 391 221 398 209 401 193 c 0
 402.67 185.904 403.468 178.459 403.468 170.448 c 0
 403.468 159.267 401.913 146.982 399 133 c 0
 391 104 378 79 359 60 c 0
 340 41 320 26 299 16 c 0
 278 6 259 0 244 0 c 2
159 438 m 1
 125 282 l 1
 256 282 l 2
 288 282 314 290 331 306 c 0
 346 323 357 346 363 374 c 1
 363.05 375.191 363.075 376.365 363.075 377.522 c 0
 363.075 399.67 353.908 415.496 333 425 c 0
 311 434 291 438 274 438 c 2
 159 438 l 1
114 226 m 1
 77 56 l 1
 236 56 l 2
 264 56 289 66 305 85 c 0
 323 104 334 128 340 156 c 1
 340.414 159.867 340.619 163.543 340.619 167.033 c 0
 340.619 188.819 332.652 203.381 318 212 c 0
 300 221 274 226 238 226 c 2
 114 226 l 1
EndSplineSet
EndChar
StartChar: C
Encoding: 67 67 37
OldEncoding: 67
Width: 489
Flags: W
HStem: -16 58<192 211> 341 21G<405 471> 445 58<293 313>
Fore
471 341 m 1
 405 341 l 1
 401 365 395 383 387 398 c 0
 381 408 373 417 362 424 c 0
 352 432 342 437 331 441 c 0
 321 444 309 445 295 445 c 0
 275 445 254 441 233 433 c 0
 213 425 194 414 178 398 c 0
 159 380 142 357 128 330 c 0
 114 302 103 272 97 243 c 0
 93.1962 224.615 91.8038 206.229 91.8038 188.354 c 0
 91.8038 178.033 92.268 167.883 93 158 c 0
 96 130 101 107 112 89 c 0
 132 58 163 42 209 42 c 0
 252 42 290 58 321 89 c 0
 331 99 342 113 353 130 c 0
 364 147 374 164 381 181 c 1
 446 181 l 1
 423 121 389 72 341 35 c 0
 326 24 306 12 277 1 c 0
 249 -10 221 -16 194 -16 c 0
 165 -16 140 -10 116 1 c 0
 93 11 76 23 67 35 c 0
 45 61 31 93 27 130 c 0
 25.3333 142.333 24.5556 154.778 24.5556 167.296 c 0
 24.5556 192.333 27.6667 217.667 33 243 c 0
 41 282 54 320 75 357 c 0
 95 394 123 426 155 452 c 0
 170 464 191 476 220 486 c 0
 248 496 275 503 304 503 c 0
 331 503 357 496 381 486 c 0
 404 476 420 464 429 452 c 0
 453 426 466 389 471 341 c 1
EndSplineSet
EndChar
StartChar: D
Encoding: 68 68 38
OldEncoding: 68
Width: 489
Flags: W
HStem: 0 56<83 235> 438 56<113 304>
DStem: 113 494 165 438 7 0 83 56
Fore
233 0 m 2
 7 0 l 1
 113 494 l 1
 304 494 l 2
 357 494 398 476 427 441 c 0
 451.234 412.857 462.635 376.158 462.635 331.859 c 0
 462.635 319.492 461.746 306.532 460 293 c 0
 457 270 453 254 452 245 c 0
 436 174 407 116 363 73 c 0
 339 49 314 31 291 19 c 0
 267 7 248 0 233 0 c 2
286 438 m 2
 165 438 l 1
 83 56 l 1
 221 56 l 2
 238 56 256 60 275 67 c 0
 286 71 301 82 318 99 c 0
 337 118 347 132 352 145 c 0
 368 179 381 212 389 245 c 0
 395.37 272.931 398.379 297.5 398.379 318.825 c 0
 398.379 341.02 395.12 359.7 389 375 c 0
 372 417 338 438 286 438 c 2
EndSplineSet
EndChar
StartChar: E
Encoding: 69 69 39
OldEncoding: 69
Width: 452
Flags: W
HStem: 0 56<83 363> 226 56<131 389> 438 56<114 446>
DStem: 114 494 165 438 8 0 131 282 114 494 120 226 8 0 83 56
Fore
8 0 m 1
 114 494 l 1
 458 494 l 1
 446 438 l 1
 165 438 l 1
 131 282 l 1
 400 282 l 1
 389 226 l 1
 120 226 l 1
 83 56 l 1
 375 56 l 1
 363 0 l 1
 8 0 l 1
EndSplineSet
EndChar
StartChar: F
Encoding: 70 70 40
OldEncoding: 70
Width: 414
Flags: W
HStem: 0 21G<8 71> 226 56<131 355> 438 56<114 433>
DStem: 114 494 165 438 8 0 131 282 114 494 120 226 8 0 71 0
Fore
8 0 m 1
 114 494 l 1
 445 494 l 1
 433 438 l 1
 165 438 l 1
 131 282 l 1
 366 282 l 1
 355 226 l 1
 120 226 l 1
 71 0 l 1
 8 0 l 1
EndSplineSet
EndChar
StartChar: G
Encoding: 71 71 41
OldEncoding: 71
Width: 527
Flags: W
HStem: -16 56<196 226> -2 21G<388 428> 206 56<276 416> 345 21G<434 497> 445 58<307 331>
Fore
265 206 m 1
 277 262 l 1
 484 262 l 1
 428 -2 l 1
 388 -2 l 1
 386 59 l 1
 352 34 322 15 297 2 c 0
 271 -10 238 -16 196 -16 c 0
 173 -16 149 -10 125 0 c 0
 101 10 83 20 71 32 c 0
 47 58 31 90 25 128 c 0
 22.3811 144.15 20.9053 160.491 20.9053 177.022 c 0
 20.9053 198.364 23.3649 220.023 29 242 c 0
 34 267 44 292 55 316 c 0
 66 341 80 366 98 390 c 0
 115 414 136 434 160 452 c 0
 178 464 200 476 232 486 c 0
 262 496 292 503 324 503 c 0
 326.532 503.056 329.028 503.084 331.49 503.084 c 0
 372.788 503.084 404.238 495.269 425 483 c 0
 458 463 478 442 487 418 c 0
 494.015 396.955 497.186 376.678 497.186 354.473 c 0
 497.186 351.356 497.123 348.201 497 345 c 1
 434 345 l 1
 434.434 348.329 434.659 351.68 434.659 355.042 c 0
 434.659 374.907 426.815 395.185 408 414 c 0
 387 435 354 445 312 445 c 0
 289 445 266 441 242 433 c 0
 220 425 199 414 181 398 c 0
 160 381 143 358 126 330 c 0
 110 302 100 272 94 242 c 0
 89.402 222.294 86.9613 203.452 86.9613 184.905 c 0
 86.9613 175.216 87.6274 165.608 89 156 c 0
 94 128 102 105 115 87 c 0
 139 55 175 40 226 40 c 0
 261 40 290 47 317 63 c 0
 337 76 353 88 367 102 c 0
 379 114 389 128 395 141 c 0
 402 154 407 165 409 175 c 0
 411 184 413 194 416 206 c 1
 265 206 l 1
EndSplineSet
EndChar
StartChar: H
Encoding: 72 72 42
OldEncoding: 72
Width: 489
Flags: W
HStem: 0 21G<3 67 320 383> 226 56<127 369>
DStem: 109 494 173 494 3 0 127 282 109 494 116 226 3 0 67 0 369 226 489 494 320 0 383 0 426 494 489 494 380 282 383 0
Fore
320 0 m 1
 369 226 l 1
 116 226 l 1
 67 0 l 1
 3 0 l 1
 109 494 l 1
 173 494 l 1
 127 282 l 1
 380 282 l 1
 426 494 l 1
 489 494 l 1
 383 0 l 1
 320 0 l 1
EndSplineSet
EndChar
StartChar: I
Encoding: 73 73 43
OldEncoding: 73
Width: 188
Flags: W
HStem: 0 21G<15 78>
DStem: 121 494 184 494 15 0 78 0
Fore
15 0 m 1
 121 494 l 1
 184 494 l 5
 78 0 l 1
 15 0 l 1
EndSplineSet
EndChar
StartChar: J
Encoding: 74 74 44
OldEncoding: 74
Width: 339
Flags: W
DStem: 279 494 343 494 208 158 260 103
Fore
-6 157 m 1
 59 157 l 1
 48 107 l 2
 46.5109 100.671 45.7147 94.7582 45.7147 89.2094 c 0
 45.7147 79.8533 47.9783 71.5326 53 64 c 0
 59 53 71 45 85 42 c 0
 92 41 99 40 103 40 c 0
 129 40 152 50 172 69 c 0
 186 82 198 112 208 158 c 2
 279 494 l 1
 343 494 l 1
 260 103 l 1
 244 59 217 25 177 2 c 0
 156.392 -9.241 126.131 -16.0945 85.395 -16.0945 c 0
 82.6445 -16.0945 79.8463 -16.0632 77 -16 c 0
 35 -15 8 1 -5 27 c 0
 -14.8 45.9 -19.7 64.31 -19.7 82.23 c 0
 -19.7 89.91 -18.8 97.5 -17 105 c 2
 -6 157 l 1
EndSplineSet
EndChar
StartChar: K
Encoding: 75 75 45
OldEncoding: 75
Width: 452
Flags: W
HStem: 0 21G<0 65 318 391>
DStem: 106 494 171 494 0 0 119 250 106 494 101 168 0 0 65 0 199 249 252 293 318 0 391 0 416 494 499 494 119 250 252 293
Fore
106 494 m 1
 171 494 l 1
 119 250 l 1
 416 494 l 1
 499 494 l 1
 252 293 l 1
 391 0 l 1
 318 0 l 1
 199 249 l 1
 101 168 l 1
 65 0 l 1
 0 0 l 1
 106 494 l 1
EndSplineSet
EndChar
StartChar: L
Encoding: 76 76 46
OldEncoding: 76
Width: 377
Flags: W
HStem: 0 56<77 309>
DStem: 107 494 171 494 1 0 77 56
Fore
107 494 m 1
 171 494 l 1
 77 56 l 1
 321 56 l 1
 309 0 l 1
 1 0 l 1
 107 494 l 1
EndSplineSet
EndChar
StartChar: M
Encoding: 77 77 47
OldEncoding: 77
Width: 565
Flags: W
HStem: 0 21G<-2 63 198 263 398 463>
DStem: 104 494 149 401 -2 0 63 0 149 401 194 494 198 0 247 73 479 494 484 401 247 73 263 0 484 401 569 494 398 0 463 0
Fore
263 0 m 1
 198 0 l 1
 149 401 l 1
 63 0 l 1
 -2 0 l 1
 104 494 l 1
 194 494 l 1
 247 73 l 1
 479 494 l 1
 569 494 l 1
 463 0 l 1
 398 0 l 1
 484 401 l 1
 263 0 l 1
EndSplineSet
EndChar
StartChar: N
Encoding: 78 78 48
OldEncoding: 78
Width: 489
Flags: W
HStem: 0 21G<-1 62 312 385>
DStem: 105 494 147 396 -1 0 62 0 147 396 180 494 312 0 341 94 427 494 491 494 341 94 385 0
Fore
385 0 m 1
 312 0 l 1
 147 396 l 1
 62 0 l 1
 -1 0 l 1
 105 494 l 1
 180 494 l 1
 341 94 l 1
 427 494 l 1
 491 494 l 1
 385 0 l 1
EndSplineSet
EndChar
StartChar: O
Encoding: 79 79 49
OldEncoding: 79
Width: 527
Flags: W
HStem: -16 58<207 230> 445 58<300 324>
Fore
319 503 m 0
 350 503 379 496 406 486 c 0
 431 476 450 464 460 452 c 0
 484 426 499 394 505 357 c 0
 508.151 340.344 509.681 323.485 509.681 306.424 c 0
 509.681 285.585 507.399 264.444 503 243 c 0
 495 205 480 167 457 130 c 0
 436 93 407 61 372 35 c 0
 356 24 333 12 302 1 c 0
 271 -10 240 -16 209 -16 c 0
 179 -16 151 -10 124 1 c 0
 99 11 81 23 69 35 c 0
 43 61 29 93 23 130 c 0
 20.4286 145.857 19.1429 161.898 19.1429 178.044 c 0
 19.1429 199.571 21.4286 221.286 26 243 c 0
 31 267 39 292 51 318 c 0
 62 344 76 368 95 392 c 0
 112 415 135 435 157 452 c 0
 175 464 197 476 228 486 c 0
 259 496 289 503 319 503 c 0
307 445 m 0
 285 445 262 441 239 433 c 0
 216 425 195 414 178 398 c 0
 157 381 139 358 123 330 c 0
 109 303 96 273 90 243 c 0
 85.9167 224.917 83.875 207.854 83.875 191.416 c 0
 83.875 179.674 84.9167 168.25 87 157 c 0
 90 130 99 107 112 89 c 0
 135 58 171 42 221 42 c 0
 272 42 316 58 351 89 c 0
 372 106 390 129 406 157 c 0
 420 184 431 212 438 243 c 0
 441.875 262.373 444.081 281.745 444.081 300.31 c 0
 444.081 310.494 443.417 320.435 442 330 c 0
 438 358 430 381 417 398 c 0
 406 412 392 425 371 433 c 0
 352 441 331 445 307 445 c 0
EndSplineSet
EndChar
StartChar: P
Encoding: 80 80 50
OldEncoding: 80
Width: 452
Flags: W
HStem: 0 21G<9 72> 209 57<129 293> 438 56<115 324>
DStem: 115 494 166 438 9 0 129 266 115 494 117 209 9 0 72 0
Fore
9 0 m 1
 115 494 l 1
 322 494 l 2
 359 494 390 485 414 467 c 0
 435.709 451.369 444.599 425.936 444.599 390.7 c 0
 444.599 385.359 444.395 379.792 444 374 c 0
 444 368 442 359 440 349 c 0
 430 304 410 269 376 245 c 0
 342 221 312 209 281 209 c 2
 117 209 l 1
 72 0 l 1
 9 0 l 1
166 438 m 1
 129 266 l 1
 291 266 l 2
 303 266 319 273 339 288 c 0
 358 303 372 325 377 357 c 0
 378.363 364.043 379.004 370.518 379.004 376.461 c 0
 379.004 396.675 371.592 410.726 360 420 c 0
 346 433 328 438 309 438 c 2
 166 438 l 1
EndSplineSet
EndChar
StartChar: Q
Encoding: 81 81 51
OldEncoding: 81
Width: 527
Flags: W
HStem: -16 58<209 230> 445 58<302 326>
DStem: 266 101 304 139 308 60 356 89 349 18 395 52 406 -40 448 0
Fore
395 52 m 1
 448 0 l 1
 406 -40 l 1
 349 18 l 1
 303 -3 256 -15 211 -16 c 0
 181 -16 154 -10 127 1 c 0
 101 11 84 23 71 35 c 0
 46 61 32 93 25 130 c 0
 22.4286 145.857 21.1429 161.898 21.1429 178.044 c 0
 21.1429 199.571 23.4286 221.286 28 243 c 0
 34 267 42 292 53 318 c 0
 65 344 79 368 97 392 c 0
 115 415 137 435 160 452 c 0
 177 464 200 476 230 486 c 0
 261 496 292 503 322 503 c 0
 353 503 381 496 408 486 c 0
 434 476 452 464 463 452 c 0
 486 426 502 394 508 357 c 0
 511.062 340.812 512.594 324.434 512.594 307.863 c 0
 512.594 286.559 510.062 264.938 505 243 c 0
 498 208 485 173 466 139 c 0
 448 105 424 76 395 52 c 1
308 60 m 1
 266 101 l 1
 304 139 l 1
 356 89 l 1
 369 101 381 114 393 131 c 0
 403 148 414 165 423 184 c 0
 430 203 436 223 440 243 c 0
 444.584 262.644 446.595 282.288 446.595 301.089 c 0
 446.595 311.001 446.036 320.679 445 330 c 0
 441 358 433 381 419 398 c 0
 408 412 394 425 374 433 c 0
 355 441 333 445 309 445 c 0
 287 445 265 441 242 433 c 0
 218 425 198 414 180 398 c 0
 160 381 142 358 126 330 c 0
 111 303 99 273 92 243 c 0
 88.4 224.4 86.6 206.88 86.6 190.008 c 0
 86.6 178.76 87.4 167.8 89 157 c 0
 92 130 102 107 115 89 c 0
 137 58 174 42 224 42 c 0
 253 42 281 47 308 60 c 1
EndSplineSet
EndChar
StartChar: R
Encoding: 82 82 52
OldEncoding: 82
Width: 489
Flags: W
HStem: 0 21G<10 74 331 407> 212 57<132 299> 438 56<116 344>
DStem: 116 494 168 438 10 0 132 269 116 494 120 212 10 0 74 0
Fore
10 0 m 1
 116 494 l 1
 337 494 l 2
 383 494 419 487 444 470 c 0
 461.87 458.087 471.423 435.641 471.423 403.9 c 0
 471.423 393.011 470.299 381.027 468 368 c 0
 462 337 452 313 438 296 c 0
 426 280 404 263 375 244 c 1
 398 228 411 214 414 200 c 0
 414.485 196.36 414.735 192.014 414.735 186.947 c 0
 414.735 171.132 412.302 148.294 407 118 c 0
 401.619 88.4054 397.847 66.8534 397.847 53.3441 c 0
 397.847 51.7896 397.897 50.3415 398 49 c 0
 398 35 403 24 411 16 c 1
 407 0 l 1
 331 0 l 1
 329.5 7.5 328.75 16.5 328.75 26.875 c 0
 328.75 37.25 329.5 49 331 62 c 1
 343 120 l 2
 345.752 133.3 347.031 145.338 347.031 156.114 c 0
 347.031 168.834 345.248 179.797 342 189 c 0
 335 205 315 212 282 212 c 2
 120 212 l 1
 74 0 l 1
 10 0 l 1
327 438 m 2
 168 438 l 1
 132 269 l 1
 291 269 l 2
 346 269 382 294 398 344 c 1
 400.336 355.319 401.509 365.604 401.509 374.863 c 0
 401.509 417.138 377.041 438 327 438 c 2
EndSplineSet
EndChar
StartChar: S
Encoding: 83 83 53
OldEncoding: 83
Width: 452
Flags: W
HStem: -16 58<170 209> 449 54<247 281>
Fore
428 350 m 1
 367 350 l 1
 368.511 357.554 369.276 364.689 369.276 371.415 c 0
 369.276 395.851 359.172 414.885 338 429 c 0
 327 437 314 443 303 445 c 0
 290 447 278 449 261 449 c 0
 226 449 198 441 176 424 c 0
 154 407 139 388 134 366 c 0
 133.292 362.458 132.959 358.915 132.959 355.417 c 0
 132.959 349.041 134.063 342.812 136 337 c 0
 140 328 146 320 155 313 c 0
 171 302 195 296 224 288 c 0
 291 271 328 259 339 255 c 0
 359 247 377 233 389 211 c 0
 397.614 195.926 402.105 180.337 402.105 164.233 c 0
 402.105 157.902 401.411 151.491 400 145 c 0
 395 112 380 82 358 59 c 0
 336 35 308 16 276 3 c 0
 242 -9 208 -16 171 -16 c 0
 134 -15 105 -10 84 -1 c 0
 62 7 41 23 27 46 c 0
 15 66 10 82 9 97 c 0
 8.83333 99.5 8.75 102.139 8.75 104.917 c 0
 8.75 118.806 10.8333 136.167 15 157 c 1
 74 157 l 1
 72.0442 147.612 71.0064 138.53 71.0064 129.575 c 0
 71.0064 115.636 73.5205 102.003 79 88 c 0
 87 64 109 50 146 44 c 0
 155 43 176 42 209 42 c 1
 242 45 267 53 284 66 c 0
 310 84 326 105 331 131 c 0
 332.033 135.751 332.554 140.331 332.554 144.758 c 0
 332.554 161.764 324.869 176.511 309 190 c 1
 286 202 253 211 211 221 c 0
 180 228 161 235 154 238 c 0
 146 242 133 246 117 252 c 0
 85.2679 262.292 69.7172 285.822 69.7172 322.593 c 0
 69.7172 328.697 70.1458 335.166 71 342 c 1
 78 373 89 400 108 425 c 0
 125 449 147 468 175 483 c 0
 203 496 235 503 271 503 c 0
 323 503 360 494 386 477 c 0
 416.224 453.751 432.034 423.896 432.034 385.573 c 0
 432.034 374.444 430.7 362.602 428 350 c 1
EndSplineSet
EndChar
StartChar: T
Encoding: 84 84 54
OldEncoding: 84
Width: 414
Flags: W
HStem: 0 21G<124 188> 438 56<67 218 68 443>
DStem: 218 438 282 438 124 0 188 0
Fore
124 0 m 1
 218 438 l 1
 56 438 l 1
 68 494 l 1
 455 494 l 1
 443 438 l 1
 282 438 l 1
 188 0 l 1
 124 0 l 1
EndSplineSet
EndChar
StartChar: U
Encoding: 85 85 55
OldEncoding: 85
Width: 489
Flags: W
HStem: -16 54<191 210>
DStem: 112 494 175 494 37 138 100 141 428 494 491 494 353 141 416 138
Fore
112 494 m 1
 175 494 l 1
 100 141 l 2
 98.75 134.75 98.125 128.625 98.125 122.609 c 0
 98.125 104.562 103.75 87.5 115 71 c 0
 132 50 160 38 204 38 c 0
 249 38 283 50 308 71 c 0
 333 93 348 116 353 141 c 2
 428 494 l 1
 491 494 l 1
 416 138 l 2
 412 123 406 107 396 90 c 0
 388 73 373 56 356 40 c 0
 337 23 314 10 287 0 c 0
 260 -10 228 -16 193 -16 c 0
 148 -16 112 -8 88 9 c 0
 63 26 47 47 40 71 c 0
 35.5321 84.4036 33.5595 96.8714 33.5595 109.1 c 0
 33.5595 118.768 34.7924 128.287 37 138 c 2
 112 494 l 1
EndSplineSet
EndChar
StartChar: V
Encoding: 86 86 56
OldEncoding: 86
Width: 452
Flags: W
HStem: 0 21G<142 210>
DStem: 73 494 141 494 142 0 196 76
Fore
196 76 m 1
 423 494 l 1
 490 494 l 1
 210 0 l 1
 142 0 l 1
 73 494 l 1
 141 494 l 1
 196 76 l 1
EndSplineSet
EndChar
StartChar: W
Encoding: 87 87 57
OldEncoding: 87
Width: 639
Flags: W
HStem: 0 21G<87 156 381 451>
DStem: 68 494 139 494 87 0 145 96 340 494 354 402 145 96 156 0 354 402 409 494 381 0 434 96
Fore
434 96 m 1
 612 494 l 1
 682 494 l 1
 451 0 l 1
 381 0 l 1
 354 402 l 1
 156 0 l 1
 87 0 l 1
 68 494 l 1
 139 494 l 1
 145 96 l 1
 340 494 l 1
 409 494 l 1
 434 96 l 1
EndSplineSet
EndChar
StartChar: X
Encoding: 88 88 58
OldEncoding: 88
Width: 452
Flags: W
HStem: 0 21G<-38 41 309 387>
DStem: 80 494 157 494 190 253 241 305 190 253 219 201 -38 0 41 0 219 201 269 253 309 0 387 0 409 494 486 494 241 305 269 253
Fore
486 494 m 1
 269 253 l 1
 387 0 l 1
 309 0 l 1
 219 201 l 1
 41 0 l 1
 -38 0 l 1
 190 253 l 1
 80 494 l 1
 157 494 l 1
 241 305 l 1
 409 494 l 1
 486 494 l 1
EndSplineSet
EndChar
StartChar: Y
Encoding: 89 89 59
OldEncoding: 89
Width: 452
Flags: W
HStem: 0 21G<145 209>
DStem: 62 494 140 494 187 193 230 254 187 193 251 193 145 0 209 0 424 494 502 494 230 254 251 193
Fore
62 494 m 1
 140 494 l 1
 230 254 l 1
 424 494 l 1
 502 494 l 1
 251 193 l 1
 209 0 l 1
 145 0 l 1
 187 193 l 1
 62 494 l 1
EndSplineSet
MinimumDistance: x0,4 
EndChar
StartChar: Z
Encoding: 90 90 60
OldEncoding: 90
Width: 414
Flags: W
HStem: 0 56<58 343> 438 56<92 355>
DStem: 355 438 434 436 -22 54 58 56
Fore
81 438 m 1
 93 494 l 1
 447 494 l 1
 434 436 l 1
 58 56 l 1
 355 56 l 1
 343 0 l 1
 -34 0 l 1
 -22 54 l 1
 355 438 l 1
 81 438 l 1
EndSplineSet
EndChar
StartChar: bracketleft
Encoding: 91 91 61
OldEncoding: 91
Width: 188
Flags: W
HStem: -145 51<44 102> 443 51<111 227>
DStem: 111 494 158 443 -25 -145 44 -94
Fore
111 494 m 1
 238 494 l 1
 227 443 l 1
 158 443 l 1
 44 -94 l 1
 113 -94 l 1
 102 -145 l 1
 -25 -145 l 1
 111 494 l 1
EndSplineSet
EndChar
StartChar: backslash
Encoding: 92 92 62
OldEncoding: 92
Width: 188
Flags: W
HStem: -14 21G<101 138>
DStem: 48 494 86 494 101 -14 138 -14
Fore
101 -14 m 1
 48 494 l 1
 86 494 l 1
 138 -14 l 1
 101 -14 l 1
EndSplineSet
EndChar
StartChar: bracketright
Encoding: 93 93 63
OldEncoding: 93
Width: 188
Flags: W
HStem: -146 51<-42 73> 443 51<83 141>
DStem: 141 443 209 494 27 -95 73 -146
Fore
73 443 m 1
 84 494 l 1
 209 494 l 1
 73 -146 l 1
 -52 -146 l 1
 -41 -95 l 1
 27 -95 l 1
 141 443 l 1
 73 443 l 1
EndSplineSet
EndChar
StartChar: asciicircum
Encoding: 94 94 64
OldEncoding: 94
Width: 317
Flags: W
DStem: 161 484 173 426 2 226 50 226 173 426 211 484 214 226 261 226
Fore
2 226 m 1
 161 484 l 1
 211 484 l 1
 261 226 l 1
 214 226 l 1
 173 426 l 1
 50 226 l 1
 2 226 l 1
EndSplineSet
EndChar
StartChar: underscore
Encoding: 95 95 65
OldEncoding: 95
Width: 377
Flags: W
HStem: -119 34<-12 388>
Fore
396 -85 m 1
 388 -119 l 1
 -19 -119 l 1
 -11 -85 l 1
 396 -85 l 1
EndSplineSet
EndChar
StartChar: grave
Encoding: 96 96 66
OldEncoding: 96
Width: 182
VWidth: 2048
Flags: W
HStem: 404 90<38 138>
Fore
138 404 m 1
 92 404 l 1
 38 494 l 5
 115 494 l 1
 138 404 l 1
EndSplineSet
EndChar
StartChar: a
Encoding: 97 97 67
OldEncoding: 97
Width: 377
Flags: W
HStem: -16 49<106 119>
DStem: 263 174 348 292 248 103 297 53
Fore
348 292 m 2
 297 53 l 2
 296.871 52.225 296.808 51.4833 296.808 50.7686 c 0
 296.808 45.9499 299.646 42.3541 304 38 c 0
 310 35 320 33 333 33 c 1
 324 -9 l 1
 274 -16 l 1
 248.633 -7.84624 235.577 6.87383 235.577 28.9038 c 0
 235.577 31.1902 235.718 33.5553 236 36 c 1
 211 19 190 7 174 -1 c 0
 158 -9 135 -16 112 -16 c 0
 110.325 -16.0419 108.67 -16.0627 107.037 -16.0627 c 0
 69.6737 -16.0627 43.2879 -5.16228 27 14 c 0
 14.755 27.6856 7.69824 46.0406 7.69824 68.3176 c 0
 7.69824 76.9682 8.76235 86.2103 11 96 c 0
 17 123 30 144 47 158 c 0
 63 172 82 182 106 189 c 0
 124 194 141 198 155 200 c 0
 171 202 187 205 207 206 c 0
 225 207 236 208 242 209 c 0
 263 215 273 224 276 236 c 2
 285 279 l 1
 285 290 278 301 261 306 c 0
 245.25 312.125 226.438 315.188 204.562 315.188 c 0
 201.438 315.188 198.25 315.125 195 315 c 0
 153 314 127 292 114 250 c 1
 61 250 l 1
 68 280 l 1
 75 294 84 307 98 320 c 0
 110 332 125 342 143 350 c 0
 160 358 182 363 211 366 c 1
 239 366 261 364 279 360 c 0
 301 355 321 347 333 334 c 0
 342.941 324.887 348.764 313.029 348.764 300.132 c 0
 348.764 297.461 348.515 294.745 348 292 c 2
248 103 m 2
 263 174 l 1
 249 168 233 165 215 163 c 0
 198 159 179 157 160 154 c 0
 140 150 124 146 114 142 c 0
 106 139 97 133 87 124 c 0
 77 116 72 106 70 94 c 0
 68.4057 87.3041 67.6248 81.3198 67.6248 75.95 c 0
 67.6248 64.4788 71.1885 55.8115 78 49 c 0
 89 38 102 33 119 33 c 0
 120.944 32.9155 122.874 32.8738 124.789 32.8738 c 0
 145.536 32.8738 164.606 37.7607 182 46 c 0
 200 55 217 66 228 77 c 0
 241 89 246 97 248 103 c 2
EndSplineSet
EndChar
StartChar: b
Encoding: 98 98 68
OldEncoding: 98
Width: 377
Flags: W
HStem: -16 54<142 152> 0 21G<-15 35> 308 58<206 230>
VStem: 283 66<229 235>
DStem: 90 494 148 494 -15 0 110 313
Fore
90 494 m 1
 148 494 l 1
 110 313 l 1
 117 324 131 334 150 345 c 0
 161 350 173 356 186 360 c 0
 200 364 215 366 230 366 c 0
 271 366 303 351 324 321 c 0
 333 311 339 297 342 282 c 0
 346.354 269.808 349.192 256.1 349.192 241.536 c 0
 349.192 239.375 349.129 237.196 349 235 c 0
 349.106 233.205 349.155 231.388 349.155 229.551 c 0
 349.155 213.988 345.578 196.994 342 180 c 0
 340 168 338 159 336 154 c 0
 327 119 310 88 290 61 c 0
 269 33 245 11 216 -1 c 0
 191 -12 166 -16 143 -16 c 0
 117 -16 97 -11 85 -1 c 0
 63 16 49 29 44 40 c 1
 35 0 l 1
 -15 0 l 1
 90 494 l 1
224 71 m 0
 250 99 268 134 277 177 c 0
 281 198 283 217 283 234 c 0
 283 251 278 263 273 273 c 1
 263.673 295.386 243.906 308.201 212.887 308.201 c 0
 210.65 308.201 208.354 308.135 206 308 c 0
 175 308 149 296 129 275 c 0
 119 264 110 251 101 232 c 0
 90 211 83 191 78 170 c 0
 75.2778 156.778 73.9167 144.009 73.9167 131.694 c 0
 73.9167 112.343 77.2778 94.1111 84 77 c 0
 93 54 113 42 142 38 c 1
 177 38 205 50 224 71 c 0
EndSplineSet
EndChar
StartChar: c
Encoding: 99 99 69
OldEncoding: 99
Width: 339
Flags: W
HStem: 314 52<211 222>
VStem: 280 59<236 268.25>
Fore
258 123 m 1
 312 123 l 1
 305 94 294 70 278 51 c 0
 261 29 237 12 212 1 c 0
 187.651 -9.30141 161.548 -16.0947 135.334 -16.0947 c 0
 133.556 -16.0947 131.778 -16.0635 130 -16 c 0
 103 -16 80 -7 60 6 c 0
 40 18 26 36 21 60 c 0
 16.6185 76.5523 14.3701 94.5267 14.3701 114.038 c 0
 14.3701 134.606 16.8683 156.881 22 181 c 0
 36 235 62 280 102 318 c 0
 136 349 174 365 220 366 c 0
 240 366 258 364 274 358 c 0
 291 353 304 345 313 334 c 1
 325 327 332 313 336 296 c 0
 338 287.5 339 278.25 339 268.25 c 0
 339 258.25 338 247.5 336 236 c 1
 280 236 l 1
 280 255 280 270 276 280 c 0
 273 289 267 297 256 303 c 0
 241 311 225 314 211 314 c 0
 184 313 158 301 133 277 c 0
 114 260 96 231 85 189 c 0
 77.9706 161.468 75.0589 139.083 75.0589 121.846 c 0
 75.0589 109.657 76.5147 100.042 79 93 c 0
 88.7497 56.9262 113.708 37.9625 152.023 37.9625 c 0
 153.006 37.9625 153.999 37.975 155 38 c 0
 170 38 184 43 200 51 c 0
 213 59 224 67 231 77 c 0
 244 94 253 108 258 123 c 1
EndSplineSet
EndChar
StartChar: d
Encoding: 100 100 70
OldEncoding: 100
Width: 377
Flags: W
HStem: -16 54<122 143> -1 21G<235 285> 307 59<195 208>
DStem: 333 494 390 494 295 313 285 -1
Fore
333 494 m 1
 390 494 l 1
 285 -1 l 1
 235 -1 l 1
 244 41 l 1
 225 24 206 9 186 -2 c 0
 171 -11 149 -16 122 -16 c 0
 95 -16 72 -11 54 -1 c 0
 32 11 17 32 8 60 c 0
 2.3875 78.9422 -0.764046 99.8531 -0.764047 122.733 c 0
 -0.764047 132.466 -0.193752 142.555 1 153 c 0
 1 158 3 168 6 181 c 0
 11 208 22 234 35 259 c 0
 48 285 64 305 81 320 c 0
 119 350 156 366 195 366 c 0
 225 366 250 359 269 345 c 0
 281 334 290 324 295 313 c 1
 333 494 l 1
76 70 m 0
 88.497 49.8125 109.311 37.9421 139.33 37.9421 c 0
 140.539 37.9421 141.762 37.9613 143 38 c 0
 158 38 173 43 187 50 c 0
 201 56 212 66 221 77 c 0
 242 104 257 134 264 168 c 0
 267.876 185.831 269.348 202.46 269.348 218.352 c 0
 269.348 222.96 269.225 227.505 269 232 c 0
 267 251 264 266 259 273 c 0
 247 296 225 307 195 307 c 0
 161 307 134 296 113 273 c 0
 91 250 76 217 68 176 c 0
 64.225 159.767 62.4451 144.675 62.4451 130.669 c 0
 62.4451 107.572 67.285 87.43 76 70 c 0
EndSplineSet
EndChar
StartChar: e
Encoding: 101 101 71
OldEncoding: 101
Width: 377
Flags: W
HStem: -16 50<143 164> 155 51<97 344> 320 46<230 243>
Fore
344 155 m 1
 84 155 l 1
 80.6863 141.745 78.7452 129.863 78.7452 120.49 c 0
 78.7452 118.549 78.8284 116.716 79 115 c 0
 79 105 82 93 86 78 c 1
 102 49 125 34 158 34 c 0
 175 34 188 36 203 42 c 0
 215 47 225 54 235 62 c 0
 244 70 251 79 256 87 c 0
 261 95 264 102 268 108 c 1
 326 108 l 1
 312 78 296 54 279 37 c 0
 262 20 244 8 222 -1 c 0
 197 -11 173 -16 148 -16 c 0
 123 -16 100 -11 82 -1 c 0
 62 9 46 23 35 42 c 0
 24.8932 59.8356 19.7347 83.3264 19.7347 111.422 c 0
 19.7347 130.584 22.1342 151.888 27 175 c 0
 41 235 66 281 100 313 c 0
 139.972 347.123 185.648 366.038 238.88 366.038 c 0
 240.248 366.038 241.622 366.025 243 366 c 0
 257 366 269 363 282 358 c 0
 295 354 306 348 316 340 c 0
 325 332 333 324 337 315 c 0
 346 298 352 282 354 267 c 0
 355.414 255.686 356.828 244.873 356.828 235.266 c 0
 356.828 231.287 356.586 227.515 356 224 c 0
 354 210 350 188 344 155 c 1
97 206 m 1
 293 206 l 1
 294.5 213 295 220.75 295 228.875 c 0
 295 237 294.5 245.5 294 254 c 0
 291 271 289 282 284 288 c 1
 283 296 277 303 265 308 c 0
 256 314 245 320 230 320 c 0
 228.497 320.042 227.009 320.063 225.534 320.063 c 0
 191.675 320.063 165.123 309.082 145 288 c 1
 138 284 129 272 119 255 c 0
 107 237 102 220 97 206 c 1
EndSplineSet
EndChar
StartChar: f
Encoding: 102 102 72
OldEncoding: 102
Width: 188
Flags: W
HStem: 0 21G<7 65> 304 52<34 72 141 186> 446 50<195 217>
DStem: 72 304 130 304 7 0 65 0
Fore
7 0 m 1
 72 304 l 1
 24 304 l 1
 35 356 l 1
 83 356 l 1
 96 416 l 2
 101 440 113 459 130 473 c 0
 148 487 160 494 170 494 c 0
 176 495 185 496 198 496 c 0
 211 496 221 495 227 494 c 1
 217 446 l 1
 196 446 180 444 171 440 c 0
 162 434 155 424 152 408 c 2
 141 356 l 1
 197 356 l 1
 186 304 l 1
 130 304 l 1
 65 0 l 1
 7 0 l 1
EndSplineSet
EndChar
StartChar: g
Encoding: 103 103 73
OldEncoding: 103
Width: 377
Flags: W
HStem: -148 50<109 133> 304 62<215 228>
Fore
328 356 m 1
 384 356 l 1
 321 60 l 2
 313 25 304 -5 295 -29 c 0
 285 -54 273 -76 256 -95 c 0
 240 -114 220 -127 194 -134 c 0
 172 -141 151 -146 133 -148 c 1
 96 -148 70 -145 54 -138 c 0
 37 -130 23 -121 14 -110 c 0
 6 -98 0 -87 -1 -75 c 0
 -1.29289 -71.4853 -1.41421 -68.0564 -1.41421 -64.6881 c 0
 -1.41421 -56.5564 -0.707107 -48.7782 0 -41 c 1
 57 -41 l 1
 58 -43 59 -46 59 -52 c 0
 59 -58 59 -62 60 -66 c 0
 60 -69 63 -73 67 -77 c 0
 72 -81 78 -86 87 -90 c 0
 96 -96 111 -98 129 -98 c 0
 148 -98 167 -95 183 -89 c 1
 200 -81 211 -73 217 -66 c 0
 223 -59 230 -47 237 -32 c 0
 247 -8 255 17 261 43 c 1
 219.024 3.95292 177.049 -16.0357 134.143 -16.0357 c 0
 133.096 -16.0357 132.048 -16.0238 131 -16 c 0
 106 -15 83 -3 64 16 c 1
 47 28 36 47 29 72 c 0
 26.3871 85.0647 24.8665 98.6756 24.8665 113.118 c 0
 24.8665 126.312 26.1355 140.2 29 155 c 0
 35 184 45 214 57 242 c 0
 70 270 85 294 102 311 c 0
 112 321 129 333 154 347 c 0
 177 359 203 366 228 366 c 0
 266 365 297 348 318 313 c 1
 328 356 l 1
234 66 m 0
 260 88 278 123 288 171 c 0
 292.167 189.333 294.25 207.667 294.25 224.843 c 0
 294.25 228.278 294.167 231.667 294 235 c 0
 292 255 286 270 278 280 c 0
 275 285 267 290 257 296 c 0
 246 302 232 304 220 304 c 0
 182 304 151 287 127 252 c 0
 113 231 101 205 93 172 c 0
 88.7338 154.082 86.8337 137.984 86.8337 123.784 c 0
 86.8337 104.699 90.2662 89.0411 96 77 c 0
 108 53 129 38 157 38 c 0
 158.369 37.9544 159.73 37.9316 161.083 37.9316 c 0
 189.363 37.9316 213.959 47.8672 234 66 c 0
EndSplineSet
EndChar
StartChar: h
Encoding: 104 104 74
OldEncoding: 104
Width: 377
Flags: W
HStem: 0 21G<-6 51 219 277> 314 52<196 239>
DStem: 100 494 157 494 -6 0 118 313 100 494 101 232 -6 0 51 0 271 243 335 270 219 0 277 0
Fore
-6 0 m 1
 100 494 l 1
 157 494 l 1
 118 313 l 1
 140 332 163 347 188 357 c 1
 211 363 227 366 239 366 c 0
 258 366 276 360 294 354 c 0
 316 345 328 333 332 315 c 0
 334.667 303 336 292.333 336 283 c 0
 336 278.333 335.667 274 335 270 c 2
 277 0 l 1
 219 0 l 1
 271 243 l 2
 272.925 252.077 273.867 260.17 273.867 267.321 c 0
 273.867 286.17 267.324 298.475 255 305 c 1
 239 311 219 314 196 314 c 1
 179 311 158 301 135 284 c 0
 117 270 105 253 101 232 c 2
 51 0 l 1
 -6 0 l 1
EndSplineSet
EndChar
StartChar: i
Encoding: 105 105 75
OldEncoding: 105
Width: 150
Flags: W
HStem: 0 21G<-8 49>
DStem: 68 356 125 356 -8 0 49 0 98 494 155 494 83 424 140 424
Fore
125 356 m 1
 49 0 l 1
 -8 0 l 1
 68 356 l 1
 125 356 l 1
155 494 m 1
 140 424 l 1
 83 424 l 1
 98 494 l 1
 155 494 l 1
EndSplineSet
EndChar
StartChar: j
Encoding: 106 106 76
OldEncoding: 106
Width: 150
Flags: W
DStem: 85 356 143 356 -5 -66 51 -78 114 494 172 494 99 424 157 424
Fore
99 424 m 1
 114 494 l 1
 172 494 l 1
 157 424 l 1
 99 424 l 1
-80 -148 m 1
 -70 -98 l 1
 -36 -95 l 2
 -28 -94 -20 -90 -14 -84 c 0
 -9 -78 -6 -71 -5 -66 c 2
 85 356 l 1
 143 356 l 1
 51 -78 l 2
 48 -90 42 -103 32 -116 c 0
 21 -129 5 -138 -15 -144 c 0
 -30 -147 -51 -148 -80 -148 c 1
EndSplineSet
EndChar
StartChar: k
Encoding: 107 107 77
OldEncoding: 107
Width: 339
Flags: W
HStem: 0 21G<-13 43 217 287>
DStem: 93 494 149 494 -13 0 88 208 93 494 72 133 -13 0 43 0 142 190 192 233 217 0 287 0 269 356 343 356 88 208 192 233
Fore
93 494 m 1
 149 494 l 1
 88 208 l 1
 269 356 l 1
 343 356 l 1
 192 233 l 1
 287 0 l 1
 217 0 l 1
 142 190 l 1
 72 133 l 1
 43 0 l 1
 -13 0 l 1
 93 494 l 1
EndSplineSet
EndChar
StartChar: l
Encoding: 108 108 78
OldEncoding: 108
Width: 150
Flags: W
HStem: 0 21G<-7 50>
DStem: 99 494 156 494 -7 0 50 0
Fore
-7 0 m 1
 99 494 l 1
 156 494 l 1
 50 0 l 1
 -7 0 l 1
EndSplineSet
EndChar
StartChar: m
Encoding: 109 109 79
OldEncoding: 109
Width: 565
Flags: W
HStem: 0 21G<10 66 215 272 421 479> 314 52<217 248 420 445>
DStem: 86 356 115 229 10 0 66 0 269 255 324 242 215 0 272 0 475 254 538 278 421 0 479 0
Fore
10 0 m 1
 86 356 l 1
 142 356 l 1
 132 311 l 1
 152 333 167 347 178 351 c 0
 198 362 222 366 248 366 c 0
 275 366 295 362 305 353 c 0
 318 342 327 330 334 313 c 1
 342 321 350 328 354 332 c 0
 358 337 364 341 371 346 c 0
 376 350 383 354 391 357 c 0
 406 363 424 366 445 366 c 0
 476 366 498 363 509 355 c 0
 515 351 521 346 527 337 c 0
 533 329 536 319 539 308 c 0
 539 303 539.25 298 539.25 293 c 0
 539.25 288 539 283 538 278 c 2
 479 0 l 1
 421 0 l 1
 475 254 l 1
 475.214 256.852 475.321 259.603 475.321 262.252 c 0
 475.321 296.751 457.148 314 420 314 c 0
 395 314 374 307 360 294 c 0
 343 280 331 263 324 242 c 1
 272 0 l 1
 215 0 l 1
 269 255 l 2
 270.352 261.01 271.005 266.547 271.005 271.616 c 0
 271.005 300.281 250.14 314 217 314 c 0
 194 314 173 306 154 290 c 0
 136 275 122 254 115 229 c 1
 66 0 l 1
 10 0 l 1
EndSplineSet
EndChar
StartChar: n
Encoding: 110 110 80
OldEncoding: 110
Width: 377
Flags: W
HStem: 0 21G<8 65 234 291> 314 52<230 255>
DStem: 84 356 105 189 8 0 65 0 287 247 350 277 234 0 291 0
Fore
84 356 m 1
 141 356 l 1
 131 311 l 1
 150 331 166 345 180 350 c 1
 195.916 359.362 218.844 366.095 248.784 366.095 c 0
 250.824 366.095 252.896 366.064 255 366 c 0
 281 366 299 363 310 357 c 0
 323 349 334 339 342 329 c 0
 348.111 320.597 350.721 308.692 350.721 292.84 c 0
 350.721 287.941 350.472 282.666 350 277 c 1
 291 0 l 1
 234 0 l 1
 287 247 l 2
 288.183 252.917 288.744 258.211 288.744 263.129 c 0
 288.744 270.678 287.422 277.339 285 284 c 0
 282 294 274 302 263 306 c 0
 254 312 243 314 230 314 c 0
 203 314 177 304 154 285 c 0
 131 266 115 233 105 189 c 2
 65 0 l 1
 8 0 l 1
 84 356 l 1
EndSplineSet
EndChar
StartChar: o
Encoding: 111 111 81
OldEncoding: 111
Width: 377
Flags: W
HStem: -16 58<142 163> 310 56<207 228>
Fore
26 54 m 0
 20.2505 70.2031 17.233 88.8649 17.233 110.128 c 0
 17.233 129.546 19.7495 151.134 25 175 c 0
 36 226 53 266 78 296 c 0
 98 320 121 339 147 350 c 0
 173 362 199 366 226 366 c 0
 252 366 276 360 298 349 c 0
 320 338 334 320 344 296 c 0
 350.273 279.271 353.267 260.356 353.267 239.112 c 0
 353.267 219.718 350.772 198.384 346 175 c 0
 336 128 318 87 292 54 c 0
 272 31 250 12 224 1 c 0
 198 -10 170 -16 144 -16 c 0
 117 -16 94 -10 73 1 c 0
 51 12 36 31 26 54 c 0
157 42 m 0
 175 42 193 46 209 55 c 0
 227 64 240 78 252 96 c 0
 269 123 281 149 287 175 c 0
 289.386 186.931 290.634 199.317 290.634 212.05 c 0
 290.634 225.998 289.137 240.362 286 255 c 0
 282 273 274 287 261 296 c 0
 247 305 231 310 214 310 c 0
 196 310 178 305 160 297 c 0
 142 288 126 275 114 255 c 1
 106 238 99 223 94 210 c 0
 89 198 84 185 82 175 c 0
 80.202 165.561 79.2122 154.909 79.2122 143.227 c 0
 79.2122 128.919 80.6969 113.066 84 96 c 0
 87 78 97 64 110 55 c 0
 123 46 139 42 157 42 c 0
EndSplineSet
EndChar
StartChar: p
Encoding: 112 112 82
OldEncoding: 112
Width: 377
Flags: W
HStem: -16 59<172 190> 313 53<228 250>
DStem: 89 356 79 38 -19 -148 39 -148
Fore
39 -148 m 1
 -19 -148 l 1
 89 356 l 1
 139 356 l 1
 129 311 l 1
 141 324 160 338 186 353 c 0
 203 362 225 366 250 366 c 0
 276 366 299 362 318 351 c 0
 342 339 358 319 366 290 c 0
 372.06 271.147 375.853 251.387 375.853 230.11 c 0
 375.853 219.787 374.96 209.107 373 198 c 0
 373 192 371 183 368 172 c 0
 362 144 351 116 338 92 c 0
 325 66 308 45 290 31 c 0
 255 0 216 -16 176 -16 c 0
 147 -16 123 -9 105 6 c 0
 92 16 83 26 79 38 c 1
 39 -148 l 1
296 280 m 0
 285.425 301.15 264.683 313.058 231.998 313.058 c 0
 230.685 313.058 229.352 313.039 228 313 c 0
 214 313 200 307 187 302 c 1
 172 294 161 285 153 273 c 0
 130 246 116 216 109 182 c 0
 105.583 168.332 104.034 154.198 104.034 140.554 c 0
 104.034 134.232 104.367 128.016 105 122 c 0
 106 103 109 87 114 77 c 0
 121 66 129 58 141 52 c 0
 152 46 163 43 177 43 c 0
 212 43 238 54 259 77 c 0
 279 99 295 131 304 173 c 0
 307.429 189.385 309.117 204.754 309.117 219.051 c 0
 309.117 242.274 304.665 262.669 296 280 c 0
EndSplineSet
EndChar
StartChar: q
Encoding: 113 113 83
OldEncoding: 113
Width: 377
Flags: W
HStem: -16 59<141 167> 313 53<225 234>
DStem: 264 38 389 356 224 -148 281 -148
Fore
281 -148 m 1
 224 -148 l 1
 264 38 l 1
 256 27 242 16 224 6 c 0
 199 -9 171 -16 141 -16 c 0
 102 -16 72 0 47 31 c 0
 32.0154 51.1966 24.2466 77.76 24.2466 110.967 c 0
 24.2466 128.73 26.4695 148.393 31 170 c 0
 34 182 36 192 38 198 c 0
 49 232 65 262 84 290 c 0
 106 319 129 339 156 351 c 0
 179 362 204 366 231 366 c 0
 257 366 277 362 289 353 c 0
 307 340 319 327 329 311 c 1
 339 356 l 1
 389 356 l 1
 281 -148 l 1
148 280 m 0
 120 252 103 215 94 172 c 0
 90.6661 156.442 89.2533 142.256 89.2533 129.492 c 0
 89.2533 107.801 93.3339 90.2208 99 77 c 0
 110 54 133 43 167 43 c 0
 181 43 196 46 209 52 c 0
 223 58 235 67 245 77 c 0
 263 96 278 122 288 156 c 0
 290 162 292 170 294 181 c 0
 297.2 195.4 298.64 208.84 298.64 221.448 c 0
 298.64 240.36 295.4 257.4 290 273 c 0
 286 285 280 294 269 301 c 0
 258 307 244 313 229 313 c 0
 227.708 313.042 226.42 313.062 225.136 313.062 c 0
 195.597 313.062 168.125 302.042 148 280 c 0
EndSplineSet
EndChar
StartChar: r
Encoding: 114 114 84
OldEncoding: 114
Width: 226
Flags: W
HStem: 0 21G<7 65> 306 60<223 244>
DStem: 83 356 104 185 7 0 65 0
Fore
7 0 m 1
 83 356 l 1
 141 356 l 1
 129 301 l 1
 143 320 161 336 179 348 c 0
 195 359 212 365 224 366 c 2
 257 366 l 1
 244 306 l 1
 223 306 205 304 188 298 c 0
 167 289 149 276 135 259 c 0
 120 240 111 216 104 185 c 2
 65 0 l 1
 7 0 l 1
EndSplineSet
EndChar
StartChar: s
Encoding: 115 115 85
OldEncoding: 115
Width: 339
Flags: W
Fore
8 105 m 1
 62 105 l 1
 62 90 62 80 63 73 c 0
 64 68 69 61 75 54 c 0
 81 47 93 42 108 36 c 1
 117 35 134 34 159 34 c 1
 180 37 196 42 206 49 c 0
 212 52 219 59 226 68 c 0
 232 76 236 84 237 92 c 0
 237.887 95.7264 238.334 99.2953 238.334 102.69 c 0
 238.334 118.426 228.741 130.42 209 137 c 0
 201 139 192 141 179 145 c 0
 165 148 153 151 144 154 c 0
 134 156 124 159 111 163 c 0
 100 166 91 170 85 173 c 0
 59.6301 182.225 47.8539 202.089 47.8539 231.229 c 0
 47.8539 239.993 48.9191 249.595 51 260 c 0
 58 293 76 319 106 338 c 0
 135 357 168 366 205 366 c 0
 278.96 366 315.94 339.374 315.94 285.487 c 0
 315.94 276.715 314.96 267.22 313 257 c 1
 257 257 l 1
 258.194 261.477 258.764 265.864 258.764 270.083 c 0
 258.764 280 255.612 288.984 250 296 c 0
 242 306 221 312 187 313 c 1
 152 311 127 298 110 276 c 0
 109 272 107 267 105 259 c 0
 104.076 255.302 103.632 251.871 103.632 248.707 c 0
 103.632 238.182 108.542 230.613 117 226 c 0
 124 223 130 219 137 217 c 0
 142 215 150 214 161 210 c 0
 172 207 183 203 195 200 c 0
 228 194 253 185 272 173 c 0
 287.757 162.257 295.819 144.331 295.819 118.856 c 0
 295.819 108.764 294.554 97.4857 292 85 c 1
 285 67 275 50 260 35 c 0
 246 19 228 7 209 -1 c 0
 190 -9 168 -15 141 -16 c 0
 136.196 -16.1716 131.569 -16.2548 127.108 -16.2548 c 0
 105.569 -16.2548 87.9117 -14.3137 73 -11 c 0
 26.8365 -1.28136 4.28592 26.8029 4.28592 71.128 c 0
 4.28592 81.5329 5.52853 92.8327 8 105 c 1
EndSplineSet
EndChar
StartChar: t
Encoding: 116 116 86
OldEncoding: 116
Width: 188
Flags: W
HStem: -16 52<61 107> 304 52<37 77 145 190>
DStem: 77 304 134 304 20 35 82 56 109 452 166 452 88 356 145 356
Fore
166 452 m 1
 145 356 l 1
 201 356 l 1
 190 304 l 1
 134 304 l 1
 82 56 l 2
 81.621 54.3577 81.4335 52.8112 81.4335 51.3624 c 0
 81.4335 41.3431 90.4003 36 107 36 c 0
 112 36 121 37 134 38 c 1
 123 -11 l 1
 106 -15 86 -16 61 -16 c 1
 45 -14 32 -7 26 5 c 0
 21.5 13.25 19.25 20.9375 19.25 28.0625 c 0
 19.25 30.4375 19.5 32.75 20 35 c 2
 77 304 l 1
 27 304 l 1
 38 356 l 1
 88 356 l 1
 109 452 l 1
 166 452 l 1
EndSplineSet
EndChar
StartChar: u
Encoding: 117 117 87
OldEncoding: 117
Width: 377
Flags: W
HStem: -16 54<117 134> 0 21G<234 291>
DStem: 84 356 141 356 23 72 87 104 310 356 367 356 269 163 291 0
Fore
291 0 m 1
 234 0 l 1
 242 38 l 1
 223 18 207 6 193 -1 c 0
 173 -10 148 -16 117 -16 c 0
 96 -16 77 -14 63 -8 c 1
 36.7569 7.93332 22.812 31.7726 22.812 65.1646 c 0
 22.812 67.4001 22.8745 69.6784 23 72 c 1
 84 356 l 1
 141 356 l 1
 87 104 l 2
 85.4499 97.2831 84.7008 91.1001 84.7008 85.3993 c 0
 84.7008 69.0334 90.8751 56.6415 102 47 c 0
 111 42 120 38 132 38 c 0
 149 38 162 40 173 42 c 0
 203 52 224 67 240 88 c 0
 253 107 262 132 269 163 c 2
 310 356 l 1
 367 356 l 1
 291 0 l 1
EndSplineSet
EndChar
StartChar: v
Encoding: 118 118 88
OldEncoding: 118
Width: 339
Flags: W
HStem: 0 21G<93 155>
DStem: 45 356 108 356 93 0 140 68
Fore
155 0 m 1
 93 0 l 1
 45 356 l 1
 108 356 l 1
 140 68 l 1
 304 356 l 1
 368 356 l 1
 155 0 l 1
EndSplineSet
EndChar
StartChar: w
Encoding: 119 119 89
OldEncoding: 119
Width: 489
Flags: W
HStem: 0 21G<68 133 273 337>
DStem: 43 356 106 356 68 0 117 79 245 356 258 270 117 79 133 0 258 270 315 356 273 0 323 79
Fore
68 0 m 1
 43 356 l 1
 106 356 l 1
 117 79 l 1
 245 356 l 1
 315 356 l 1
 323 79 l 1
 454 356 l 1
 518 356 l 1
 337 0 l 1
 273 0 l 1
 258 270 l 1
 133 0 l 1
 68 0 l 1
EndSplineSet
EndChar
StartChar: x
Encoding: 120 120 90
OldEncoding: 120
Width: 339
Flags: W
HStem: 0 21G<-27 38 219 283>
DStem: 57 356 122 356 138 182 181 231 138 182 157 133 -27 0 38 0 157 133 200 183 219 0 283 0 293 356 358 356 181 231 200 183
Fore
157 133 m 1
 38 0 l 1
 -27 0 l 1
 138 182 l 1
 57 356 l 1
 122 356 l 1
 181 231 l 1
 293 356 l 1
 358 356 l 1
 200 183 l 1
 283 0 l 1
 219 0 l 1
 157 133 l 1
EndSplineSet
EndChar
StartChar: y
Encoding: 121 121 91
OldEncoding: 121
Width: 339
Flags: W
HStem: -148 55<13 35>
DStem: 68 356 127 356 107 -6 160 87 107 -6 378 356 75 -62 123 -82 317 356 378 356 160 87 123 -82
Fore
317 356 m 1
 378 356 l 1
 123 -82 l 2
 107 -111 86 -129 61 -139 c 0
 48 -145 31 -148 13 -148 c 0
 0 -148 -9 -146 -17 -140 c 1
 -6 -87 l 1
 2 -90 16 -93 35 -93 c 1
 51 -90 64 -80 75 -62 c 2
 107 -6 l 1
 68 356 l 1
 127 356 l 1
 160 87 l 1
 317 356 l 1
EndSplineSet
EndChar
StartChar: z
Encoding: 122 122 92
OldEncoding: 122
Width: 339
Flags: W
HStem: 0 56<71 272> 299 57<73 255>
DStem: 255 299 329 306 -7 46 71 56
Fore
340 356 m 1
 329 306 l 1
 71 56 l 1
 284 56 l 1
 272 0 l 1
 -17 0 l 1
 -7 46 l 1
 255 299 l 1
 62 299 l 1
 74 356 l 1
 340 356 l 1
EndSplineSet
EndChar
StartChar: braceleft
Encoding: 123 123 93
OldEncoding: 123
Width: 226
Flags: W
DStem: 56 55 110 67 32 -61 84 -53 132 411 182 405 108 296 156 284
Fore
24 151 m 1
 34 199 l 1
 57 203 74 214 83 228 c 0
 93 243 101 266 108 296 c 2
 132 411 l 2
 137 435 148 454 165 470 c 0
 180 485 195 494 206 494 c 2
 256 496 l 1
 247 451 l 1
 215 447 l 2
 205 446 199 443 194 436 c 0
 190 429 185 419 182 405 c 2
 156 284 l 2
 149 253 139 229 126 214 c 0
 112 198 98 185 84 175 c 1
 92 168 101 157 108 140 c 0
 112.782 130.967 115.023 119.674 115.023 106.423 c 0
 115.023 94.7372 113.28 81.5274 110 67 c 2
 84 -53 l 2
 82.5 -60.5 82 -67 82 -72.5 c 0
 82 -78 82.5 -82.5 83 -86 c 0
 85 -93 90 -96 99 -97 c 2
 129 -101 l 1
 120 -145 l 1
 70 -144 l 2
 59 -144 48 -134 39 -119 c 0
 32.9319 -108.886 29.5913 -96.9546 29.5913 -82.8978 c 0
 29.5913 -76.1061 30.3712 -68.8184 32 -61 c 2
 56 55 l 2
 60.598 75.3625 63.0387 91.8418 63.0387 105.005 c 0
 63.0387 111.881 62.3726 117.853 61 123 c 0
 56 138 45 147 24 151 c 1
EndSplineSet
EndChar
StartChar: bar
Encoding: 124 124 94
OldEncoding: 124
Width: 176
Flags: W
DStem: 136 494 176 494 -0 -146 40 -146
Fore
176 494 m 1
 40 -146 l 1
 -0 -146 l 1
 136 494 l 1
 176 494 l 1
EndSplineSet
EndChar
StartChar: braceright
Encoding: 125 125 95
OldEncoding: 125
Width: 226
Flags: W
DStem: 50 67 98 55 24 -53 74 -61 122 405 174 411 96 284 150 296
Fore
182 199 m 1
 172 151 l 1
 150 147 133 138 123 123 c 0
 114 108 105 86 98 55 c 2
 74 -61 l 2
 70 -77 65 -90 56 -103 c 0
 46 -115 37 -124 28 -132 c 0
 18 -139 10 -142 1 -144 c 2
 -49 -145 l 1
 -40 -101 l 1
 -8 -97 l 2
 1 -96 9 -92 14 -85 c 0
 18 -78 21 -68 24 -53 c 2
 50 67 l 2
 56 97 68 122 84 139 c 0
 99 156 111 168 123 175 c 0
 122 175 121 179 116 184 c 0
 110 190 106 198 102 208 c 0
 97 218 93 228 93 241 c 0
 92.6667 245 92.4444 249.222 92.4444 253.704 c 0
 92.4444 262.667 93.3333 272.667 96 284 c 2
 122 405 l 2
 123.937 414.041 125.041 421.413 125.041 427.387 c 0
 125.041 430.664 124.708 433.52 124 436 c 0
 123 443 116 446 108 447 c 2
 78 451 l 1
 87 496 l 1
 137 494 l 2
 144 493 152 489 158 483 c 0
 165 475 170 466 174 453 c 0
 175.5 447 176.25 440.5 176.25 433.5 c 0
 176.25 426.5 175.5 419 174 411 c 2
 150 296 l 2
 145.416 276.356 143.405 259.714 143.405 246.353 c 0
 143.405 239.31 143.964 233.178 145 228 c 0
 149 214 162 203 182 199 c 1
EndSplineSet
EndChar
StartChar: asciitilde
Encoding: 126 126 96
OldEncoding: 126
Width: 395
Flags: W
HStem: 181 46<260 272> 254 43<124 135>
DStem: 148 244 168 288 210 198 246 235
Fore
78 198 m 1
 42 198 l 1
 51 233 64 259 80 273 c 0
 99 289 116 297 135 297 c 0
 148 297 159 295 168 288 c 2
 246 235 l 2
 253 231 261 227 272 227 c 0
 281 227 288 229 295 234 c 0
 304 241 311 255 317 279 c 1
 353 279 l 1
 346 250 334 226 316 208 c 0
 301 190 282 181 260 181 c 0
 246 181 227 185 210 198 c 2
 148 244 l 1
 142 251 134 254 126 254 c 0
 116 254 106 249 97 238 c 0
 88 228 82 215 78 198 c 1
EndSplineSet
EndChar
StartChar: uni0E10.descless
Encoding: 128 63232 98
OldEncoding: 63232
Width: 364
Flags: W
HStem: 0 21G<208 264> 97 34<118 133> 201 35<137 152> 319 41<336 349> 353 38<202 220>
DStem: 257 186 305 189 237 94 264 0
Fore
150 236 m 0
 165 236 178 232 189 224 c 0
 199 216 208 205 211 191 c 2
 237 94 l 1
 257 186 l 2
 259.571 198.429 260.857 209.02 260.857 217.854 c 0
 260.857 229.633 258.571 238.286 254 244 c 0
 247 254 232 263 209 271 c 0
 184 279 158 285 131 289 c 0
 103 295 84 298 69 299 c 1
 90 325 113 347 139 365 c 0
 164 382 191 391 218 391 c 0
 233 391 246 390 256 388 c 0
 266 384 277 381 291 375 c 0
 305 370 315 366 323 364 c 0
 330 362 339 360 347 360 c 0
 360 360 375 364 388 370 c 1
 389 330 l 1
 368 322 350 319 336 319 c 0
 325 319 316 320 309 322 c 0
 302 324 291 329 275 334 c 0
 262 340 250 345 240 348 c 0
 231 351 221 353 210 353 c 0
 199 353 188 349 174 344 c 0
 160 337 153 331 151 328 c 1
 156 327 164 325 173 322 c 0
 182 319 195 315 211 311 c 0
 227 307 239 304 247 302 c 0
 281 293 302 280 308 264 c 0
 310.435 257.1 311.553 249.047 311.553 239.639 c 0
 311.553 225.87 309.159 209.2 305 189 c 2
 264 0 l 1
 208 0 l 1
 208.36 4.32471 208.526 8.61694 208.526 12.9001 c 0
 208.526 32.3864 205.099 51.6851 201 73 c 0
 195 99 191 119 186 131 c 1
 181 121 171 113 158 106 c 0
 147 101 134 97 120 97 c 0
 99 97 84 104 74 118 c 0
 67.6262 127.915 64.2616 138.833 64.2616 150.754 c 0
 64.2616 155.666 64.8328 160.748 66 166 c 0
 70 185 79 202 94 216 c 0
 110 229 129 236 150 236 c 0
127 131 m 0
 139 131 149 134 155 141 c 0
 163 149 168 157 170 166 c 0
 170.633 169.166 170.966 172.132 170.966 174.929 c 0
 170.966 180.966 169.417 186.216 166 191 c 0
 163 198 154 201 142 201 c 0
 132 201 123 198 115 191 c 0
 108 184 102 176 100 166 c 0
 99.4833 163.675 99.2336 161.417 99.2336 159.225 c 0
 99.2336 152.933 101.292 147.192 105 142 c 0
 109 134 117 131 127 131 c 0
EndSplineSet
EndChar
StartChar: uni0E34.left
Encoding: 129 63233 99
OldEncoding: 63233
Width: 0
Flags: W
HStem: 488 34<-362 -309> 575 35<-282 -261>
Fore
-261 610 m 1
 -211 603 -181 584 -166 553 c 0
 -152 521 -145 487 -145 450 c 1
 -156 454 -174 461 -199 469 c 0
 -225 477 -252 481 -281 485 c 0
 -301 487 -321 488 -342 488 c 0
 -367 488 -390 487 -409 486 c 0
 -430 484 -445 481 -454 480 c 1
 -444 503 -429 524 -411 545 c 0
 -391 565 -368 581 -342 593 c 0
 -315 605 -289 610 -261 610 c 1
-277 575 m 1
 -301 575 -322 570 -344 557 c 0
 -365 546 -379 533 -386 519 c 1
 -381 520 -373 520 -362 521 c 0
 -352 522 -338 522 -318 522 c 0
 -301 522 -289 522 -280 521 c 0
 -252 519 -229 514 -214 507 c 0
 -198 502 -189 496 -184 493 c 1
 -196 540 -226 567 -277 575 c 1
EndSplineSet
EndChar
StartChar: uni0E35.left
Encoding: 130 63234 100
OldEncoding: 63234
Width: 0
Flags: W
HStem: 488 34<-345 -290> 575 35<-265 -243>
DStem: -140 655 -97 655 -159 566 -131 498
Fore
-159 566 m 1
 -140 655 l 1
 -97 655 l 1
 -131 498 l 1
 -131 498 l 1
 -130 498 -129 493 -128 481 c 0
 -128 471.4 -126.72 462.44 -126.72 455.144 c 0
 -126.72 453.32 -126.8 451.6 -127 450 c 1
 -139 454 -156 461 -182 469 c 0
 -207 477 -234 481 -263 485 c 0
 -283 487 -303 488 -325 488 c 0
 -350 488 -372 487 -391 486 c 0
 -413 484 -427 481 -435 480 c 1
 -426 504 -412 525 -392 546 c 0
 -373 565 -350 581 -323 593 c 0
 -299 605 -272 610 -243 610 c 1
 -224 608 -209 603 -198 597 c 0
 -185 591 -176 584 -169 579 c 0
 -164 573 -161 568 -159 566 c 1
-259 575 m 1
 -276 575 -292 572 -307 566 c 0
 -321 560 -334 554 -346 545 c 0
 -356 537 -363 528 -369 519 c 1
 -363 520 -355 520 -345 521 c 0
 -334 522 -319 522 -300 522 c 0
 -283 522 -270 522 -262 521 c 0
 -234 519 -211 514 -196 507 c 0
 -181 502 -171 496 -167 493 c 1
 -171 512 -179 530 -191 546 c 0
 -205 562 -228 572 -259 575 c 1
EndSplineSet
EndChar
StartChar: uni0E36.left
Encoding: 131 63235 101
OldEncoding: 63235
Width: 0
Flags: W
HStem: 488 34<-367 -314> 575 37<-300 -283> 632 30<-172 -159>
Fore
-112 601 m 0
 -116 586 -121 574 -132 563 c 0
 -142 551 -153 545 -167 542 c 1
 -164 534 -160 522 -155 505 c 0
 -151.603 493.449 -149.59 480.975 -149.59 468.206 c 0
 -149.59 462.181 -150.038 456.09 -151 450 c 1
 -162 454 -179 461 -204 469 c 0
 -231 477 -258 481 -286 485 c 0
 -307 487 -326 488 -347 488 c 0
 -372 488 -396 487 -415 486 c 0
 -435 484 -451 481 -459 480 c 1
 -443 519 -418 550 -385 575 c 0
 -351 600 -318 612 -285 612 c 0
 -273 612 -263 611 -255 609 c 0
 -246 607 -240 605 -235 602 c 1
 -232 617 -224 631 -210 643 c 0
 -196 655 -179 662 -161 662 c 0
 -142 662 -128 657 -120 644 c 0
 -114.044 635.81 -110.859 625.402 -110.859 613.602 c 0
 -110.859 609.554 -111.234 605.342 -112 601 c 0
-167 632 m 0
 -177 632 -184 629 -191 624 c 0
 -197 618 -200 611 -202 603 c 0
 -202.333 601 -202.556 598.889 -202.556 596.741 c 0
 -202.556 592.444 -201.667 588 -199 584 c 0
 -194 579 -188 575 -179 575 c 0
 -171 575 -163 579 -157 584 c 0
 -150 590 -146 596 -145 603 c 0
 -144.367 605.533 -144.034 607.966 -144.034 610.298 c 0
 -144.034 615.332 -145.583 619.9 -149 624 c 0
 -151 629 -158 632 -167 632 c 0
-283 575 m 1
 -300 575 -316 572 -330 566 c 0
 -345 560 -357 554 -368 545 c 0
 -379 537 -387 528 -392 519 c 1
 -387 520 -379 520 -367 521 c 0
 -357 522 -343 522 -323 522 c 0
 -306 522 -294 522 -285 521 c 0
 -258 519 -235 514 -219 507 c 0
 -203 502 -195 496 -189 493 c 1
 -193 512 -203 529 -214 545 c 0
 -228 560 -251 571 -283 575 c 1
EndSplineSet
EndChar
StartChar: uni0E37.left
Encoding: 132 63236 102
OldEncoding: 63236
Width: 0
Flags: W
HStem: 488 34<-345 -290> 575 37<-265 -258>
DStem: -224 655 -181 655 -234 609 -194 596 -140 655 -97 655 -159 565 -131 497
Fore
-131 497 m 1
 -130 497 -128 481 -127 450 c 1
 -139 454 -156 461 -182 469 c 0
 -207 477 -234 481 -263 485 c 0
 -283 487 -303 488 -325 488 c 0
 -350 488 -372 487 -391 486 c 0
 -413 484 -427 481 -435 480 c 1
 -426 505 -411 528 -392 547 c 0
 -373 567 -351 583 -327 594 c 0
 -302 607 -280 612 -258 612 c 0
 -250 612 -242 611 -234 609 c 1
 -224 655 l 1
 -181 655 l 1
 -194 596 l 1
 -177 589 -166 579 -159 565 c 1
 -140 655 l 1
 -97 655 l 1
 -131 497 l 1
-259 575 m 1
 -283 575 -304 570 -327 557 c 0
 -347 546 -361 533 -369 519 c 1
 -363 520 -355 520 -345 521 c 0
 -334 522 -319 522 -300 522 c 0
 -283 522 -270 522 -262 521 c 0
 -234 519 -211 514 -196 507 c 0
 -181 502 -171 496 -167 493 c 1
 -178 540 -208 567 -259 575 c 1
EndSplineSet
EndChar
StartChar: ellipsis
Encoding: 133 8230 103
OldEncoding: 8230
Width: 592
VWidth: 2048
Flags: W
HStem: -16 21G<52.2722 83>
Fore
516 31 m 1
 510 2 490 -12 457 -16 c 1
 430.354 -16 416.331 -3.37777 416.331 21.166 c 0
 416.331 24.2556 416.553 27.534 417 31 c 1
 424 64 443 81 477 81 c 0
 490 81 502 77 509 67 c 1
 514.026 59.4605 516.246 49.8157 516.246 38.0655 c 0
 516.246 35.7893 516.162 33.4342 516 31 c 1
321 31 m 1
 315 2 295 -14 261 -16 c 1
 234.572 -16 220.602 -2.71246 220.602 23.1058 c 0
 220.602 25.6187 220.734 28.2504 221 31 c 1
 228 64 248 81 281 81 c 0
 295 81 306 77 313 67 c 1
 318.571 58.2459 321.608 49.4917 321.608 39.2254 c 0
 321.608 36.5917 321.408 33.8584 321 31 c 1
125 31 m 0
 118 0 100 -16 66 -16 c 0
 38.5444 -16 24.2406 -4.9247 24.2406 16.65 c 0
 24.2406 21.0067 24.8239 25.7917 26 31 c 0
 33 64 53 81 86 81 c 0
 113.825 81 126.916 69.614 126.916 47.39 c 0
 126.916 42.4584 126.271 36.993 125 31 c 0
EndSplineSet
EndChar
StartChar: uni0E48.low_left
Encoding: 134 63237 104
OldEncoding: 63237
Width: 0
Flags: W
DStem: -171 625 -128 625 -207 454 -164 454
Fore
-207 454 m 1
 -171 625 l 1
 -128 625 l 1
 -164 454 l 1
 -207 454 l 1
EndSplineSet
EndChar
StartChar: uni0E49.low_left
Encoding: 135 63238 105
OldEncoding: 63238
Width: 0
Flags: W
HStem: 437 36<-251 -228> 495 30<-279 -265> 586 33<-256 -245>
Fore
-192 554 m 0
 -197 531 -204 513 -214 499 c 0
 -225 487 -232 478 -238 473 c 1
 -223 473 -208 476 -192 479 c 0
 -178 483 -163 489 -147 502 c 0
 -116 524 -96 562 -85 615 c 1
 -38 615 l 1
 -54 536 -94 483 -154 457 c 0
 -185 444 -217 437 -251 437 c 0
 -264 437 -278 438 -289 441 c 0
 -302 443 -311 444 -315 445 c 1
 -310 447 -302 453 -291 461 c 0
 -282 469 -272 480 -264 497 c 0
 -265 496 -267 496 -269 496 c 0
 -273 495 -276 495 -279 495 c 0
 -287 495 -293 496 -296 497 c 0
 -317.441 503.353 -328.162 517.273 -328.162 538.26 c 0
 -328.162 543.702 -327.441 549.618 -326 556 c 0
 -322 574 -312 589 -297 601 c 0
 -283 614 -266 619 -247 619 c 0
 -225 619 -210 612 -201 600 c 0
 -193.77 589.878 -190.722 579.233 -190.722 567.687 c 0
 -190.722 563.264 -191.169 558.709 -192 554 c 0
-254 586 m 0
 -264 586 -270 583 -278 577 c 0
 -285 572 -289 564 -291 556 c 0
 -291.633 553.467 -291.966 551.034 -291.966 548.734 c 0
 -291.966 543.768 -290.417 539.417 -287 536 c 0
 -284 529 -277 525 -267 525 c 0
 -261 525 -254 527 -249 530 c 0
 -243 533 -239 537 -235 541 c 0
 -232 546 -230 550 -229 556 c 0
 -228.225 559.487 -227.75 562.824 -227.75 565.952 c 0
 -227.75 570.899 -228.937 575.325 -232 579 c 0
 -237 584 -243 586 -254 586 c 0
EndSplineSet
EndChar
StartChar: uni0E4A.low_left
Encoding: 136 63239 106
OldEncoding: 63239
Width: 0
Flags: W
HStem: 452 20<-293 -284> 522 20<-279 -268> 571 30<-270 -254 -191 -177>
Fore
-292 452 m 0
 -310 453 -322 461 -331 477 c 0
 -335.616 487.55 -338.927 498.97 -338.927 511.547 c 0
 -338.927 518.043 -338.044 524.847 -336 532 c 0
 -332 551 -320 568 -307 582 c 0
 -294 594 -279 601 -260 601 c 0
 -252 601 -245 600 -239 598 c 0
 -235 594 -230 591 -225 588 c 0
 -223 584 -221 583 -221 582 c 1
 -221 582 l 1
 -219 585 -213 590 -205 594 c 0
 -197 599 -187 601 -177 601 c 0
 -159 601 -147 596 -142 583 c 0
 -139.019 575.844 -137.104 566.911 -137.104 556.2 c 0
 -137.104 548.948 -137.981 540.882 -140 532 c 0
 -144 513 -152 497 -165 484 c 1
 -160 486 -153 490 -143 496 c 0
 -133 502 -125 508 -117 516 c 0
 -105 531 -98 546 -95 560 c 0
 -94.191 565.663 -92.7275 573.29 -92.7275 583.409 c 0
 -92.7275 585.798 -92.809 588.326 -93 591 c 1
 -57 603 l 1
 -56.7321 600.32 -56.6077 597.641 -56.6077 594.962 c 0
 -56.6077 587.641 -57.5359 580.321 -59 573 c 0
 -65 544 -79 519 -98 497 c 0
 -123 469 -165 454 -221 454 c 1
 -215 460 -210 466 -203 472 c 0
 -197 478 -191 486 -184 495 c 0
 -179 504 -175 514 -173 525 c 0
 -170.838 534.37 -169.195 542.701 -169.195 549.993 c 0
 -169.195 552.818 -169.442 555.487 -170 558 c 0
 -172 566 -179 571 -191 571 c 0
 -199 571 -205 568 -211 563 c 0
 -219 557 -224 553 -226 549 c 1
 -226 549 -227 551 -229 555 c 0
 -232 558 -237 562 -242 565 c 0
 -246 568 -254 571 -262 571 c 0
 -271 571 -279 567 -286 562 c 0
 -292 555 -297 546 -299 536 c 1
 -297 537 -294 539 -287 540 c 0
 -283 541 -278 542 -273 542 c 0
 -259 542 -249 538 -243 529 c 0
 -238.416 523.762 -236.405 517.237 -236.405 509.145 c 0
 -236.405 504.88 -236.964 500.178 -238 495 c 0
 -240 485 -246 475 -257 466 c 0
 -268 457 -279 452 -292 452 c 0
-277 522 m 0
 -285 522 -292 520 -297 515 c 0
 -302 510 -306 504 -307 497 c 0
 -307.558 495.604 -307.805 494.13 -307.805 492.599 c 0
 -307.805 488.649 -306.162 484.325 -304 480 c 0
 -300 475 -296 472 -288 472 c 0
 -280 472 -273 475 -268 480 c 0
 -262 485 -259 490 -257 497 c 0
 -256.764 498.652 -256.639 500.249 -256.639 501.79 c 0
 -256.639 506.777 -257.944 511.18 -261 515 c 0
 -263 520 -269 522 -277 522 c 0
EndSplineSet
EndChar
StartChar: uni0E4B.low_left
Encoding: 137 63240 107
OldEncoding: 63240
Width: 0
Flags: W
HStem: 530 37<-296 -228 -178 -110>
DStem: -228 530 -186 530 -244 454 -202 454 -204 643 -162 643 -220 567 -178 567
Fore
-228 530 m 1
 -303 530 l 1
 -295 567 l 1
 -220 567 l 1
 -204 643 l 1
 -162 643 l 1
 -178 567 l 1
 -102 567 l 1
 -110 530 l 1
 -186 530 l 1
 -202 454 l 1
 -244 454 l 1
 -228 530 l 1
EndSplineSet
EndChar
StartChar: uni0E4C.low_left
Encoding: 138 63241 108
OldEncoding: 63241
Width: 0
Flags: W
HStem: 452 36<-223 -212> 545 30<-205 -195>
Fore
-250 547 m 0
 -248 551 -243 557 -233 564 c 0
 -224 571 -212 575 -197 575 c 0
 -195.636 575.072 -194.298 575.107 -192.986 575.107 c 0
 -176.026 575.107 -163.497 569.138 -157 558 c 0
 -150.626 549.502 -147.262 540 -147.262 529.495 c 0
 -147.262 525.167 -147.833 520.669 -149 516 c 0
 -152 499 -161 485 -174 472 c 0
 -188 460 -204 452 -223 452 c 0
 -224.364 451.949 -225.707 451.924 -227.03 451.924 c 0
 -251.899 451.924 -269.556 460.758 -280 475 c 0
 -288.614 485.049 -293.105 497.674 -293.105 512.876 c 0
 -293.105 518.852 -292.411 525.227 -291 532 c 0
 -282 575 -259 605 -221 619 c 1
 -204 627 -179 633 -147 635 c 0
 -115 637 -91 640 -78 644 c 0
 -64 649 -57 661 -53 680 c 1
 -12 680 l 1
 -16 661 -25 646 -37 635 c 0
 -50 623 -65 615 -79 610 c 0
 -95 605 -118 600 -148 599 c 0
 -178 597 -201 593 -214 588 c 0
 -230 582 -242 568 -250 547 c 0
-203 545 m 0
 -212 545 -220 542 -226 537 c 0
 -233 531 -237 524 -239 516 c 0
 -239.236 514.584 -239.361 513.111 -239.361 511.61 c 0
 -239.361 506.751 -238.056 501.584 -235 497 c 0
 -231 492 -225 488 -216 488 c 0
 -208 488 -200 492 -194 497 c 0
 -186 503 -183 510 -182 516 c 0
 -181.101 519.596 -180.606 522.99 -180.606 526.182 c 0
 -180.606 530.091 -181.348 533.697 -183 537 c 0
 -188 542 -194 545 -203 545 c 0
EndSplineSet
EndChar
StartChar: uni0E48.low
Encoding: 139 63242 109
OldEncoding: 63242
Width: 0
Flags: W
DStem: -86 625 -43 625 -122 454 -79 454
Fore
-122 454 m 1
 -86 625 l 1
 -43 625 l 1
 -79 454 l 1
 -122 454 l 1
EndSplineSet
EndChar
StartChar: uni0E49.low
Encoding: 140 63243 110
OldEncoding: 63243
Width: 0
Flags: W
HStem: 437 36<-216 -194> 495 30<-244 -228> 586 33<-227 -210>
Fore
-157 554 m 0
 -162 531 -169 513 -179 499 c 0
 -190 487 -197 478 -203 473 c 1
 -187 473 -171 476 -157 479 c 0
 -143 483 -128 489 -112 502 c 0
 -81 524 -61 562 -50 615 c 1
 -3 615 l 1
 -19 536 -59 483 -119 457 c 0
 -150 444 -182 437 -216 437 c 0
 -228 437 -242 438 -253 441 c 0
 -265 443 -275 444 -279 445 c 1
 -274 447 -266 453 -255 461 c 0
 -246 469 -236 480 -228 497 c 0
 -230 496 -231 496 -234 496 c 0
 -238 495 -241 495 -244 495 c 0
 -251 495 -257 496 -261 497 c 0
 -281.86 503.418 -293.064 517.561 -293.064 538.911 c 0
 -293.064 544.172 -292.384 549.871 -291 556 c 0
 -287 574 -279 589 -263 601 c 0
 -249 614 -231 619 -212 619 c 0
 -190 619 -175 612 -166 600 c 0
 -158.77 589.878 -155.722 579.233 -155.722 567.687 c 0
 -155.722 563.264 -156.169 558.709 -157 554 c 0
-219 586 m 0
 -229 586 -237 583 -244 577 c 0
 -251 572 -254 564 -256 556 c 0
 -256.633 553.467 -256.966 551.034 -256.966 548.734 c 0
 -256.966 543.768 -255.417 539.417 -252 536 c 0
 -249 529 -242 525 -232 525 c 0
 -221 525 -214 529 -206 536 c 0
 -199 541 -196 548 -194 556 c 0
 -193.367 558.533 -193.034 561.066 -193.034 563.504 c 0
 -193.034 568.765 -194.583 573.583 -198 577 c 0
 -202 583 -208 586 -219 586 c 0
EndSplineSet
EndChar
StartChar: uni0E4A.low
Encoding: 141 63244 111
OldEncoding: 63244
Width: 0
Flags: W
HStem: 452 20<-248 -237> 522 20<-234 -226> 571 30<-224 -209 -146 -132>
Fore
-247 452 m 0
 -265 453 -277 461 -286 477 c 0
 -291.1 486.562 -294.168 497.749 -294.168 510.044 c 0
 -294.168 517.036 -293.175 524.387 -291 532 c 0
 -287 551 -275 568 -261 582 c 0
 -249 594 -234 601 -215 601 c 0
 -207 601 -200 600 -194 598 c 0
 -189 594 -185 591 -180 588 c 0
 -178 584 -176 583 -176 582 c 1
 -176 582 l 1
 -173 585 -168 590 -160 594 c 0
 -152 599 -142 601 -132 601 c 0
 -114 601 -101 596 -96 583 c 0
 -93.6808 576.042 -92.034 567.404 -92.034 557.085 c 0
 -92.034 549.606 -92.899 541.245 -95 532 c 0
 -99 515 -107 498 -119 484 c 1
 -114 486 -106 490 -96 496 c 0
 -86 502 -79 508 -72 516 c 0
 -61 531 -54 547 -51 562 c 0
 -49.367 570.165 -47.734 578.33 -47.734 585.951 c 0
 -47.734 587.663 -47.8165 589.348 -48 591 c 1
 -12 603 l 1
 -11.7321 600.32 -11.6077 597.641 -11.6077 594.962 c 0
 -11.6077 587.641 -12.5359 580.321 -14 573 c 0
 -20 544 -34 519 -52 497 c 0
 -78 469 -120 454 -175 454 c 1
 -170 460 -164 466 -158 472 c 0
 -152 478 -146 486 -139 495 c 0
 -134 504 -130 514 -128 525 c 0
 -125.838 534.37 -124.195 542.701 -124.195 549.993 c 0
 -124.195 552.818 -124.442 555.487 -125 558 c 0
 -126 566 -133 571 -146 571 c 0
 -154 571 -161 568 -167 563 c 0
 -175 557 -179 553 -180 549 c 1
 -180 549 -181 551 -184 555 c 0
 -187 558 -192 562 -197 565 c 0
 -201 568 -208 571 -217 571 c 0
 -226 571 -234 567 -240 562 c 0
 -247 555 -251 546 -253 536 c 1
 -252 537 -249 539 -242 540 c 0
 -238 541 -233 542 -228 542 c 0
 -214 542 -204 538 -198 529 c 0
 -193.1 523.4 -190.65 516.33 -190.65 507.447 c 0
 -190.65 503.64 -191.1 499.5 -192 495 c 0
 -194 485 -201 475 -212 466 c 0
 -223 457 -234 452 -247 452 c 0
-232 522 m 0
 -239 522 -247 520 -253 515 c 0
 -257 510 -260 504 -261 497 c 0
 -261.708 495.229 -262.041 493.332 -262.041 491.354 c 0
 -262.041 487.749 -260.937 483.875 -259 480 c 0
 -256 475 -250 472 -243 472 c 0
 -235 472 -228 475 -222 480 c 0
 -217 485 -214 490 -212 497 c 0
 -211.75 498.75 -211.625 500.438 -211.625 502.062 c 0
 -211.625 506.938 -212.75 511.25 -215 515 c 0
 -218 520 -224 522 -232 522 c 0
EndSplineSet
EndChar
StartChar: uni0E4B.low
Encoding: 142 63245 112
OldEncoding: 63245
Width: 0
Flags: W
HStem: 530 37<-235 -167 -116 -49>
DStem: -167 530 -124 530 -183 454 -140 454 -143 643 -100 643 -159 567 -116 567
Fore
-167 530 m 1
 -242 530 l 1
 -234 567 l 1
 -159 567 l 1
 -143 643 l 1
 -100 643 l 1
 -116 567 l 1
 -41 567 l 1
 -49 530 l 1
 -124 530 l 1
 -140 454 l 1
 -183 454 l 1
 -167 530 l 1
EndSplineSet
EndChar
StartChar: uni0E4C.low
Encoding: 143 63246 113
OldEncoding: 63246
Width: 0
Flags: W
HStem: 452 36<-198 -187> 545 30<-180 -170>
Fore
-225 547 m 1
 -222 551 -217 557 -208 564 c 0
 -199 571 -187 575 -172 575 c 0
 -170.636 575.072 -169.292 575.107 -167.971 575.107 c 0
 -150.887 575.107 -137.497 569.138 -131 558 c 0
 -125.388 550.283 -122.236 541.089 -122.236 530.419 c 0
 -122.236 525.88 -122.806 521.073 -124 516 c 0
 -127 499 -136 485 -149 472 c 0
 -163 460 -179 452 -198 452 c 0
 -199.514 451.944 -201.003 451.916 -202.467 451.916 c 0
 -227.109 451.916 -244.673 459.785 -256 473 c 0
 -264.321 483.401 -268.314 496.205 -268.314 511.08 c 0
 -268.314 517.658 -267.533 524.641 -266 532 c 0
 -258 574 -234 603 -196 619 c 0
 -177 627 -152 633 -120 634 c 0
 -89 635 -67 638 -54 643 c 0
 -41 647 -31 660 -27 680 c 1
 13 680 l 1
 9 661 0 646 -12 635 c 0
 -25 623 -40 615 -54 610 c 0
 -70 605 -94 600 -123 599 c 0
 -152 597 -175 593 -188 588 c 0
 -204 582 -216 568 -225 547 c 1
-178 545 m 0
 -187 545 -195 542 -200 537 c 0
 -207 531 -211 524 -213 516 c 0
 -213.309 513.528 -213.523 511.247 -213.523 509.098 c 0
 -213.523 504.292 -212.455 500.146 -209 496 c 0
 -205 490 -199 488 -191 488 c 0
 -183 488 -175 492 -169 497 c 0
 -161 503 -158 510 -157 516 c 0
 -156.172 519.314 -155.686 522.456 -155.686 525.426 c 0
 -155.686 529.627 -156.657 533.485 -159 537 c 0
 -163 542 -169 545 -178 545 c 0
EndSplineSet
EndChar
StartChar: uni0E0D.descless
Encoding: 144 63247 114
OldEncoding: 63247
Width: 536
Flags: W
HStem: -27 20G<82 103> 0 41<198 370> 97 35<111 123> 356 35<226 242>
DStem: 65 200 113 202 36 63 97 128 297 282 344 282 246 41 293 41 472 384 519 384 406 73 453 73
Fore
36 63 m 2
 65 200 l 2
 74 244 96 271 130 282 c 1
 125 287 116 294 102 302 c 0
 89 310 71 315 51 321 c 1
 63 333 84 348 114 365 c 0
 143 382 181 391 226 391 c 0
 306.537 391 347.434 364.574 347.434 311.092 c 0
 347.434 302.152 346.292 292.455 344 282 c 2
 293 41 l 1
 364 41 l 2
 378 41 388 43 393 47 c 1
 398 51 403 60 406 73 c 2
 472 384 l 1
 519 384 l 1
 453 73 l 2
 448 52 443 36 436 26 c 0
 430 16 420 9 407 6 c 0
 396 2 378 0 355 0 c 2
 190 0 l 1
 199 41 l 1
 246 41 l 1
 297 282 l 2
 298.389 288.667 299.083 294.948 299.083 300.821 c 0
 299.083 316.093 294.389 328.611 285 338 c 0
 272 350 252 356 226 356 c 0
 193 356 157 347 121 328 c 1
 127 325 138 320 154 312 c 0
 169 304 181 294 193 280 c 1
 187 280 180 279 171 276 c 0
 161 272 150 266 137 254 c 0
 126 242 118 225 113 202 c 2
 97 128 l 1
 101 131 109 132 121 132 c 0
 143 132 158 125 167 112 c 0
 172.613 102.178 175.764 91.3719 175.764 79.236 c 0
 175.764 74.0734 175.194 68.6703 174 63 c 0
 170 44 160 28 146 15 c 0
 131 0 114 -7 92 -7 c 0
 72 -7 56 0 46 12 c 0
 38.1562 21.27 33.8717 32.5739 33.8717 45.9116 c 0
 33.8717 51.2785 34.5654 56.9746 36 63 c 2
98 28 m 0
 110 28 120 32 126 38 c 0
 134 45 138 53 141 63 c 0
 141.236 65.1246 141.361 67.1935 141.361 69.2066 c 0
 141.361 75.7214 140.056 81.6525 137 87 c 0
 132 94 124 97 113 97 c 0
 103 97 93 94 86 87 c 0
 78 80 72 72 71 63 c 0
 70.1213 60.0711 69.7574 57.3137 69.7574 54.7028 c 0
 69.7574 48.3995 71.8787 42.9497 74 38 c 0
 80 32 88 28 98 28 c 0
EndSplineSet
EndChar
StartChar: quoteleft
Encoding: 145 8216 115
OldEncoding: 8216
Width: 136
VWidth: 2048
Flags: W
Fore
-13 462 m 0
 -7 497 9 525 34 544 c 0
 59 563 84 574 109 579 c 1
 119.834 579 124.147 576.555 124.147 573.136 c 0
 124.147 572.768 124.097 572.389 124 572 c 0
 124 571 123 568 120 566 c 1
 110 563 95 555 75 544 c 0
 56 533 44 520 39 504 c 1
 49 506 l 1
 65 510 l 1
 93.0313 506.602 107.353 493.103 107.353 470.115 c 0
 107.353 466.04 106.903 461.668 106 457 c 0
 103 442 95 428 83 418 c 0
 72 407 58 401 42 401 c 0
 4.81875 401 -14.4184 415.953 -14.4184 446.507 c 0
 -14.4184 451.288 -13.9472 456.452 -13 462 c 0
EndSplineSet
EndChar
StartChar: quoteright
Encoding: 146 8217 116
OldEncoding: 8217
Width: 136
VWidth: 2048
Flags: W
Fore
134 507 m 4
 126 471 111 445 86 426 c 4
 62 408 36 397 10 392 c 5
 -0.2061 392 -6.10788 393.722 -6.10788 397.964 c 0
 -6.10788 398.294 -6.07217 398.639 -6 399 c 4
 -6 400 -5 402 0 405 c 5
 10 408 24 416 44 427 c 4
 62 436 75 450 82 467 c 5
 70 464 l 5
 56 461 l 5
 28.1891 465.214 14.5829 477.95 14.5829 501.006 c 0
 14.5829 505.307 15.0565 509.968 16 515 c 4
 20 530 27 542 40 553 c 4
 50 564 64 568 81 568 c 4
 117.103 568 135.473 553.222 135.473 523.029 c 0
 135.473 518.098 134.983 512.756 134 507 c 4
EndSplineSet
EndChar
StartChar: quotedblleft
Encoding: 147 8220 117
OldEncoding: 8220
Width: 255
VWidth: 2048
Flags: W
Fore
127 463 m 0
 134 498 150 527 175 546 c 0
 199 565 224 576 250 581 c 1
 260.301 581 267.095 579.246 267.095 574.917 c 0
 267.095 574.623 267.064 574.318 267 574 c 1
 261 568 l 1
 260 567 l 2
 252 565 237 557 216 545 c 0
 199 536 186 522 179 505 c 1
 190 508 l 1
 204 511 l 1
 232.9 507.6 247.35 494.807 247.35 471.394 c 0
 247.35 467.263 246.9 462.8 246 458 c 0
 243 443 236 431 223 420 c 0
 214 409 198 403 182 403 c 0
 181.021 402.977 180.056 402.966 179.104 402.966 c 0
 142.941 402.966 126.154 419.366 126.154 450.227 c 0
 126.154 454.242 126.438 458.501 127 463 c 0
-13 462 m 4
 -7 497 9 525 34 544 c 4
 58 563 84 574 109 579 c 5
 119.834 579 124.147 576.555 124.147 573.136 c 0
 124.147 572.768 124.097 572.389 124 572 c 4
 124 571 122 568 120 566 c 5
 109 563 95 555 75 544 c 4
 56 533 44 520 39 504 c 5
 49 506 l 5
 65 510 l 5
 93.4515 506.551 107.036 492.696 107.036 469.075 c 0
 107.036 465.299 106.689 461.273 106 457 c 4
 103 442 95 428 82 418 c 4
 72 407 58 401 42 401 c 4
 4.81875 401 -14.4184 415.953 -14.4184 446.507 c 0
 -14.4184 451.288 -13.9472 456.452 -13 462 c 4
EndSplineSet
EndChar
StartChar: quotedblright
Encoding: 148 8221 118
OldEncoding: 8221
Width: 255
VWidth: 2048
Flags: W
Fore
134 507 m 4
 126 472 111 445 86 426 c 4
 62 408 36 397 10 392 c 5
 -1.00685 392 -6.12443 393.683 -6.12443 397.82 c 0
 -6.12443 398.193 -6.08276 398.586 -6 399 c 4
 -6 400 -5 402 -1 405 c 5
 9 408 23 416 45 427 c 4
 63 436 75 450 82 467 c 5
 72 464 l 5
 56 461 l 5
 28.1891 465.214 14.5829 477.95 14.5829 501.006 c 0
 14.5829 505.307 15.0565 509.968 16 515 c 4
 20 530 27 542 40 553 c 4
 50 564 64 568 80 568 c 4
 116.98 568 135.47 553.208 135.47 522.988 c 0
 135.47 518.068 134.98 512.74 134 507 c 4
274 507 m 4
 266 471 252 445 226 426 c 4
 202 408 176 397 151 392 c 5
 140.166 392 135.853 393.63 135.853 397.627 c 0
 135.853 398.057 135.903 398.514 136 399 c 4
 136 400 137 402 140 405 c 5
 150 408 165 416 186 427 c 4
 203 436 215 450 222 467 c 5
 212 464 l 5
 196 461 l 5
 168.189 465.214 154.583 477.95 154.583 501.006 c 0
 154.583 505.307 155.057 509.968 156 515 c 4
 160 530 167 542 180 553 c 4
 190 564 204 568 220 568 c 4
 257.641 568 275.522 553.363 275.522 523.464 c 0
 275.522 518.413 275.012 512.926 274 507 c 4
EndSplineSet
EndChar
StartChar: bullet
Encoding: 149 8226 119
OldEncoding: 8226
Width: 203
VWidth: 2048
Flags: W
HStem: 332 21G<107.5 131>
Fore
73 115 m 0
 39 115 14 127 -0 148 c 0
 -9.8 163.4 -14.7 179.78 -14.7 198.512 c 0
 -14.7 206.54 -13.8 215 -12 224 c 0
 -8 243 -0 261 11 277 c 0
 25 294 41 307 57 318 c 0
 75 328 96 332 119 332 c 0
 143 332 162 328 176 318 c 0
 190 307 199 294 205 278 c 1
 207 269.5 208 260.75 208 251.75 c 0
 208 242.75 207 233.5 205 224 c 0
 199 194 183 168 160 147 c 0
 137 127 108 115 73 115 c 0
EndSplineSet
EndChar
StartChar: endash
Encoding: 150 8211 120
OldEncoding: 8211
Width: 601
VWidth: 2048
Flags: W
HStem: 193 32<-18 583>
Fore
-23 193 m 1
 -17 225 l 1
 589 225 l 1
 583 193 l 1
 -23 193 l 1
EndSplineSet
EndChar
StartChar: emdash
Encoding: 151 8212 121
OldEncoding: 8212
Width: 1203
VWidth: 2048
Flags: W
HStem: 193 32<-54 1185>
Fore
-59 193 m 1
 -53 225 l 1
 1191 225 l 1
 1185 193 l 1
 -59 193 l 1
EndSplineSet
EndChar
StartChar: uni0E31.left
Encoding: 152 63248 122
OldEncoding: 63248
Width: 0
Flags: W
HStem: 454 40<-183 -171> 580 32<-242 -231>
Fore
-314 538 m 1
 -309 559 -301 577 -286 591 c 0
 -271 606 -254 612 -233 612 c 0
 -211 612 -196 606 -187 593 c 0
 -180.626 584.502 -177.262 573.997 -177.262 562.196 c 0
 -177.262 557.334 -177.833 552.252 -179 547 c 0
 -183 528 -193 512 -209 499 c 1
 -206 498 -200 497 -191 496 c 0
 -182 495 -175 494 -171 494 c 0
 -137 495 -104 506 -73 525 c 0
 -40 546 -17 571 -3 601 c 1
 34 582 l 1
 23 560 6 539 -17 520 c 0
 -40 501 -65 485 -94 472 c 0
 -123 460 -153 454 -182 454 c 0
 -222 454 -253 461 -280 473 c 0
 -302.483 485.591 -314.452 503.843 -314.452 529.211 c 0
 -314.452 532.051 -314.302 534.98 -314 538 c 1
-254 514 m 0
 -244 514 -235 518 -228 524 c 0
 -221 530 -216 538 -214 547 c 0
 -213.225 550.487 -212.75 553.824 -212.75 557.01 c 0
 -212.75 562.049 -213.937 566.712 -217 571 c 0
 -222 576 -230 580 -240 580 c 0
 -250 580 -260 576 -267 571 c 0
 -273 564 -277 556 -279 547 c 0
 -279.536 544.856 -279.785 542.713 -279.785 540.588 c 0
 -279.785 534.785 -277.928 529.124 -275 524 c 0
 -271 518 -264 514 -254 514 c 0
EndSplineSet
EndChar
StartChar: uni0E4D.left
Encoding: 153 63249 123
OldEncoding: 63249
Width: 0
Flags: W
HStem: 432 31<-252 -241> 539 32<-229 -218>
Fore
-250 432 m 0
 -272 432 -286 438 -296 453 c 0
 -302.633 463.318 -306.551 474.723 -306.551 487.615 c 0
 -306.551 492.215 -306.052 497.004 -305 502 c 0
 -301 520 -291 536 -276 549 c 0
 -260 564 -242 571 -220 571 c 0
 -199 571 -184 564 -174 550 c 0
 -167.166 541.116 -164.069 530.831 -164.069 519.145 c 0
 -164.069 513.731 -164.734 508.016 -166 502 c 0
 -170 483 -180 466 -195 452 c 0
 -210 438 -229 432 -250 432 c 0
-227 539 m 0
 -239 539 -250 536 -257 528 c 0
 -266 520 -271 512 -273 502 c 0
 -273.633 498.834 -273.966 495.768 -273.966 492.802 c 0
 -273.966 486.401 -272.417 480.467 -269 475 c 0
 -264 467 -255 463 -243 463 c 0
 -231 463 -221 467 -213 475 c 0
 -204 483 -199 492 -197 502 c 0
 -196.5 504.5 -196.25 507.25 -196.25 510.125 c 0
 -196.25 513 -196.5 516 -197 519 c 0
 -200 524 -203 530 -208 533 c 0
 -212 537 -219 539 -227 539 c 0
EndSplineSet
EndChar
StartChar: uni0E47.left
Encoding: 154 63250 124
OldEncoding: 63250
Width: 0
Flags: W
HStem: 454 26<-213 -203> 508 37<-305 -296> 531 25<-197 -187> 581 31<-229 -203> 584 33<-301 -274>
Fore
-211 454 m 0
 -221 454 -229 457 -237 462 c 0
 -246 468 -254 475 -265 484 c 0
 -273 492 -281 498 -286 503 c 0
 -291 506 -297 508 -305 508 c 0
 -323 507 -335 501 -344 487 c 0
 -352 472 -358 461 -361 452 c 1
 -375 460 -384 472 -390 490 c 0
 -393.847 501.54 -395.638 513.491 -395.638 525.326 c 0
 -395.638 531.951 -395.077 538.54 -394 545 c 0
 -391 556 -388 565 -383 573 c 0
 -364 602 -332 617 -285 617 c 0
 -273 617 -263 617 -256 616 c 0
 -240 614 -224 612 -209 612 c 0
 -189 612 -172 616 -161 624 c 0
 -149 631 -142 643 -138 662 c 1
 -102 662 l 1
 -108 632 -121 611 -139 599 c 0
 -159 586 -186 581 -223 581 c 0
 -238 581 -256 582 -274 584 c 1
 -300 584 -320 582 -334 576 c 0
 -347 571 -356 562 -359 547 c 0
 -359.828 542.858 -360.314 538.373 -360.314 533.544 c 0
 -360.314 526.716 -359.343 519.201 -357 511 c 1
 -354 516 -346 523 -336 532 c 0
 -327 540 -314 545 -298 545 c 0
 -285 545 -273 541 -264 536 c 0
 -256 529 -250 523 -246 519 c 1
 -234 544 -215 556 -189 556 c 0
 -173 556 -161 551 -154 541 c 0
 -149.857 534.096 -147.622 526.715 -147.622 518.199 c 0
 -147.622 514.381 -148.071 510.334 -149 506 c 0
 -152 493 -158 480 -169 470 c 0
 -181 460 -195 454 -211 454 c 0
-205 480 m 0
 -197 480 -190 483 -185 488 c 0
 -180 493 -177 498 -175 506 c 0
 -174.292 508.834 -173.959 511.417 -173.959 513.749 c 0
 -173.959 518 -175.063 521.417 -177 524 c 0
 -180 529 -187 531 -195 531 c 0
 -203 531 -208 529 -215 524 c 1
 -220 519 -224 513 -226 506 c 0
 -226.184 504.715 -226.266 503.498 -226.266 502.33 c 0
 -226.266 497.131 -224.633 492.899 -223 488 c 0
 -219 483 -213 480 -205 480 c 0
EndSplineSet
EndChar
StartChar: uni0E48.left
Encoding: 155 63251 125
OldEncoding: 63251
Width: 0
Flags: W
DStem: -170 832 -127 832 -198 699 -155 699
Fore
-198 699 m 1
 -170 832 l 1
 -127 832 l 1
 -155 699 l 1
 -198 699 l 1
EndSplineSet
EndChar
StartChar: uni0E49.left
Encoding: 156 63252 126
OldEncoding: 63252
Width: 0
Flags: W
HStem: 666 32<-233 -210> 716 29<-259 -247> 719 26<-248 -243> 800 29<-243 -227>
Fore
-179 770 m 0
 -182 750 -191 734 -198 722 c 0
 -208 710 -216 702 -221 698 c 1
 -211 698 -202 699 -194 701 c 0
 -186 702 -177 703 -169 706 c 0
 -161 710 -151 715 -138 723 c 0
 -122 736 -111 749 -102 766 c 0
 -95 783 -89 802 -85 825 c 1
 -43 825 l 1
 -58 754 -91 707 -144 684 c 0
 -171 671 -200 666 -233 666 c 0
 -246 666 -259 667 -269 668 c 0
 -278 670 -286 671 -289 672 c 1
 -284 675 -278 679 -268 686 c 0
 -258 694 -250 704 -243 719 c 1
 -244 719 -246 719 -248 718 c 0
 -252 716 -256 716 -259 716 c 0
 -262 716 -267 718 -273 719 c 0
 -292.2 725.4 -301.8 738.2 -301.8 757.4 c 0
 -301.8 762.2 -301.2 767.4 -300 773 c 0
 -297 783 -293 793 -287 801 c 0
 -280 810 -271 817 -261 823 c 0
 -251 827 -241 829 -229 829 c 0
 -210 829 -195 824 -187 812 c 0
 -181.605 802.752 -177.992 792.315 -177.992 780.691 c 0
 -177.992 777.233 -178.312 773.669 -179 770 c 0
-235 800 m 0
 -243 800 -250 798 -258 792 c 0
 -263 786 -266 781 -268 773 c 0
 -268.366 770.072 -268.598 767.278 -268.598 764.715 c 0
 -268.598 760.278 -267.902 756.536 -266 754 c 0
 -261 748 -255 745 -247 745 c 0
 -238 745 -231 748 -224 754 c 0
 -218 759 -214 765 -213 773 c 0
 -212.333 775.333 -212 777.556 -212 779.704 c 0
 -212 784 -213.333 788 -216 792 c 0
 -220 798 -226 800 -235 800 c 0
EndSplineSet
EndChar
StartChar: uni0E4A.left
Encoding: 157 63253 127
OldEncoding: 63253
Width: 0
Flags: W
HStem: 676 20<-314 -305> 746 20<-300 -289> 794 31<-293 -275 -212 -199>
Fore
-313 676 m 0
 -331 677 -344 686 -352 702 c 0
 -357.066 712.132 -359.726 723.066 -359.726 734.802 c 0
 -359.726 741.599 -358.834 748.665 -357 756 c 0
 -353 775 -341 792 -329 805 c 0
 -316 818 -300 825 -281 825 c 0
 -273 825 -267 824 -262 822 c 0
 -256 818 -251 815 -247 811 c 0
 -245 808 -242 806 -242 806 c 1
 -240 809 -234 812 -227 818 c 0
 -219 823 -209 825 -199 825 c 0
 -171.914 825 -158.603 811.225 -158.603 783.676 c 0
 -158.603 775.626 -159.739 766.401 -162 756 c 0
 -166 739 -173 723 -185 707 c 1
 -180 710 -172 714 -163 720 c 0
 -154 725 -145 732 -139 740 c 0
 -127 754 -119 768 -116 785 c 0
 -115.191 789.854 -113.727 797.326 -113.727 807.946 c 0
 -113.727 810.453 -113.809 813.135 -114 816 c 1
 -78 827 l 1
 -77.634 824.438 -77.4019 821.608 -77.4019 818.461 c 0
 -77.4019 813.01 -78.0981 806.608 -80 799 c 0
 -86 768 -100 742 -119 721 c 0
 -144 693 -186 679 -241 679 c 1
 -237 684 -231 689 -224 696 c 0
 -219 702 -212 710 -207 719 c 0
 -200 728 -196 738 -194 749 c 0
 -192.046 758.119 -190.516 765.966 -190.516 772.54 c 0
 -190.516 776.058 -190.954 779.211 -192 782 c 0
 -193 790 -200 794 -212 794 c 0
 -220 794 -226 792 -234 786 c 0
 -240 781 -246 776 -247 773 c 1
 -249 776 -253 781 -257 786 c 0
 -261 792 -271 794 -284 794 c 0
 -293 794 -300 791 -307 785 c 0
 -314 780 -318 771 -320 759 c 1
 -319 760 -316 762 -310 764 c 0
 -305 765 -300 766 -294 766 c 0
 -279 766 -269 762 -262 754 c 0
 -258.485 749.314 -257.029 742.912 -257.029 735.598 c 0
 -257.029 730.426 -257.757 724.799 -259 719 c 0
 -261 709 -268 698 -279 689 c 0
 -290 680 -301 676 -313 676 c 0
-298 746 m 0
 -306 746 -313 744 -318 738 c 0
 -324 732 -327 727 -328 721 c 0
 -328.667 718.667 -329 716.556 -329 714.593 c 0
 -329 710.667 -327.667 707.333 -325 704 c 0
 -322 698 -317 696 -309 696 c 0
 -301 696 -293 698 -289 704 c 1
 -284 707 -280 713 -278 721 c 0
 -277.823 722.24 -277.74 723.417 -277.74 724.548 c 0
 -277.74 729.803 -279.531 734.063 -282 739 c 0
 -284 744 -290 746 -298 746 c 0
EndSplineSet
EndChar
StartChar: uni0E4B.left
Encoding: 158 63254 128
OldEncoding: 63254
Width: 0
Flags: W
HStem: 734 39<-251 -188 -137 -74>
DStem: -188 734 -145 734 -200 679 -157 679 -168 829 -125 829 -180 773 -137 773
Fore
-188 734 m 1
 -258 734 l 1
 -250 773 l 1
 -180 773 l 1
 -168 829 l 1
 -125 829 l 1
 -137 773 l 1
 -66 773 l 1
 -74 734 l 1
 -145 734 l 1
 -157 679 l 1
 -200 679 l 1
 -188 734 l 1
EndSplineSet
EndChar
StartChar: uni0E4C.left
Encoding: 159 63255 129
OldEncoding: 63255
Width: 0
Flags: W
HStem: 632 30<-200 -189>
Fore
-221 713 m 0
 -220 716 -214 722 -207 728 c 0
 -200 733 -190 736 -177 737 c 1
 -162 736 -150 731 -142 721 c 0
 -137.1 714 -134.65 706.02 -134.65 697.06 c 0
 -134.65 693.22 -135.1 689.2 -136 685 c 0
 -139 671 -146 659 -157 649 c 0
 -168 638 -183 632 -200 632 c 0
 -201.386 631.937 -202.748 631.906 -204.087 631.906 c 0
 -223.996 631.906 -238.693 638.819 -249 651 c 0
 -255.323 659.431 -259.178 669.836 -259.178 682.909 c 0
 -259.178 688.444 -258.487 694.456 -257 701 c 0
 -250 736 -229 762 -197 775 c 0
 -182 782 -161 785 -135 786 c 0
 -109 788 -89 791 -76 796 c 0
 -64 799 -56 810 -52 827 c 1
 -19 827 l 1
 -23 810 -29 798 -41 788 c 0
 -52 777 -63 771 -76 767 c 0
 -91 762 -112 758 -135 757 c 0
 -159 756 -178 753 -190 748 c 0
 -204 744 -214 732 -221 713 c 0
-183 710 m 0
 -198 710 -208 702 -211 686 c 0
 -211.667 684 -212 682.111 -212 680.296 c 0
 -212 676.667 -210.667 673.333 -208 670 c 0
 -206 664 -200 662 -193 662 c 0
 -185 662 -179 664 -173 669 c 0
 -168 675 -165 680 -163 686 c 0
 -162.75 687.75 -162.625 689.375 -162.625 690.906 c 0
 -162.625 695.5 -163.75 699.25 -166 703 c 0
 -169 707 -175 710 -183 710 c 0
EndSplineSet
EndChar
StartChar: uni0E01
Encoding: 161 3585 131
OldEncoding: 3585
Width: 410
Flags: W
HStem: 0 21G<21 69 262 309> 350 41<228 246>
DStem: 62 191 110 193 21 0 69 0 319 267 366 267 262 0 309 0
Fore
47 302 m 1
 60 316 84 336 119 358 c 0
 152 380 193 391 240 391 c 0
 268 391 292 386 315 377 c 0
 336 368 352 355 361 336 c 0
 366.949 324.103 369.713 311.143 369.713 297.123 c 0
 369.713 287.574 368.431 277.533 366 267 c 2
 309 0 l 1
 262 0 l 1
 319 267 l 2
 320.373 272.833 321.039 278.314 321.039 283.522 c 0
 321.039 293.49 318.598 302.461 314 311 c 0
 307 323 297 333 283 340 c 0
 268 347 251 350 232 350 c 0
 191 350 153 338 119 313 c 1
 126 312 136 307 150 301 c 0
 165 294 177 284 188 271 c 1
 178 269 163 262 146 251 c 0
 128 240 116 220 110 193 c 2
 69 0 l 1
 21 0 l 5
 62 191 l 2
 67 214 76 231 86 243 c 0
 97 254 110 263 124 269 c 1
 119 273 112 279 98 287 c 0
 85 295 67 301 47 302 c 1
EndSplineSet
EndChar
StartChar: uni0E02
Encoding: 162 3586 132
OldEncoding: 3586
Width: 416
Flags: W
HStem: 0 41<86 254> 226 36<93 111> 312 20G<120.5 131.5> 355 36<179 191>
DStem: 163 176 210 170 134 41 182 41 351 384 398 384 285 73 332 73
Fore
179 391 m 0
 202 391 221 386 237 377 c 0
 251 367 262 355 269 340 c 0
 272.847 330.383 274.638 320.767 274.638 310.623 c 0
 274.638 304.945 274.077 299.101 273 293 c 0
 270 278 266 267 260 259 c 0
 256 251 250 243 242 233 c 0
 233 223 227 215 221 207 c 0
 217 199 213 186 210 170 c 2
 182 41 l 1
 243 41 l 2
 257 41 269 43 273 47 c 0
 277 51 282 60 285 73 c 2
 351 384 l 1
 398 384 l 1
 332 73 l 2
 326 43 316 23 303 14 c 0
 291 5 266 0 234 0 c 2
 78 0 l 1
 87 41 l 1
 134 41 l 1
 163 176 l 2
 166 190 169 201 175 209 c 0
 178 216 185 224 193 234 c 0
 202 243 210 251 214 259 c 0
 220 267 224 277 228 289 c 0
 229.167 294.544 229.738 299.833 229.738 304.866 c 0
 229.738 317.082 226.374 327.793 220 337 c 0
 210 349 196 355 179 355 c 0
 175 355 170 354 161 353 c 1
 167 351 174 346 183 337 c 0
 187.844 331.55 190.489 323.533 190.489 312.95 c 0
 190.489 306.056 189.367 298.072 187 289 c 0
 183 269 170 253 155 243 c 0
 138 232 117 226 93 226 c 1
 61.4962 230.726 45.5001 249.098 45.5001 281.605 c 0
 45.5001 290.372 46.6635 300.167 49 311 c 1
 56 334 75 355 101 370 c 0
 128 384 154 391 179 391 c 0
126 332 m 0
 115 332 105 329 98 322 c 0
 91 315 86 307 84 297 c 0
 83.4415 294.487 83.1949 292.052 83.1949 289.694 c 0
 83.1949 283.61 84.8377 278.045 87 273 c 0
 92 266 100 262 111 262 c 0
 122 262 133 266 139 273 c 0
 147 280 152 288 154 297 c 0
 154.536 299.68 154.785 302.215 154.785 304.627 c 0
 154.785 311.215 152.928 316.876 150 322 c 0
 146 329 137 332 126 332 c 0
EndSplineSet
EndChar
StartChar: uni0E03
Encoding: 163 3587 133
OldEncoding: 3587
Width: 442
Flags: W
HStem: 0 41<112 280> 172 35<80 95> 277 33<102 112>
DStem: 204 247 252 245 160 41 208 41 377 384 424 384 311 73 358 73
Fore
302 319 m 0
 301 311 298 304 293 299 c 0
 289 295 284 290 278 285 c 0
 271 280 266 275 261 269 c 0
 256 263 254 255 252 245 c 2
 208 41 l 1
 269 41 l 2
 283 41 295 43 298 47 c 1
 303 51 308 60 311 73 c 2
 377 384 l 1
 424 384 l 1
 358 73 l 2
 352 43 342 23 329 14 c 0
 318 5 294 0 260 0 c 2
 104 0 l 1
 113 41 l 1
 160 41 l 1
 204 247 l 2
 207 261 210 271 216 279 c 0
 220 286 227 292 231 296 c 0
 236 299 243 304 252 310 c 0
 258 313 261 316 262 322 c 0
 262.215 323.292 262.338 324.676 262.338 326.133 c 0
 262.338 331.444 260.708 337.722 256 344 c 0
 249 350 243 355 236 356 c 1
 183 324 l 1
 136 356 l 1
 119 353 105 344 95 331 c 0
 82 319 76 307 74 297 c 1
 75 299 81 302 86 305 c 0
 93 308 101 310 112 310 c 0
 131 308 147 303 159 293 c 0
 166.08 284.504 170.153 273.501 170.153 259.637 c 0
 170.153 253.92 169.46 247.716 168 241 c 0
 163 219 151 202 135 190 c 0
 117 177 99 172 82 172 c 0
 59 172 41 181 30 198 c 0
 22.3068 209.54 18.7237 222.724 18.7237 238.342 c 0
 18.7237 247.086 19.8466 256.592 22 267 c 0
 26 284 31 301 40 315 c 1
 50 338 68 356 91 371 c 0
 113 384 134 391 148 391 c 1
 191 360 l 1
 242 391 l 1
 259 385 274 376 288 364 c 0
 298.075 353.925 303.345 342.65 303.345 330.173 c 0
 303.345 326.55 302.9 322.826 302 319 c 0
104 277 m 0
 94 277 84 273 77 267 c 0
 69 260 64 252 62 242 c 0
 61.3944 239.275 61.0639 236.642 61.0639 234.1 c 0
 61.0639 228.247 62.8167 222.881 67 218 c 0
 71 210 79 207 89 207 c 0
 100 207 110 210 118 217 c 0
 125 225 130 233 132 242 c 0
 132.633 245.166 132.966 248.132 132.966 250.929 c 0
 132.966 256.966 131.417 262.216 128 267 c 0
 123 273 115 277 104 277 c 0
EndSplineSet
EndChar
StartChar: uni0E04
Encoding: 164 3588 134
OldEncoding: 3588
Width: 414
Flags: W
HStem: 0 21G<55 102 266 314> 160 34<176 187> 264 35<196 210> 356 38<214 238>
DStem: 70 69 139 174 55 0 102 0 321 257 370 261 266 0 314 0
Fore
87 254 m 0
 85.8167 248.872 85.2557 243.278 85.2557 237.339 c 0
 85.2557 228.222 86.5778 218.294 89 208 c 0
 94 191 95 177 96 167 c 1
 103 203 l 2
 109 232 120 254 139 272 c 0
 158 290 181 299 208 299 c 0
 230 299 245 293 254 279 c 0
 261.242 270.441 264.15 260.149 264.15 248.408 c 0
 264.15 242.315 263.367 235.833 262 229 c 0
 258 210 249 194 234 181 c 0
 219 167 200 160 178 160 c 0
 159 160 146 165 139 174 c 1
 102 0 l 1
 55 0 l 1
 70 69 l 2
 71.8 79.2 73.24 88.68 73.24 97.44 c 0
 73.24 103.28 72.6 108.8 71 114 c 0
 69 127 63 142 55 162 c 0
 47 181 42 197 39 210 c 0
 38.1716 215.385 37.6863 221.113 37.6863 227.326 c 0
 37.6863 236.113 38.6569 245.87 41 257 c 0
 47 286 60 311 80 331 c 0
 101 353 124 368 153 379 c 0
 180 389 208 394 236 394 c 0
 280 394 315 382 341 359 c 0
 362.848 341.672 373.344 319.236 373.344 290.837 c 0
 373.344 281.54 372.22 271.605 370 261 c 2
 314 0 l 1
 266 0 l 1
 321 257 l 2
 322.546 264.987 323.362 272.575 323.362 279.732 c 0
 323.362 300.351 316.59 317.38 301 330 c 0
 282 347 257 356 225 356 c 0
 192 356 163 347 136 330 c 0
 111 313 94 287 87 254 c 0
200 264 m 0
 189 264 180 261 172 254 c 0
 166 247 160 240 158 229 c 0
 157.464 226.588 157.215 224.249 157.215 222 c 0
 157.215 215.856 159.072 210.392 162 206 c 0
 166 198 174 194 185 194 c 0
 197 194 207 198 214 206 c 0
 221 212 226 220 228 229 c 0
 228.633 232.483 228.966 235.565 228.966 238.373 c 0
 228.966 244.433 227.417 249.216 224 254 c 0
 221 261 212 264 200 264 c 0
EndSplineSet
EndChar
StartChar: uni0E05
Encoding: 165 3589 135
OldEncoding: 3589
Width: 414
Flags: W
HStem: 0 21G<55 102 266 314> 160 34<177 188> 264 35<196 210>
DStem: 70 69 139 174 55 0 102 0 309 391 297 351 234 347 227 311 321 257 370 261 266 0 314 0
Fore
41 257 m 0
 46 282 62 308 89 333 c 0
 116 358 145 377 179 391 c 1
 234 347 l 1
 309 391 l 1
 352.676 368.353 373.455 335.24 373.455 292.718 c 0
 373.455 282.666 372.294 272.089 370 261 c 2
 314 0 l 1
 266 0 l 1
 321 257 l 2
 324 273 327 288 327 299 c 0
 327 311 324 320 322 325 c 0
 319 331 315 336 310 340 c 0
 305 345 300 348 297 351 c 1
 227 311 l 1
 227 312 220 316 208 327 c 0
 195 337 183 345 174 351 c 1
 149 340 130 327 117 311 c 0
 102 294 93 276 87 254 c 0
 86.2252 248.963 85.7505 243.477 85.7505 237.656 c 0
 85.7505 228.452 86.9371 218.414 90 208 c 0
 94 191 95 177 96 167 c 1
 104 203 l 2
 110 232 120 254 139 272 c 0
 158 290 181 299 208 299 c 0
 230 299 246 293 255 279 c 0
 261.492 270.56 264.191 260.434 264.191 248.896 c 0
 264.191 242.662 263.403 236.016 262 229 c 0
 258 210 250 194 234 181 c 0
 219 167 200 160 178 160 c 0
 159 160 147 165 139 174 c 1
 102 0 l 1
 55 0 l 1
 70 69 l 2
 72.4222 79.2944 73.7443 88.8554 73.7443 97.683 c 0
 73.7443 103.433 73.1833 108.872 72 114 c 0
 69 127 64 142 55 162 c 0
 47 181 42 197 39 210 c 0
 38.1716 215.385 37.6863 221.113 37.6863 227.326 c 0
 37.6863 236.113 38.6569 245.87 41 257 c 0
201 264 m 0
 190 264 180 261 172 254 c 0
 166 247 160 240 158 229 c 0
 157.549 226.971 157.352 224.994 157.352 223.078 c 0
 157.352 216.495 159.676 210.648 162 206 c 0
 167 198 175 194 186 194 c 0
 198 194 208 198 214 206 c 0
 222 212 226 220 228 229 c 0
 228.633 232.483 228.966 235.565 228.966 238.373 c 0
 228.966 244.433 227.417 249.216 224 254 c 0
 221 261 213 264 201 264 c 0
EndSplineSet
EndChar
StartChar: uni0E06
Encoding: 166 3590 136
OldEncoding: 3590
Width: 518
Flags: W
HStem: -7 40<144 159> 0 21G<371 419> 172 35<90 106> 277 33<113 122>
DStem: 189 132 237 130 172 52 222 59 214 247 261 245 197 167 245 167 453 384 501 384 388 80 419 0
Fore
197 167 m 1
 214 247 l 2
 216 260 222 271 226 279 c 0
 231 287 236 293 242 297 c 0
 248 301 255 305 263 310 c 0
 269 313 271 316 273 322 c 0
 273.207 323.45 273.328 324.9 273.328 326.358 c 0
 273.328 331.942 271.55 337.657 266 344 c 0
 260 350 253 355 247 356 c 1
 193 324 l 1
 146 356 l 1
 130 353 117 344 105 331 c 0
 93 319 85 307 83 297 c 1
 86 299 90 302 96 305 c 0
 103 308 112 310 122 310 c 0
 141 308 157 303 168 292 c 0
 175.562 284.438 179.344 274.039 179.344 260.805 c 0
 179.344 254.789 178.562 248.188 177 241 c 0
 173 219 161 202 145 190 c 0
 127 177 110 172 93 172 c 0
 69 172 52 181 41 198 c 0
 33.7372 209.885 29.9619 223.513 29.9619 239.748 c 0
 29.9619 248.103 30.9615 257.147 33 267 c 0
 36 282 42 298 50 315 c 0
 62 338 79 356 101 371 c 0
 123 384 143 391 157 391 c 1
 201 360 l 1
 252 391 l 1
 269 385 284 376 298 364 c 0
 308.075 353.925 313.345 342.65 313.345 330.173 c 0
 313.345 326.55 312.9 322.826 312 319 c 0
 310 311 308 304 303 299 c 0
 299 295 294 290 288 285 c 0
 280 279 276 275 270 269 c 0
 266 263 263 255 261 245 c 2
 245 167 l 1
 269 165 291 159 312 149 c 0
 331 140 349 129 361 116 c 0
 374 103 383 90 388 80 c 1
 453 384 l 1
 501 384 l 1
 419 0 l 1
 371 0 l 1
 371.812 4.06036 372.258 8.26727 372.258 12.6207 c 0
 372.258 24.35 369.022 37.1431 361 51 c 0
 350 70 334 88 311 103 c 0
 289 118 264 127 237 130 c 1
 222 59 l 2
 217 38 208 23 196 11 c 0
 182 -1 165 -7 144 -7 c 0
 122 -7 105 1 96 18 c 0
 89.9319 28.7878 86.5913 40.9393 86.5913 54.7611 c 0
 86.5913 61.4393 87.3712 68.5074 89 76 c 0
 94 99 107 121 127 139 c 0
 145 156 168 166 197 167 c 1
133 43 m 0
 138 36 143 33 151 33 c 0
 163 33 170 40 172 52 c 2
 189 132 l 1
 173 132 160 127 150 116 c 0
 140 105 133 93 130 78 c 0
 128.757 71.7868 128.029 66.0883 128.029 60.9756 c 0
 128.029 53.7452 129.485 47.6863 133 43 c 0
115 277 m 0
 104 277 94 273 87 267 c 0
 81 261 75 252 73 242 c 0
 72.4415 239.487 72.1949 237.052 72.1949 234.673 c 0
 72.1949 228.532 73.8377 222.766 76 217 c 0
 81 210 89 207 100 207 c 0
 111 207 122 210 128 217 c 0
 136 224 141 232 143 242 c 0
 143.633 245.166 143.966 248.232 143.966 251.135 c 0
 143.966 257.398 142.417 262.9 139 267 c 0
 135 273 126 277 115 277 c 0
EndSplineSet
EndChar
StartChar: uni0E07
Encoding: 167 3591 137
OldEncoding: 3591
Width: 325
Flags: W
HStem: -8 43<162 173> 250 35<208 221> 354 35<230 241>
DStem: 28 241 69 261 109 26 151 47 232 254 294 319 190 53 237 50
Fore
190 53 m 2
 232 254 l 1
 227 251 220 250 210 250 c 0
 188 250 172 257 163 271 c 0
 156.485 280.121 153.365 290.092 153.365 301.188 c 0
 153.365 307.122 154.258 313.379 156 320 c 0
 160 339 168 356 184 370 c 0
 199 382 217 389 239 389 c 0
 253 389 265 385 274 380 c 0
 283 374 290 365 294 355 c 0
 295.5 350 296.25 344.25 296.25 338.125 c 0
 296.25 332 295.5 325.5 294 319 c 2
 237 50 l 2
 233 32 224 17 211 7 c 0
 197 -3 182 -8 165 -8 c 0
 152 -8 141 -6 132 0 c 0
 123 6 112 14 109 26 c 2
 28 241 l 1
 69 261 l 1
 151 47 l 2
 154 40 160 35 169 35 c 0
 175 35 178 36 183 40 c 0
 187 43 188 47 190 53 c 2
232 354 m 0
 221 354 211 350 205 344 c 0
 196 336 191 328 190 320 c 0
 189.333 317 189 314.111 189 311.333 c 0
 189 305.778 190.333 300.667 193 296 c 0
 198 288 206 285 217 285 c 0
 228 285 238 288 246 296 c 0
 253 303 259 311 261 320 c 0
 261.172 321.373 261.255 322.745 261.255 324.118 c 0
 261.255 330.745 259.314 337.373 256 344 c 0
 250 350 242 354 232 354 c 0
EndSplineSet
EndChar
StartChar: uni0E08
Encoding: 168 3592 138
OldEncoding: 3592
Width: 386
Flags: W
HStem: 0 21G<238 286> 140 34<149 158> 243 37<171 183> 355 36<204 227>
DStem: 295 264 343 264 272 156 286 0
Fore
181 280 m 0
 203 280 221 273 234 257 c 0
 247 240 255 220 261 197 c 0
 266 174 271 160 272 156 c 1
 295 264 l 2
 296.55 271.492 297.299 278.517 297.299 285.074 c 0
 297.299 303.9 291.125 318.875 280 330 c 0
 263 346 240 355 209 355 c 0
 207.889 355.022 206.781 355.033 205.676 355.033 c 0
 156.043 355.033 112.172 333.107 75 293 c 1
 50 316 l 1
 65 336 87 353 118 368 c 0
 148 383 182 391 218 391 c 0
 247 391 271 386 292 376 c 0
 313 366 328 353 336 333 c 0
 342.533 320.587 346.079 306.894 346.079 291.083 c 0
 346.079 282.693 345.08 273.707 343 264 c 2
 286 0 l 1
 238 0 l 1
 242.354 18.2874 245.192 38.8498 245.192 60.3665 c 0
 245.192 63.5581 245.129 66.7707 245 70 c 0
 245 94 242 116 239 137 c 0
 234 157 228 172 222 182 c 1
 219 175 211 167 200 157 c 0
 188 147 171 141 151 140 c 0
 132 140 117 147 106 160 c 0
 99.1885 169.536 95.6248 180.464 95.6248 193.1 c 0
 95.6248 199.015 96.4057 205.304 98 212 c 0
 102 233 112 249 127 261 c 0
 141 273 159 280 181 280 c 0
173 243 m 0
 161 243 151 240 145 233 c 0
 137 226 133 218 131 209 c 0
 130.394 206.275 130.064 203.642 130.064 201.1 c 0
 130.064 195.247 131.817 189.881 136 185 c 0
 140 177 148 174 158 174 c 0
 168 174 178 177 186 184 c 0
 192 191 198 199 200 209 c 0
 200.558 211.513 200.805 213.948 200.805 216.306 c 0
 200.805 222.39 199.162 227.955 197 233 c 0
 192 240 184 243 173 243 c 0
EndSplineSet
EndChar
StartChar: uni0E09
Encoding: 169 3593 139
OldEncoding: 3593
Width: 442
Flags: W
HStem: -7 38<316 333> 0 21G<74 122> 130 34<79 92> 234 35<101 112> 354 37<244 265>
DStem: 103 134 164 198 74 0 140 82 299 128 346 128 280 38 328 41 328 264 375 264 307 165 354 165
Fore
164 198 m 2
 140 82 l 1
 162 106 188 124 220 139 c 0
 250 153 279 162 307 165 c 1
 328 264 l 2
 329.774 272.573 330.674 280.535 330.674 287.884 c 0
 330.674 305.396 325.566 319.434 315 330 c 0
 301 346 277 354 246 354 c 0
 220 354 196 347 171 334 c 0
 149 322 129 306 115 289 c 1
 89 313 l 1
 108 334 131 354 160 368 c 0
 190 383 222 391 254 391 c 0
 299 391 333 380 355 357 c 0
 371.233 342.179 378.998 321.878 378.998 297.153 c 0
 378.998 286.846 377.648 275.769 375 264 c 2
 354 165 l 1
 377 160 394 150 404 136 c 0
 409.48 126.259 411.994 114.664 411.994 101.893 c 0
 411.994 93.6876 410.956 84.9968 409 76 c 0
 404 52 393 32 375 17 c 0
 357 1 338 -7 316 -7 c 0
 303 -7 292 -2 285 6 c 0
 281.292 11.9333 279.234 19.5167 279.234 28.3423 c 0
 279.234 31.4166 279.483 34.6415 280 38 c 2
 299 128 l 1
 270 122 243 113 216 99 c 0
 189 85 168 69 152 51 c 0
 136 33 126 16 122 0 c 1
 74 0 l 1
 103 134 l 1
 98 131 91 130 81 130 c 0
 59 130 43 137 34 151 c 0
 27.6262 160.915 24.2616 171.833 24.2616 184.109 c 0
 24.2616 189.167 24.8328 194.456 26 200 c 0
 30 219 38 235 54 249 c 0
 69 262 87 269 110 269 c 0
 131 269 146 262 156 249 c 0
 162.323 239.164 166.178 227.847 166.178 215.05 c 0
 166.178 209.632 165.487 203.949 164 198 c 2
103 234 m 0
 91 234 81 231 75 224 c 0
 67 217 63 209 60 199 c 0
 59.4641 196.321 59.2154 193.785 59.2154 191.373 c 0
 59.2154 184.785 61.0718 179.124 64 174 c 0
 68 167 76 164 88 164 c 0
 99 164 109 167 116 174 c 0
 123 182 129 190 130 199 c 0
 130.879 201.929 131.243 204.686 131.243 207.297 c 0
 131.243 213.601 129.121 219.05 127 224 c 0
 122 231 114 234 103 234 c 0
373 76 m 0
 374.257 81.4452 374.811 86.8904 374.811 92.1151 c 0
 374.811 99.3641 373.743 106.189 372 112 c 0
 367 121 359 127 346 128 c 1
 328 41 l 2
 327.562 39.4654 327.363 38.1231 327.363 36.9625 c 0
 327.363 32.8288 329.877 31 333 31 c 0
 341 31 350 35 358 44 c 0
 364 53 371 63 373 76 c 0
EndSplineSet
EndChar
StartChar: uni0E0A
Encoding: 170 3594 140
OldEncoding: 3594
Width: 416
Flags: W
HStem: 0 41<84 256> 226 36<91 109> 289 34<270 279.636> 355 36<169 189>
DStem: 161 176 207 170 132 41 180 41 314 221 363 231 283 73 330 73
Fore
326 308 m 1
 329 308 335 307 343 304 c 0
 350 301 357 294 362 281 c 0
 364.748 274.406 366.287 266.302 366.287 256.854 c 0
 366.287 249.109 365.252 240.46 363 231 c 2
 330 73 l 2
 323 43 314 23 301 14 c 0
 288 5 264 0 232 0 c 2
 76 0 l 1
 85 41 l 1
 132 41 l 1
 161 176 l 2
 164 190 167 201 173 209 c 0
 176 216 183 224 191 234 c 0
 200 243 208 251 212 259 c 0
 218 267 222 277 226 289 c 0
 227.167 294.544 227.738 299.833 227.738 304.866 c 0
 227.738 317.082 224.374 327.793 218 337 c 0
 207 349 194 355 177 355 c 0
 173 355 167 354 159 353 c 1
 165 351 172 346 181 337 c 0
 185.844 331.55 188.489 323.533 188.489 312.95 c 0
 188.489 306.056 187.367 298.072 185 289 c 0
 180 269 168 253 153 243 c 0
 136 232 115 226 91 226 c 1
 59.2425 230.764 42.6131 249.395 42.6131 282.394 c 0
 42.6131 290.958 43.7333 300.491 46 311 c 1
 54 334 73 355 99 370 c 0
 126 384 151 391 176 391 c 0
 194 391 211 388 223 382 c 0
 237 376 248 367 256 357 c 0
 264 347 269 336 270 323 c 1
 282 323 301 329 327 341 c 0
 353 353 382 376 411 412 c 1
 440 391 l 1
 423 365 403 345 380 332 c 0
 355 320 338 312 326 308 c 1
269 289 m 1
 266 277 263 266 257 258 c 0
 252 250 247 241 240 233 c 0
 232 224 225 215 219 206 c 0
 214 197 210 184 207 170 c 2
 180 41 l 1
 241 41 l 2
 255 41 266 43 271 47 c 0
 275 51 280 60 283 73 c 2
 314 221 l 2
 315.945 229.947 316.906 237.985 316.906 245.131 c 0
 316.906 274.725 300.415 289 269 289 c 1
124 332 m 0
 113 332 103 329 96 322 c 0
 89 315 83 307 81 297 c 0
 80.5492 294.971 80.3524 292.994 80.3524 291.067 c 0
 80.3524 284.444 82.6762 278.422 85 273 c 0
 90 266 98 262 109 262 c 0
 120 262 131 266 137 273 c 0
 145 280 149 288 151 297 c 0
 151.667 300.333 152 303.444 152 306.37 c 0
 152 312.222 150.667 317.333 148 322 c 0
 144 329 135 332 124 332 c 0
EndSplineSet
EndChar
StartChar: uni0E0B
Encoding: 171 3595 141
OldEncoding: 3595
Width: 442
Flags: W
HStem: 0 41<109 277> 172 35<76 92> 277 33<99 109> 330 21G<301 301>
DStem: 200 247 248 245 157 41 205 41 341 231 388 231 307 73 354 73
Fore
301 330 m 1
 314 333 334 341 362 356 c 0
 389 370 414 392 438 424 c 1
 468 401 l 1
 456 384 440 367 422 355 c 0
 403 341 389 333 376 328 c 0
 362 321 353 316 347 315 c 1
 358 314 368 307 381 297 c 0
 388.43 290.189 392.026 278.778 392.026 263.478 c 0
 392.026 254.068 390.666 243.187 388 231 c 2
 354 73 l 2
 348 43 339 23 326 14 c 0
 314 5 291 0 257 0 c 2
 101 0 l 1
 110 41 l 1
 157 41 l 1
 200 247 l 2
 204 266 211 278 218 286 c 0
 225 294 236 302 249 310 c 0
 254 313 257 316 258 322 c 0
 258.5 323.5 258.75 325.125 258.75 326.844 c 0
 258.75 332 256.5 338 252 344 c 0
 245 350 239 355 233 356 c 1
 180 324 l 1
 133 356 l 1
 116 353 101 344 91 331 c 0
 79 319 72 307 70 297 c 1
 71 299 77 302 83 305 c 0
 89 308 98 310 109 310 c 0
 127 308 143 303 155 293 c 0
 162.562 284.75 166.344 274.137 166.344 260.835 c 0
 166.344 254.789 165.562 248.188 164 241 c 0
 159 219 148 202 131 190 c 0
 114 177 95 172 78 172 c 0
 55 172 37 181 26 198 c 0
 19.0326 209.401 15.676 222.407 15.676 237.78 c 0
 15.676 246.678 16.8004 256.369 19 267 c 0
 22 284 28 301 37 315 c 1
 47 338 65 356 88 371 c 0
 110 384 130 391 144 391 c 1
 187 360 l 1
 238 391 l 1
 254 388 267 382 275 373 c 0
 284 364 291 355 295 345 c 0
 298 336 301 331 301 330 c 1
 301 330 l 1
289 297 m 1
 285 294 280 289 275 285 c 0
 266 280 261 276 257 270 c 0
 253 264 251 257 248 245 c 2
 205 41 l 1
 266 41 l 2
 280 41 291 43 295 47 c 1
 300 51 305 60 307 73 c 2
 341 231 l 2
 342.553 238.59 343.331 245.526 343.331 251.807 c 0
 343.331 281.936 325.41 297 289 297 c 1
101 277 m 0
 91 277 81 273 74 267 c 0
 65 260 61 252 58 242 c 0
 57.4833 239.675 57.2336 237.417 57.2336 235.225 c 0
 57.2336 228.933 59.2917 223.192 63 218 c 0
 68 210 76 207 86 207 c 0
 97 207 107 210 114 217 c 0
 122 225 126 233 128 242 c 0
 129 245.333 129.444 248.444 129.444 251.37 c 0
 129.444 257.222 127.667 262.333 125 267 c 0
 120 273 112 277 101 277 c 0
EndSplineSet
EndChar
StartChar: uni0E0C
Encoding: 172 3596 142
OldEncoding: 3596
Width: 536
Flags: W
HStem: -7 35<90 104> -7 43<235 240> 0 21G<390 437> 97 35<111 123> 356 35<226 241>
DStem: 65 200 113 202 36 63 97 128 260 108 306 103 247 45 293 43 297 282 344 282 267 141 314 140 472 384 519 384 405 69 437 0
Fore
113 202 m 2
 97 128 l 1
 101 131 109 132 121 132 c 0
 143 132 158 125 167 112 c 0
 172.613 102.178 175.764 91.3719 175.764 79.236 c 0
 175.764 74.0734 175.194 68.6703 174 63 c 0
 170 44 160 28 146 15 c 0
 131 0 114 -7 92 -7 c 0
 72 -7 56 0 46 12 c 0
 38.1562 21.27 33.8717 32.5739 33.8717 45.9116 c 0
 33.8717 51.2785 34.5654 56.9746 36 63 c 2
 65 200 l 2
 74 244 96 271 130 282 c 1
 125 287 116 294 102 302 c 0
 89 310 71 315 51 321 c 1
 63 333 84 348 114 365 c 0
 143 382 181 391 226 391 c 0
 306.537 391 347.434 364.574 347.434 311.092 c 0
 347.434 302.152 346.292 292.455 344 282 c 2
 314 140 l 1
 330 137 349 129 366 116 c 0
 384 103 397 87 405 69 c 1
 472 384 l 1
 519 384 l 1
 437 0 l 1
 390 0 l 1
 388 11 384 23 381 35 c 0
 375 46 366 59 354 72 c 0
 342 85 326 95 306 103 c 1
 293 43 l 2
 286 10 269 -7 238 -7 c 0
 219 -7 205 1 198 16 c 0
 193.402 25.8528 190.961 37 190.961 49.4416 c 0
 190.961 55.9411 191.627 62.7939 193 70 c 0
 197 89 207 106 220 120 c 0
 232 133 248 140 267 141 c 1
 297 282 l 2
 298.389 288.667 299.083 294.948 299.083 300.821 c 0
 299.083 316.093 294.389 328.611 285 338 c 0
 272 350 252 356 226 356 c 0
 193 356 157 347 121 328 c 1
 127 325 138 320 154 312 c 0
 169 304 181 294 193 280 c 1
 187 280 180 279 171 276 c 0
 161 272 150 266 137 254 c 0
 126 242 118 225 113 202 c 2
247 45 m 1
 260 108 l 1
 243 105 231 92 225 66 c 0
 224.667 63.3333 224.444 60.7778 224.444 58.3333 c 0
 224.444 53.4444 225.333 49 228 45 c 0
 230 40 234 36 237 36 c 0
 242 36 245 40 247 45 c 1
98 28 m 0
 110 28 120 32 126 38 c 0
 134 45 138 53 141 63 c 0
 141.236 65.1246 141.361 67.1935 141.361 69.2066 c 0
 141.361 75.7214 140.056 81.6525 137 87 c 0
 132 94 124 97 113 97 c 0
 103 97 93 94 86 87 c 0
 78 80 72 72 71 63 c 0
 70.1213 60.0711 69.7574 57.3137 69.7574 54.7028 c 0
 69.7574 48.3995 71.8787 42.9497 74 38 c 0
 80 32 88 28 98 28 c 0
EndSplineSet
EndChar
StartChar: uni0E0D
Encoding: 173 3597 143
OldEncoding: 3597
Width: 536
Flags: W
HStem: -192 34<275 282> -134 21G<238.5 248> -73 36<256 266> -27 20G<101 122> 0 41<218 390> 97 35<130 143> 356 35<246 264>
VStem: 160 35<69 81>
DStem: 84 200 133 202 55 63 117 128 317 282 364 282 266 41 313 41 491 384 538 384 425 73 472 73
Fore
448 -40 m 1
 441 -73 428 -102 411 -124 c 0
 393 -148 373 -165 350 -175 c 0
 325 -186 303 -192 279 -192 c 0
 249 -192 224 -183 204 -167 c 0
 188.131 -153.511 180.446 -138.764 180.446 -120.759 c 0
 180.446 -116.072 180.967 -111.164 182 -106 c 0
 186 -88 196 -72 210 -58 c 0
 221.327 -44.7851 239.782 -36.9161 262.001 -36.9161 c 0
 263.321 -36.9161 264.654 -36.9439 266 -37 c 0
 287 -37 301 -45 309 -58 c 0
 315.079 -66.1053 317.964 -76.0356 317.964 -87.1744 c 0
 317.964 -92.5267 317.298 -98.158 316 -104 c 0
 313 -115 309 -125 301 -136 c 0
 294 -146 285 -153 275 -158 c 1
 300 -158 324 -150 349 -136 c 0
 373 -121 391 -88 401 -40 c 1
 448 -40 l 1
55 63 m 2
 84 200 l 2
 94 244 115 271 150 282 c 1
 145 287 135 294 122 302 c 0
 109 310 91 315 71 321 c 1
 83 333 104 348 133 365 c 0
 163 382 201 391 246 391 c 0
 326.961 391 367.122 364.294 367.122 310.245 c 0
 367.122 301.54 366.081 292.126 364 282 c 2
 313 41 l 1
 384 41 l 2
 398 41 408 43 413 47 c 1
 418 51 423 60 425 73 c 2
 491 384 l 1
 538 384 l 1
 472 73 l 2
 468 52 463 36 455 26 c 0
 449 16 440 9 427 6 c 0
 415 2 398 0 375 0 c 2
 210 0 l 1
 219 41 l 1
 266 41 l 1
 317 282 l 2
 318.389 288.667 319.083 294.948 319.083 300.821 c 0
 319.083 316.093 314.389 328.611 305 338 c 0
 291 350 272 356 246 356 c 0
 213 356 177 347 141 328 c 1
 147 325 158 320 173 312 c 0
 188 304 200 294 212 280 c 1
 206 280 200 279 191 276 c 0
 181 272 169 266 157 254 c 0
 145 242 138 225 133 202 c 2
 117 128 l 1
 121 131 129 132 141 132 c 0
 163 132 177 125 187 112 c 0
 192.333 102.667 195 92.4444 195 81.037 c 0
 195 75.3333 194.333 69.3333 193 63 c 0
 189 44 180 28 166 15 c 0
 151 0 133 -7 111 -7 c 0
 91 -7 76 0 65 12 c 0
 57.0812 21.3586 53.3083 32.7901 53.3084 46.2946 c 0
 53.3084 51.5492 53.8796 57.1177 55 63 c 2
243 -134 m 0
 253 -134 261 -131 267 -125 c 0
 274 -120 278 -112 280 -104 c 0
 280.309 -101.528 280.523 -99.1512 280.523 -96.8406 c 0
 280.523 -91.6738 279.455 -86.8369 276 -82 c 0
 272 -77 266 -73 256 -73 c 0
 245 -73 238 -77 231 -82 c 0
 224 -88 219 -96 218 -104 c 0
 217.367 -106.533 217.034 -109.066 217.034 -111.504 c 0
 217.034 -116.765 218.583 -121.583 222 -125 c 0
 227 -131 234 -134 243 -134 c 0
118 28 m 0
 130 28 140 32 146 38 c 0
 153 45 158 53 160 63 c 0
 160.633 65.8496 160.966 68.599 160.966 71.2481 c 0
 160.966 76.9657 159.417 82.2164 156 87 c 0
 152 94 143 97 132 97 c 0
 122 97 113 94 105 87 c 0
 98 80 92 72 90 63 c 0
 89.4641 60.3205 89.2154 57.7846 89.2154 55.3731 c 0
 89.2154 48.7846 91.0718 43.1244 94 38 c 0
 100 32 108 28 118 28 c 0
EndSplineSet
EndChar
StartChar: uni0E0E
Encoding: 174 3598 144
OldEncoding: 3598
Width: 456
Flags: W
HStem: -195 44<79 96> -80 42<111 133> -7 35<64 79> 97 35<83 97> 350 41<287 315>
DStem: 131 191 178 193 117 128 150 61 387 267 434 267 303 -130 336 -193
Fore
117 128 m 1
 131 191 l 2
 134 206 139 219 146 231 c 0
 151 241 159 250 166 255 c 0
 175 261 184 266 192 269 c 1
 187 273 178 279 165 287 c 0
 153 295 135 301 113 302 c 1
 126 316 152 336 186 358 c 0
 222 380 261 391 307 391 c 0
 351 391 387 381 411 359 c 0
 428.204 343.292 437.016 321.988 437.016 295.508 c 0
 437.016 286.587 436.016 277.079 434 267 c 2
 336 -193 l 1
 289 -193 l 1
 279 -172 264 -154 248 -139 c 0
 232 -124 218 -115 209 -110 c 1
 198 -131 181 -150 157 -168 c 0
 134.88 -184.59 111.061 -195.234 85.5437 -195.234 c 0
 83.3747 -195.234 81.1935 -195.157 79 -195 c 0
 56 -195 38 -188 27 -173 c 0
 19.4375 -162.688 15.6562 -150.484 15.6562 -136.066 c 0
 15.6562 -129.512 16.4375 -122.5 18 -115 c 0
 24 -90 37 -71 57 -58 c 0
 77 -45 100 -38 126 -38 c 0
 147 -38 170 -43 193 -51 c 1
 195 -47 198 -42 203 -32 c 0
 207 -24 211 -12 214 0 c 1
 255 -9 l 1
 252 -21 248 -34 242 -45 c 0
 238 -55 234 -63 232 -69 c 1
 248 -78 262 -88 277 -101 c 0
 291 -113 299 -122 303 -130 c 1
 387 267 l 2
 388.489 273.329 389.285 279.242 389.285 284.842 c 0
 389.285 294.285 387.022 302.84 382 311 c 0
 376 323 365 333 350 340 c 0
 337 347 320 350 300 350 c 0
 260 350 222 338 187 313 c 1
 194 312 203 307 218 301 c 0
 233 294 246 284 256 271 c 1
 245 269 232 262 215 251 c 0
 196 240 184 220 178 193 c 2
 150 61 l 2
 146 42 138 26 122 14 c 0
 107 0 88 -7 66 -7 c 0
 45 -7 30 0 20 14 c 0
 13.6262 23.2067 10.2616 34.4195 10.2616 46.9282 c 0
 10.2616 52.082 10.8328 57.4559 12 63 c 0
 16 82 25 98 40 112 c 0
 56 125 74 132 95 132 c 0
 104 132 112 131 117 128 c 1
120 -146 m 0
 132 -140 143 -131 153 -119 c 0
 163 -106 169 -97 172 -90 c 1
 152 -84 134 -80 117 -80 c 0
 85 -80 67 -92 62 -115 c 0
 61 -118 60.5 -121 60.5 -123.875 c 0
 60.5 -126.75 61 -129.5 62 -132 c 0
 64 -145 76 -151 96 -151 c 0
 104 -151 112 -149 120 -146 c 0
73 28 m 0
 84 28 94 32 102 38 c 0
 110 45 114 53 117 63 c 0
 117.236 65.1246 117.361 67.1935 117.361 69.2066 c 0
 117.361 75.7214 116.056 81.6525 113 87 c 0
 107 94 99 97 88 97 c 0
 78 97 68 94 61 87 c 0
 52 79 47 71 46 63 c 0
 45.3944 60.275 45.0639 57.6417 45.0639 55.1278 c 0
 45.0639 49.3389 46.8167 44.1833 51 40 c 0
 55 32 63 28 73 28 c 0
EndSplineSet
EndChar
StartChar: uni0E0F
Encoding: 175 3599 145
OldEncoding: 3599
Width: 456
Flags: W
HStem: -195 37<61 75> -98 37<86 98> -7 35<64 77> 97 35<86 97> 350 41<287 315>
DStem: 131 191 178 193 117 128 150 61 251 -130 259 -82 289 -193 301 -137 259 -82 251 -130 198 -134 181 -195 387 267 434 267 301 -137 336 -193
Fore
117 128 m 1
 131 191 l 2
 134 206 139 219 146 231 c 0
 151 241 159 250 166 255 c 0
 175 261 184 266 192 269 c 1
 187 273 178 279 165 287 c 0
 153 295 135 301 113 302 c 1
 126 316 152 336 186 358 c 0
 222 380 261 391 307 391 c 0
 351 391 387 381 410 359 c 0
 428 343.25 437 321.875 437 295.297 c 0
 437 286.438 436 277 434 267 c 2
 336 -193 l 1
 289 -193 l 1
 251 -130 l 1
 181 -195 l 1
 177 -185 173 -175 167 -165 c 0
 161 -155 156 -147 151 -141 c 1
 145 -150 134 -162 118 -175 c 0
 102 -189 83 -195 61 -195 c 0
 42 -195 27 -189 19 -175 c 0
 12.8048 -167.566 10.0638 -157.445 10.0638 -145.113 c 0
 10.0638 -137.539 11.0976 -129.131 13 -120 c 1
 19 -101 29 -86 43 -76 c 0
 58 -66 74 -61 94 -61 c 0
 115 -61 133 -68 150 -80 c 1
 154 -73 159 -62 167 -46 c 0
 174 -32 182 -16 186 0 c 1
 224 -9 l 1
 221 -21 213 -38 202 -60 c 0
 193 -81 184 -97 177 -106 c 1
 178 -106 186 -115 198 -134 c 1
 259 -82 l 1
 301 -137 l 1
 387 267 l 2
 388.489 273.329 389.285 279.242 389.285 284.842 c 0
 389.285 294.285 387.022 302.84 382 311 c 0
 376 323 365 333 350 340 c 0
 337 347 320 350 300 350 c 0
 260 350 222 338 187 313 c 1
 193 312 203 307 218 301 c 0
 233 294 246 284 256 271 c 1
 245 269 232 262 215 251 c 0
 196 240 184 220 178 193 c 2
 150 61 l 2
 146 42 138 26 122 14 c 0
 107 0 88 -7 66 -7 c 0
 45 -7 30 0 20 14 c 0
 13.6262 23.2067 10.2616 34.4195 10.2616 46.9282 c 0
 10.2616 52.082 10.8328 57.4559 12 63 c 0
 16 82 25 98 40 112 c 0
 56 125 74 132 95 132 c 0
 105 132 112 131 117 128 c 1
91 -153 m 0
 99 -147 107 -139 114 -131 c 0
 121 -123 127 -116 128 -113 c 1
 116 -103 104 -98 89 -98 c 0
 72 -98 60 -105 53 -119 c 1
 51.8968 -124.516 51.3291 -129.448 51.3291 -133.795 c 0
 51.3291 -149.152 58.4127 -157.221 74 -158 c 0
 79 -158 85 -156 91 -153 c 0
73 28 m 0
 84 28 94 32 102 38 c 0
 110 45 114 53 117 63 c 0
 117.236 65.1246 117.361 67.1935 117.361 69.2066 c 0
 117.361 75.7214 116.056 81.6525 113 87 c 0
 107 94 99 97 88 97 c 0
 78 97 68 94 61 87 c 0
 52 79 47 71 46 63 c 0
 45.3944 60.275 45.0639 57.6417 45.0639 55.1278 c 0
 45.0639 49.3389 46.8167 44.1833 51 40 c 0
 55 32 63 28 73 28 c 0
EndSplineSet
EndChar
StartChar: uni0E10
Encoding: 176 3600 146
OldEncoding: 3600
Width: 364
Flags: W
HStem: -145 27<200 215> -132 30<25 37> -63 28<214 228> 0 21G<232 288> 97 34<141 155> 201 35<159 175> 319 41<359 372> 353 38<225 247>
DStem: 280 186 328 189 261 94 288 0
Fore
173 236 m 0
 188 236 201 232 212 224 c 0
 223 216 231 205 234 191 c 2
 261 94 l 1
 280 186 l 2
 282.655 198.834 283.94 209.71 283.94 218.714 c 0
 283.94 230.055 281.902 238.426 278 244 c 0
 271 254 256 263 232 271 c 0
 207 279 181 285 154 289 c 0
 126 295 107 298 92 299 c 1
 113 325 136 347 162 365 c 0
 187 382 214 391 241 391 c 0
 256 391 270 390 279 388 c 0
 289 384 301 381 314 375 c 0
 328 370 339 366 346 364 c 0
 354 362 362 360 370 360 c 0
 383 360 398 364 411 370 c 1
 412 330 l 1
 391 322 374 319 360 319 c 0
 349 319 340 320 332 322 c 0
 326 324 315 329 299 334 c 0
 285 340 273 345 264 348 c 0
 254 351 245 353 234 353 c 0
 223 353 211 349 197 344 c 0
 183 337 176 331 174 328 c 1
 179 327 187 325 196 322 c 0
 206 319 219 315 234 311 c 0
 250 307 262 304 270 302 c 0
 304 293 325 280 331 264 c 0
 333.435 257.1 334.553 249.047 334.553 239.639 c 0
 334.553 225.87 332.159 209.2 328 189 c 2
 288 0 l 1
 232 0 l 1
 232.127 3.0484 232.189 6.08067 232.189 9.105 c 0
 232.189 29.8912 229.238 50.3024 224 73 c 0
 219 99 214 119 210 131 c 1
 204 121 195 113 181 106 c 0
 170 101 157 97 143 97 c 0
 122 97 107 104 97 118 c 0
 90.6262 127.915 87.2616 138.833 87.2616 150.754 c 0
 87.2616 155.666 87.8328 160.748 89 166 c 0
 93 185 103 202 118 216 c 0
 133 229 152 236 173 236 c 0
206 -167 m 2
 207 -166 209 -162 212 -156 c 0
 214 -150 214 -147 215 -144 c 1
 214 -144 213 -144 211 -144 c 0
 210 -144 206 -144 203 -145 c 0
 186 -145 173 -139 165 -129 c 0
 159.667 -122.333 157.444 -114.333 157.444 -105.593 c 0
 157.444 -101.222 158 -96.6667 159 -92 c 0
 162 -77 170 -64 183 -52 c 0
 196 -41 209 -35 226 -35 c 0
 243 -35 254 -40 263 -50 c 0
 268.022 -56.2772 270.285 -63.7365 270.285 -73.1199 c 0
 270.285 -78.6849 269.489 -84.9267 268 -92 c 2
 254 -158 l 2
 252 -166 250 -173 247 -177 c 0
 242 -182 238 -185 232 -189 c 0
 226 -192 219 -197 212 -200 c 2
 176 -219 l 1
 139 -191 l 1
 89 -217 l 1
 74 -176 l 1
 59.012 -198.482 37.004 -212.189 11.264 -212.189 c 0
 9.526 -212.189 7.771 -212.127 6 -212 c 0
 -22.3316 -211.191 -37.5583 -197.931 -37.5583 -173.283 c 0
 -37.5583 -167.482 -36.7147 -161.049 -35 -154 c 0
 -32 -139 -22 -127 -9 -116 c 0
 4 -106 19 -102 35 -102 c 0
 49 -102 62 -106 75 -115 c 1
 77 -111 81 -103 87 -90 c 0
 92 -78 97 -61 101 -40 c 1
 136 -40 l 1
 128 -78 115 -112 97 -142 c 1
 109 -170 l 1
 109 -170 113 -167 123 -163 c 0
 132 -157 141 -154 148 -150 c 1
 187 -179 l 1
 206 -167 l 2
209 -118 m 0
 217 -118 224 -115 230 -110 c 0
 237 -104 240 -98 242 -90 c 0
 242.25 -88 242.375 -86.1875 242.375 -84.5 c 0
 242.375 -79.4375 241.25 -75.5 239 -71 c 0
 235 -66 228 -63 220 -63 c 0
 211 -63 204 -66 200 -71 c 1
 192 -77 189 -82 188 -90 c 0
 187.333 -92.3333 187 -94.6667 187 -96.963 c 0
 187 -101.556 188.333 -106 191 -110 c 1
 193 -115 200 -118 209 -118 c 0
151 131 m 0
 163 131 172 134 179 141 c 0
 186 149 191 157 193 166 c 0
 193.633 169.166 193.966 172.132 193.966 174.929 c 0
 193.966 180.966 192.417 186.216 189 191 c 0
 186 198 177 201 165 201 c 0
 155 201 146 198 138 191 c 0
 131 184 125 176 123 166 c 0
 122.483 163.675 122.234 161.417 122.234 159.225 c 0
 122.234 152.933 124.292 147.192 128 142 c 0
 132 134 141 131 151 131 c 0
27 -132 m 0
 18 -132 11 -134 5 -140 c 0
 -0 -146 -4 -151 -6 -158 c 0
 -6.17712 -159.063 -6.26013 -160.125 -6.26013 -161.177 c 0
 -6.26013 -166.063 -4.46863 -170.708 -2 -174 c 0
 1 -180 7 -182 16 -182 c 0
 23 -182 29 -180 37 -175 c 0
 42 -171 47 -166 52 -160 c 0
 55 -155 57 -151 58 -150 c 1
 56 -147 53 -144 48 -139 c 0
 43 -134 36 -132 27 -132 c 0
EndSplineSet
EndChar
StartChar: uni0E11
Encoding: 177 3601 147
OldEncoding: 3601
Width: 532
Flags: W
HStem: 0 21G<151 199 384 431> 172 35<80 95> 277 33<102 112> 341 43<428 441>
DStem: 204 247 252 245 151 0 239 184 448 297 495 297 384 0 431 0
Fore
151 0 m 1
 204 247 l 2
 207 261 210 271 216 279 c 0
 220 286 227 292 231 296 c 0
 236 299 243 304 252 310 c 0
 258 313 261 316 262 322 c 0
 262.215 323.292 262.338 324.676 262.338 326.133 c 0
 262.338 331.444 260.708 337.722 256 344 c 0
 249 350 243 355 236 356 c 1
 183 324 l 1
 136 356 l 1
 119 353 105 344 95 331 c 0
 82 319 76 307 74 297 c 1
 75 299 81 302 86 305 c 0
 93 308 101 310 112 310 c 0
 131 308 147 303 159 293 c 0
 166.08 284.504 170.153 273.501 170.153 259.637 c 0
 170.153 253.92 169.46 247.716 168 241 c 0
 163 219 151 202 135 190 c 0
 117 177 99 172 82 172 c 0
 59 172 41 181 30 198 c 0
 22.3068 209.54 18.7237 222.724 18.7237 238.342 c 0
 18.7237 247.086 19.8466 256.592 22 267 c 0
 26 284 31 301 40 315 c 1
 50 338 68 356 91 371 c 0
 113 384 134 391 148 391 c 1
 191 360 l 1
 242 391 l 1
 259 385 274 376 288 364 c 0
 298.075 353.925 303.345 342.65 303.345 330.173 c 0
 303.345 326.55 302.9 322.826 302 319 c 0
 301 311 298 304 293 299 c 0
 289 295 284 290 278 285 c 0
 271 280 266 275 261 269 c 0
 256 263 254 255 252 245 c 2
 239 184 l 1
 247 199 260 221 281 252 c 0
 300 282 328 312 356 340 c 0
 386 370 413 384 441 384 c 0
 465 384 481 375 490 358 c 0
 495.48 347.65 497.994 336.188 497.994 323.388 c 0
 497.994 315.164 496.956 306.388 495 297 c 2
 431 0 l 1
 384 0 l 1
 448 297 l 2
 449.485 304.423 450.235 310.867 450.235 316.362 c 0
 450.235 333.071 443.298 341 429 341 c 0
 416 341 399 330 376 306 c 0
 354 282 330 253 306 217 c 0
 279 180 257 142 239 104 c 0
 218 66 206 31 199 0 c 1
 151 0 l 1
104 277 m 0
 94 277 84 273 77 267 c 0
 69 260 64 252 62 242 c 0
 61.3944 239.275 61.0639 236.642 61.0639 234.1 c 0
 61.0639 228.247 62.8167 222.881 67 218 c 0
 71 210 79 207 89 207 c 0
 100 207 110 210 118 217 c 0
 125 225 130 233 132 242 c 0
 132.633 245.166 132.966 248.132 132.966 250.929 c 0
 132.966 256.966 131.417 262.216 128 267 c 0
 123 273 115 277 104 277 c 0
EndSplineSet
EndChar
StartChar: uni0E12
Encoding: 178 3602 148
OldEncoding: 3602
Width: 567
Flags: W
HStem: -7 43<266 271> 0 21G<51 98 421 467> 258 35<205 216>
DStem: 290 108 337 103 277 45 324 43 309 391 298 351 235 347 227 311 321 254 369 254 297 141 345 140 503 384 549 384 436 69 467 0
Fore
297 141 m 1
 321 254 l 2
 325.5 273.5 327.75 289.062 327.75 301.531 c 0
 327.75 305.688 327.5 309.5 327 313 c 0
 324 327 313 339 298 351 c 1
 227 311 l 1
 227.057 311.057 227.084 311.123 227.084 311.199 c 0
 227.084 312.475 219.377 316.623 209 327 c 0
 196 337 184 345 175 351 c 1
 122 327 90 292 80 245 c 0
 78.1296 235.648 77.1338 225.713 77.1338 215.255 c 0
 77.1338 192.166 81.9878 166.53 93 139 c 0
 101.1 115.6 105.15 98.68 105.15 89.698 c 0
 105.15 88.7 105.1 87.8 105 87 c 1
 115 104 128 119 140 131 c 0
 152 144 159 151 166 156 c 1
 151 160 141 170 135 182 c 0
 130.416 189.857 128.405 199.001 128.405 208.589 c 0
 128.405 213.644 128.964 218.822 130 224 c 0
 134 243 143 259 158 272 c 0
 174 286 193 293 214 293 c 0
 236 293 252 286 261 271 c 0
 267.492 261.911 270.191 251.979 270.191 240.657 c 0
 270.191 234.539 269.403 228.016 268 221 c 0
 266 210 262 201 257 193 c 0
 252 185 244 177 238 172 c 0
 230 166 222 159 214 151 c 0
 196 134 179 119 166 104 c 0
 153 89 140 73 128 56 c 0
 117 40 105 20 98 0 c 1
 51 0 l 1
 58 9 62 19 65 31 c 0
 65.899 35.9444 66.3939 42.101 66.3939 49.4699 c 0
 66.3939 58.4949 65.6515 69.3383 64 82 c 0
 63 90 60 105 53 128 c 0
 45 150 40 171 37 190 c 0
 36.2251 197.361 35.7505 204.872 35.7505 212.65 c 0
 35.7505 224.947 36.9371 237.911 40 252 c 0
 48 284 65 311 90 334 c 0
 115 358 145 377 179 391 c 1
 235 347 l 1
 309 391 l 1
 333 379 349 366 358 354 c 0
 369 341 374 328 375 313 c 0
 375.427 309.794 375.626 306.361 375.626 302.708 c 0
 375.626 289.269 372.931 272.871 369 254 c 2
 345 140 l 1
 361 137 379 129 398 116 c 0
 416 103 429 87 436 69 c 1
 503 384 l 1
 549 384 l 1
 467 0 l 1
 421 0 l 1
 407 54 379 88 337 103 c 1
 324 43 l 2
 317 10 299 -7 269 -7 c 0
 250 -7 236 1 230 16 c 0
 224.248 25.5862 221.764 36.3976 221.764 48.4344 c 0
 221.764 55.2321 222.556 62.4207 224 70 c 0
 228 89 237 106 251 120 c 0
 263 133 279 140 297 141 c 1
207 258 m 0
 197 258 187 254 179 247 c 0
 172 240 167 232 165 223 c 0
 164.442 220.487 164.195 218.052 164.195 215.694 c 0
 164.195 209.61 165.838 204.045 168 199 c 0
 174 191 182 188 192 188 c 0
 204 188 214 191 220 198 c 0
 228 205 232 212 235 223 c 0
 235.536 225.679 235.785 228.215 235.785 230.608 c 0
 235.785 237.144 233.928 242.608 231 247 c 0
 227 254 219 258 207 258 c 0
277 45 m 1
 290 108 l 1
 274 105 261 92 255 66 c 0
 254.732 63.8564 254.608 61.7846 254.608 59.7846 c 0
 254.608 54.3205 255.536 49.3923 257 45 c 0
 261 40 264 36 268 36 c 0
 271 36 275 40 277 45 c 1
EndSplineSet
EndChar
StartChar: uni0E13
Encoding: 179 3603 149
OldEncoding: 3603
Width: 553
Flags: W
HStem: -28 20G<422.5 438.5> -7 35<90 104> 0 21G<237 284> 97 35<111 123> 356 35<226 242>
DStem: 65 200 113 202 36 63 98 128 297 282 344 282 237 0 302 82 410 124 458 130 391 35 439 43 465 384 512 384 418 163 466 166
Fore
36 63 m 2
 65 200 l 2
 74 244 96 271 130 282 c 1
 125 287 116 294 102 302 c 0
 89 310 71 315 52 321 c 1
 63 333 84 348 114 365 c 0
 143 382 181 391 226 391 c 0
 306.537 391 347.434 364.574 347.434 311.092 c 0
 347.434 302.152 346.292 292.455 344 282 c 2
 302 82 l 1
 336 123 375 150 418 163 c 1
 465 384 l 1
 512 384 l 1
 466 166 l 1
 488 163 504 155 514 140 c 0
 520.515 130.227 523.635 117.907 523.635 103.317 c 0
 523.635 95.5133 522.742 87.0602 521 78 c 0
 515 50 502 29 484 15 c 0
 466 0 448 -8 429 -8 c 0
 416 -8 404 -5 397 3 c 0
 392.1 8.6 389.65 15.18 389.65 23.426 c 0
 389.65 26.96 390.1 30.8 391 35 c 2
 410 124 l 1
 381 114 353 95 331 68 c 0
 307 41 292 18 284 0 c 1
 237 0 l 1
 297 282 l 2
 298.389 288.667 299.083 294.948 299.083 300.821 c 0
 299.083 316.093 294.389 328.611 285 338 c 0
 272 350 252 356 226 356 c 0
 193 356 157 347 121 328 c 1
 127 325 138 320 154 312 c 0
 169 304 181 294 193 280 c 1
 187 280 181 279 171 276 c 0
 161 272 150 266 137 254 c 0
 126 242 118 225 113 202 c 2
 98 128 l 1
 101 131 109 132 121 132 c 0
 143 132 158 125 167 112 c 0
 172.613 102.178 175.764 91.3719 175.764 79.236 c 0
 175.764 74.0734 175.194 68.6703 174 63 c 0
 170 44 160 28 146 15 c 0
 131 0 114 -7 92 -7 c 0
 72 -7 56 0 46 12 c 0
 38.1562 21.27 33.8717 32.5739 33.8717 45.9116 c 0
 33.8717 51.2785 34.5654 56.9746 36 63 c 2
439 43 m 2
 438.871 41.9666 438.808 41 438.808 40.1001 c 0
 438.808 34.0334 441.646 31 446 31 c 0
 453 31 461 35 468 44 c 0
 476 52 483 63 486 78 c 0
 487.192 83.9605 487.792 89.4868 487.792 94.5397 c 0
 487.792 114.918 478.033 127.596 458 130 c 1
 439 43 l 2
98 28 m 0
 110 28 120 32 126 38 c 0
 134 45 139 53 141 63 c 0
 141.536 65.4115 141.785 67.7513 141.785 70.0192 c 0
 141.785 76.2154 139.928 81.8756 137 87 c 0
 132 94 124 97 113 97 c 0
 103 97 93 94 86 87 c 0
 78 80 73 72 71 63 c 0
 70.4415 60.2076 70.1949 57.5711 70.1949 55.0689 c 0
 70.1949 48.6101 71.8377 43.0453 74 38 c 0
 80 32 88 28 98 28 c 0
EndSplineSet
EndChar
StartChar: uni0E14
Encoding: 180 3604 150
OldEncoding: 3604
Width: 414
Flags: W
HStem: 0 21G<50 97 266 314> 258 35<204 216> 358 35<218 260>
DStem: 321 257 368 254 266 0 314 0
Fore
81 250 m 0
 78.2952 238.505 76.9622 226.781 76.9622 214.79 c 0
 76.9622 191.314 82.0714 166.814 92 141 c 0
 98.4451 124.529 101.3 109.597 101.3 96.5705 c 0
 101.3 91.4066 100.852 86.5421 100 82 c 1
 113 101 125 116 139 129 c 0
 150 141 158 150 165 156 c 1
 150 160 140 170 134 182 c 0
 129.416 189.857 127.405 199.001 127.405 208.589 c 0
 127.405 213.644 127.964 218.822 129 224 c 0
 133 243 142 259 157 272 c 0
 173 286 193 293 214 293 c 0
 236 293 251 286 260 271 c 0
 266.492 261.911 269.191 251.979 269.191 240.657 c 0
 269.191 234.539 268.403 228.016 267 221 c 0
 265 210 261 201 256 193 c 0
 251 185 243 177 237 172 c 0
 230 166 221 159 213 151 c 0
 195 134 179 119 165 104 c 0
 152 89 139 73 127 56 c 0
 116 40 104 20 97 0 c 1
 50 0 l 1
 57 9 61 19 64 31 c 0
 64.899 35.9444 65.3939 42.101 65.3939 49.4699 c 0
 65.3939 58.4949 64.6515 69.3383 63 82 c 0
 62 92 58 107 52 129 c 0
 43 151 39 172 37 191 c 0
 36.1315 199.251 35.4515 207.879 35.4515 216.72 c 0
 35.4515 228.239 36.6055 240.119 40 252 c 0
 49 290 73 324 109 353 c 0
 143 380 189 393 244 393 c 0
 330.137 393 372.914 360.829 372.914 295.902 c 0
 372.914 283.191 371.274 269.225 368 254 c 2
 314 0 l 1
 266 0 l 1
 321 257 l 2
 323.431 269.154 324.713 280.323 324.713 290.573 c 0
 324.713 305.625 321.949 318.697 316 330 c 0
 307 349 280 358 236 358 c 0
 199 358 165 348 136 328 c 0
 107 307 88 281 81 250 c 0
206 258 m 0
 196 258 186 254 178 247 c 0
 171 240 166 232 164 223 c 0
 163.464 220.588 163.215 218.249 163.215 215.981 c 0
 163.215 209.785 165.072 204.124 168 199 c 0
 173 191 181 188 191 188 c 0
 203 188 213 191 219 198 c 0
 227 205 231 212 234 223 c 0
 234.536 225.679 234.785 228.215 234.785 230.608 c 0
 234.785 237.144 232.928 242.608 230 247 c 0
 226 254 218 258 206 258 c 0
EndSplineSet
EndChar
StartChar: uni0E15
Encoding: 181 3605 151
OldEncoding: 3605
Width: 414
Flags: W
HStem: 0 21G<50 97 266 314> 258 35<204 216>
DStem: 309 391 297 351 234 347 227 311 320 254 368 254 266 0 314 0
Fore
104 87 m 1
 115 104 128 119 139 131 c 0
 151 144 159 151 166 156 c 1
 150 160 141 170 134 182 c 0
 129.857 190.285 127.622 200 127.622 210.158 c 0
 127.622 214.712 128.071 219.356 129 224 c 0
 133 243 142 259 157 272 c 0
 173 286 193 293 214 293 c 0
 236 293 251 286 260 271 c 0
 266.515 261.879 269.635 251.908 269.635 240.536 c 0
 269.635 234.453 268.742 227.969 267 221 c 0
 265 210 261 201 256 193 c 0
 251 185 243 177 237 172 c 0
 230 166 221 159 214 151 c 0
 195 134 179 119 166 104 c 0
 152 89 139 73 127 56 c 0
 116 40 105 20 97 0 c 1
 50 0 l 1
 57 9 61 19 64 31 c 0
 64.899 35.9444 65.3939 42.101 65.3939 49.4699 c 0
 65.3939 58.4949 64.6515 69.3383 63 82 c 0
 63 90 59 105 53 128 c 0
 44 150 39 171 36 190 c 0
 35.2251 197.361 34.7505 204.872 34.7505 212.65 c 0
 34.7505 224.947 35.9371 237.911 39 252 c 0
 47 284 65 311 89 334 c 0
 115 358 145 377 179 391 c 1
 234 347 l 1
 309 391 l 1
 332 379 348 366 358 354 c 0
 368 341 373 328 374 313 c 0
 374.5 309.25 374.75 305.188 374.75 300.828 c 0
 374.75 287.75 372.5 272 368 254 c 2
 314 0 l 1
 266 0 l 1
 320 254 l 2
 324.5 273.5 326.75 289.062 326.75 301.531 c 0
 326.75 305.688 326.5 309.5 326 313 c 0
 323 327 313 339 297 351 c 1
 227 311 l 1
 227 312 220 316 208 327 c 0
 195 337 183 345 174 351 c 1
 121 327 90 292 80 245 c 0
 77.6667 235 76.4444 224.333 76.4444 213.074 c 0
 76.4444 190.556 81.3333 165.667 92 139 c 0
 99.6723 116.836 104.438 100.485 104.438 91.1869 c 0
 104.438 89.578 104.295 88.1802 104 87 c 1
206 258 m 0
 196 258 186 254 178 247 c 0
 171 240 166 232 164 223 c 0
 163.464 220.588 163.215 218.249 163.215 215.981 c 0
 163.215 209.785 165.072 204.124 168 199 c 0
 173 191 181 188 191 188 c 0
 203 188 213 191 220 198 c 0
 227 205 232 212 234 223 c 0
 234.633 226.166 234.966 229.132 234.966 231.897 c 0
 234.966 237.865 233.417 242.9 230 247 c 0
 226 254 218 258 206 258 c 0
EndSplineSet
EndChar
StartChar: uni0E16
Encoding: 182 3606 152
OldEncoding: 3606
Width: 410
Flags: W
HStem: -7 35<90 102> 0 21G<263 310> 97 35<109 123> 350 41<224 242>
DStem: 63 191 111 193 36 63 97 128 320 267 367 267 263 0 310 0
Fore
36 63 m 2
 63 191 l 2
 68 214 76 231 87 243 c 0
 98 254 111 263 124 269 c 1
 120 273 112 279 99 287 c 0
 86 295 68 301 47 302 c 1
 60 316 85 336 119 358 c 0
 153 380 193 391 240 391 c 0
 268 391 293 386 315 377 c 0
 336 368 353 355 362 336 c 0
 367.48 323.823 369.994 310.535 369.994 296.134 c 0
 369.994 286.882 368.956 277.17 367 267 c 2
 310 0 l 1
 263 0 l 1
 320 267 l 2
 321.333 272.667 322 278 322 283.074 c 0
 322 293.222 319.333 302.333 314 311 c 0
 308 323 298 333 283 340 c 0
 269 347 252 350 233 350 c 0
 192 350 154 338 120 313 c 1
 127 312 136 307 151 301 c 0
 166 294 178 284 189 271 c 1
 178 269 164 262 147 251 c 0
 129 240 117 220 111 193 c 2
 97 128 l 1
 101 131 109 132 121 132 c 0
 143 132 158 125 167 112 c 0
 172.613 102.178 175.764 91.3719 175.764 79.236 c 0
 175.764 74.0734 175.194 68.6703 174 63 c 0
 170 44 160 28 146 15 c 0
 131 0 114 -7 92 -7 c 0
 72 -7 56 0 46 12 c 0
 38.1562 21.27 33.8717 32.5739 33.8717 45.9116 c 0
 33.8717 51.2785 34.5654 56.9746 36 63 c 2
98 28 m 0
 110 28 120 32 126 38 c 0
 134 45 138 53 141 63 c 0
 141.236 65.1246 141.361 67.1935 141.361 69.2066 c 0
 141.361 75.7214 140.056 81.6525 137 87 c 0
 132 94 124 97 113 97 c 0
 103 97 93 94 86 87 c 0
 78 80 72 72 71 63 c 0
 70.1213 60.0711 69.7574 57.3137 69.7574 54.7028 c 0
 69.7574 48.3995 71.8787 42.9497 74 38 c 0
 80 32 88 28 98 28 c 0
EndSplineSet
EndChar
StartChar: uni0E17
Encoding: 183 3607 153
OldEncoding: 3607
Width: 455
Flags: W
HStem: 0 21G<74 122 307 355> 250 34<104 115> 341 43<350 363> 354 35<121 137>
DStem: 127 253 189 319 74 0 161 184 370 297 418 297 307 0 355 0
Fore
74 0 m 1
 127 253 l 1
 122 251 115 250 106 250 c 0
 84 250 68 257 59 271 c 0
 52.6262 280.915 49.2616 291.833 49.2616 304.109 c 0
 49.2616 309.167 49.8328 314.456 51 320 c 0
 55 339 65 355 80 368 c 0
 95 382 113 389 135 389 c 0
 149 389 160 385 169 380 c 0
 178 374 185 365 189 355 c 0
 190.5 350 191.25 344.25 191.25 338.125 c 0
 191.25 332 190.5 325.5 189 319 c 2
 161 184 l 1
 171 199 184 218 199 241 c 0
 214 264 230 287 250 310 c 0
 269 331 287 349 307 364 c 0
 326 377 344 384 363 384 c 0
 380 384 393 380 402 372 c 0
 410 363 415 351 419 339 c 0
 419.899 333.606 420.394 327.606 420.394 321.272 c 0
 420.394 313.515 419.652 305.258 418 297 c 2
 355 0 l 1
 307 0 l 1
 370 297 l 2
 371.5 304.5 372.25 311 372.25 316.531 c 0
 372.25 333.125 365.5 341 352 341 c 0
 339 341 323 330 300 306 c 0
 277 282 252 253 228 217 c 0
 202 180 179 142 161 104 c 0
 141 66 128 31 122 0 c 1
 74 0 l 1
128 354 m 0
 116 354 106 350 100 344 c 0
 92 337 88 329 85 319 c 0
 84.7639 316.875 84.6393 314.807 84.6393 312.793 c 0
 84.6393 306.279 85.9443 300.348 89 295 c 0
 93 287 101 284 113 284 c 0
 124 284 134 287 141 295 c 0
 148 302 154 310 155 319 c 0
 155.879 321.929 156.243 324.686 156.243 327.297 c 0
 156.243 333.601 154.121 339.05 152 344 c 0
 147 350 139 354 128 354 c 0
EndSplineSet
EndChar
StartChar: uni0E18
Encoding: 184 3608 154
OldEncoding: 3608
Width: 367
Flags: W
HStem: 0 41<18 201> 321 38<321 330> 356 35<175 203>
DStem: 110 245 157 245 66 41 113 41 253 189 300 188 228 73 276 73
Fore
119 323 m 1
 138 322 165 318 201 310 c 0
 238 302 266 286 288 264 c 0
 299 255 305 245 305 234 c 0
 305.438 231.589 305.637 228.937 305.637 226.066 c 0
 305.637 215.841 303.123 202.835 300 188 c 2
 276 73 l 2
 270 43 259 23 247 14 c 0
 235 5 210 0 177 0 c 2
 10 0 l 1
 19 41 l 1
 66 41 l 1
 110 245 l 1
 157 245 l 1
 113 41 l 1
 186 41 l 2
 201 41 212 43 217 47 c 0
 221 51 225 60 228 73 c 2
 253 189 l 2
 254.633 199.614 256.266 209.562 256.266 216.666 c 0
 256.266 218.263 256.184 219.715 256 221 c 0
 255 231 250 238 242 246 c 0
 226 261 204 272 175 280 c 0
 145 288 114 292 81 292 c 0
 72 292 58 290 44 289 c 1
 52 306 71 328 97 354 c 0
 123 379 155 391 195 391 c 0
 219 391 245 385 272 375 c 0
 299 365 317 359 328 359 c 0
 341 359 356 363 369 370 c 1
 379 337 l 1
 359 327 340 321 323 321 c 0
 313 321 300 323 287 328 c 0
 273 332 262 338 251 341 c 0
 241 345 230 348 221 351 c 0
 210 355 199 356 187 356 c 0
 167 356 152 351 142 344 c 0
 129 336 122 329 119 323 c 1
EndSplineSet
EndChar
StartChar: uni0E19
Encoding: 185 3609 155
OldEncoding: 3609
Width: 445
Flags: W
HStem: -8 39<321 339> 0 21G<75 123> 250 35<103 116> 354 35<122 138>
DStem: 128 253 190 319 75 0 138 73 302 130 350 130 282 35 332 43 356 384 404 384 310 167 358 166
Fore
75 0 m 1
 128 253 l 1
 123 251 116 250 107 250 c 0
 85 250 69 257 60 271 c 0
 53.6769 280.836 49.8218 291.659 49.8218 303.816 c 0
 49.8218 308.963 50.5128 314.349 52 320 c 0
 56 339 66 355 81 368 c 0
 96 382 114 389 136 389 c 0
 150 389 161 385 170 380 c 0
 179 374 186 365 190 355 c 0
 191.5 350 192.25 344.25 192.25 338.125 c 0
 192.25 332 191.5 325.5 190 319 c 2
 138 73 l 1
 186 124 244 156 310 167 c 1
 356 384 l 1
 404 384 l 1
 358 166 l 1
 380 163 397 155 406 140 c 0
 411.812 130.314 415.122 118.542 415.122 104.148 c 0
 415.122 96.251 414.125 87.5647 412 78 c 0
 406 50 395 29 378 15 c 0
 360 0 340 -8 321 -8 c 0
 307 -8 296 -5 289 3 c 0
 283.83 8.9089 280.842 15.9089 280.842 24.8059 c 0
 280.842 27.9545 281.216 31.3406 282 35 c 2
 302 130 l 1
 274 125 247 114 222 97 c 0
 197 80 176 62 160 45 c 0
 144 28 130 12 123 0 c 1
 75 0 l 1
129 354 m 0
 119 354 109 350 102 344 c 0
 93 337 88 329 87 320 c 0
 86 316.667 85.5556 313.556 85.5556 310.63 c 0
 85.5556 304.778 87.3333 299.667 90 295 c 0
 94 288 102 285 114 285 c 0
 125 285 135 288 142 295 c 0
 149 303 155 311 157 320 c 0
 157.172 321.544 157.255 323.059 157.255 324.544 c 0
 157.255 331.716 155.314 338.201 152 344 c 0
 147 350 139 354 129 354 c 0
332 43 m 2
 331.515 41.0589 331.265 39.3532 331.265 37.8831 c 0
 331.265 33.2944 333.698 31 339 31 c 0
 345 31 352 35 361 44 c 0
 369 53 374 64 377 78 c 0
 378.318 84.5891 379.009 90.6476 379.009 96.1224 c 0
 379.009 115.574 370.289 127.659 350 130 c 1
 332 43 l 2
EndSplineSet
EndChar
StartChar: uni0E1A
Encoding: 186 3610 156
OldEncoding: 3610
Width: 442
Flags: W
HStem: 0 41<35 285> 250 34<104 115> 354 35<123 137>
DStem: 127 253 189 319 82 41 130 41 377 384 424 384 311 73 358 73
Fore
82 41 m 1
 127 253 l 1
 122 251 115 250 106 250 c 0
 84 250 68 257 59 271 c 0
 52.6262 280.915 49.2616 291.833 49.2616 304.109 c 0
 49.2616 309.167 49.8328 314.456 51 320 c 0
 55 339 65 355 80 368 c 0
 95 382 113 389 135 389 c 0
 149 389 160 385 169 380 c 0
 178 374 185 365 189 355 c 0
 190.5 350 191.25 344.25 191.25 338.125 c 0
 191.25 332 190.5 325.5 189 319 c 2
 130 41 l 1
 269 41 l 2
 283 41 295 43 299 47 c 1
 303 51 308 60 311 73 c 2
 377 384 l 1
 424 384 l 1
 358 73 l 2
 352 43 343 23 330 14 c 0
 318 5 295 0 261 0 c 2
 28 0 l 1
 36 41 l 1
 82 41 l 1
128 354 m 0
 116 354 106 350 100 344 c 0
 92 337 88 329 85 319 c 0
 84.7639 316.875 84.6393 314.807 84.6393 312.793 c 0
 84.6393 306.279 85.9443 300.348 89 295 c 0
 93 287 101 284 113 284 c 0
 124 284 134 287 141 295 c 0
 148 302 154 310 155 319 c 0
 155.879 321.929 156.243 324.686 156.243 327.297 c 0
 156.243 333.601 154.121 339.05 152 344 c 0
 147 350 139 354 128 354 c 0
EndSplineSet
EndChar
StartChar: uni0E1B
Encoding: 187 3611 157
OldEncoding: 3611
Width: 442
Flags: W
HStem: 0 41<21 270> 250 35<88 101> 354 35<108 123>
DStem: 113 253 175 319 68 41 116 41 393 523 440 523 297 73 344 73
Fore
68 41 m 1
 113 253 l 1
 108 251 101 250 92 250 c 0
 70 250 54 257 45 271 c 0
 38.3667 281.318 34.4495 292.723 34.4495 305.615 c 0
 34.4495 310.215 34.9481 315.004 36 320 c 0
 40 339 51 355 66 368 c 0
 81 382 99 389 121 389 c 0
 135 389 146 385 155 380 c 0
 164 374 171 365 175 355 c 0
 176.5 350 177.25 344.25 177.25 338.125 c 0
 177.25 332 176.5 325.5 175 319 c 2
 116 41 l 1
 255 41 l 2
 269 41 281 43 284 47 c 1
 289 51 294 60 297 73 c 2
 393 523 l 1
 440 523 l 1
 344 73 l 2
 338 43 328 23 315 14 c 0
 303 5 280 0 246 0 c 2
 13 0 l 1
 22 41 l 1
 68 41 l 1
114 354 m 0
 104 354 94 350 87 344 c 0
 78 337 73 329 71 320 c 0
 70.4641 317.32 70.2154 314.785 70.2154 312.373 c 0
 70.2154 305.785 72.0718 300.124 75 295 c 0
 79 288 87 285 99 285 c 0
 110 285 120 288 127 295 c 0
 134 303 140 311 141 320 c 0
 141.536 322.412 141.785 324.751 141.785 327.019 c 0
 141.785 333.215 139.928 338.876 137 344 c 0
 132 350 124 354 114 354 c 0
EndSplineSet
EndChar
StartChar: uni0E1C
Encoding: 188 3612 158
OldEncoding: 3612
Width: 423
Flags: W
HStem: 0 21G<18 65 277 324> 250 34<138 149> 354 35<160 171>
DStem: 85 319 119 254 18 0 86 99 205 163 216 215 269 70 298 99 216 215 205 163 86 99 104 70 358 384 405 384 298 99 324 0
Fore
119 254 m 1
 86 99 l 1
 216 215 l 1
 298 99 l 1
 358 384 l 1
 405 384 l 1
 324 0 l 1
 277 0 l 1
 279.038 10.5321 280.038 20.0254 280.038 28.6367 c 0
 280.038 45.3717 276.263 58.7757 269 70 c 2
 205 163 l 1
 104 70 l 2
 84 53 71 29 65 0 c 1
 18 0 l 1
 85 319 l 2
 90 339 98 356 114 370 c 0
 129 382 147 389 169 389 c 0
 191 389 207 382 217 368 c 0
 223.374 358.793 226.738 348.082 226.738 335.866 c 0
 226.738 330.833 226.167 325.544 225 320 c 0
 221 301 211 284 196 270 c 0
 180 257 161 250 140 250 c 0
 133 250 126 251 119 254 c 1
147 284 m 0
 158 284 168 287 176 295 c 0
 183 303 189 311 190 319 c 0
 190.879 321.929 191.243 324.686 191.243 327.297 c 0
 191.243 333.601 189.121 339.05 187 344 c 0
 181 350 173 354 162 354 c 0
 152 354 141 350 134 344 c 0
 126 336 121 328 119 319 c 0
 118.764 317.111 118.639 315.223 118.639 313.334 c 0
 118.639 307.223 119.944 301.111 123 295 c 0
 128 287 137 284 147 284 c 0
EndSplineSet
EndChar
StartChar: uni0E1D
Encoding: 189 3613 159
OldEncoding: 3613
Width: 423
Flags: W
HStem: 0 21G<3 50 262 309> 250 35<124 135> 354 35<146 157>
DStem: 71 319 104 254 3 0 71 99 191 163 202 215 254 70 283 99 202 215 191 163 71 99 89 70 374 523 421 523 283 99 309 0
Fore
104 254 m 1
 71 99 l 1
 202 215 l 1
 283 99 l 1
 374 523 l 1
 421 523 l 1
 309 0 l 1
 262 0 l 1
 264.494 11.0468 265.719 20.9508 265.719 29.8929 c 0
 265.719 46.0444 261.724 59.0579 254 70 c 2
 191 163 l 1
 89 70 l 2
 70 53 57 29 50 0 c 1
 3 0 l 1
 71 319 l 2
 75 339 84 356 100 370 c 0
 115 382 133 389 155 389 c 0
 177 389 193 382 203 368 c 0
 209.079 359.219 211.964 349.07 211.964 337.552 c 0
 211.964 332.017 211.298 326.167 210 320 c 0
 206 301 197 284 182 270 c 0
 166 257 147 250 126 250 c 0
 119 250 112 251 104 254 c 1
133 285 m 0
 144 285 154 288 162 296 c 0
 169 303 175 311 176 320 c 0
 176.536 322.144 176.785 324.287 176.785 326.431 c 0
 176.785 332.287 174.928 338.144 172 344 c 0
 166 350 158 354 148 354 c 0
 138 354 127 350 121 344 c 0
 112 336 107 328 105 320 c 0
 104.764 317.875 104.639 315.807 104.639 313.793 c 0
 104.639 307.279 105.944 301.348 109 296 c 0
 114 288 123 285 133 285 c 0
EndSplineSet
EndChar
StartChar: uni0E1E
Encoding: 190 3614 160
OldEncoding: 3614
Width: 490
Flags: W
HStem: 0 21G<74 122 350 397> 250 35<102 115> 354 35<121 137>
DStem: 127 253 189 319 74 0 148 124 298 293 317 384 351 47 376 123 317 384 298 293 148 124 141 47 431 384 478 384 376 123 397 0
Fore
74 0 m 1
 127 253 l 1
 122 251 115 250 106 250 c 0
 84 250 68 257 59 271 c 0
 52.6262 280.915 49.2616 291.833 49.2616 304.109 c 0
 49.2616 309.167 49.8328 314.456 51 320 c 0
 55 339 65 355 80 368 c 0
 95 382 113 389 135 389 c 0
 149 389 160 385 169 380 c 0
 178 374 185 365 189 355 c 0
 190.5 350 191.25 344.25 191.25 338.125 c 0
 191.25 332 190.5 325.5 189 319 c 2
 148 124 l 1
 317 384 l 1
 376 123 l 1
 431 384 l 1
 478 384 l 1
 397 0 l 1
 350 0 l 1
 351 5 352 11 353 21 c 0
 353.191 23.1008 353.273 25.0922 353.273 26.9881 c 0
 353.273 35.0193 351.809 41.3369 351 47 c 2
 298 293 l 1
 141 47 l 2
 135 40 131 31 128 21 c 0
 125 11 124 5 122 0 c 1
 74 0 l 1
128 354 m 0
 118 354 108 350 101 344 c 0
 92 337 88 329 86 320 c 0
 85.3333 316.667 85 313.556 85 310.63 c 0
 85 304.778 86.3333 299.667 89 295 c 0
 93 288 101 285 113 285 c 0
 124 285 134 288 141 295 c 0
 148 303 154 311 156 320 c 0
 156.438 321.973 156.637 323.898 156.637 325.775 c 0
 156.637 332.46 154.123 338.535 151 344 c 0
 146 350 138 354 128 354 c 0
EndSplineSet
EndChar
StartChar: uni0E1F
Encoding: 191 3615 161
OldEncoding: 3615
Width: 490
Flags: W
HStem: 0 21G<59 107 335 382> 250 34<90 101> 354 35<107 123>
DStem: 113 253 175 319 59 0 134 124 284 293 303 384 336 47 362 123 303 384 284 293 134 124 126 47 447 523 494 523 362 123 382 0
Fore
59 0 m 1
 113 253 l 1
 108 251 101 250 92 250 c 0
 70 250 54 257 45 271 c 0
 38.3667 281.318 34.4495 292.723 34.4495 305.615 c 0
 34.4495 310.215 34.9481 315.004 36 320 c 0
 40 339 51 355 66 368 c 0
 81 382 99 389 121 389 c 0
 135 389 146 385 155 380 c 0
 164 374 171 365 175 355 c 0
 176.5 350 177.25 344.25 177.25 338.125 c 0
 177.25 332 176.5 325.5 175 319 c 2
 134 124 l 1
 303 384 l 1
 362 123 l 1
 447 523 l 1
 494 523 l 1
 382 0 l 1
 335 0 l 1
 336 5 338 11 339 21 c 0
 339.184 23.0185 339.266 24.9361 339.266 26.7649 c 0
 339.266 34.9024 337.633 41.2845 336 47 c 2
 284 293 l 1
 126 47 l 2
 121 40 117 31 114 21 c 0
 111 11 109 5 107 0 c 1
 59 0 l 1
114 354 m 0
 102 354 92 350 86 344 c 0
 78 337 73 329 71 319 c 0
 70.4641 316.588 70.2154 314.249 70.2154 311.981 c 0
 70.2154 305.785 72.0718 300.124 75 295 c 0
 78 287 87 284 99 284 c 0
 110 284 119 287 127 295 c 0
 134 302 139 310 141 319 c 0
 141.558 321.792 141.805 324.429 141.805 326.931 c 0
 141.805 333.39 140.162 338.955 138 344 c 0
 133 350 125 354 114 354 c 0
EndSplineSet
EndChar
StartChar: uni0E20
Encoding: 192 3616 162
OldEncoding: 3616
Width: 456
Flags: W
HStem: -7 35<44 55> 0 21G<310 357> 97 35<66 77> 350 41<277 295>
DStem: 111 191 158 193 97 128 130 61 367 267 414 267 310 0 357 0
Fore
97 128 m 1
 111 191 l 2
 114 206 119 219 126 231 c 0
 131 241 139 250 146 255 c 0
 155 261 164 266 172 269 c 1
 167 273 158 279 145 287 c 0
 133 295 115 301 93 302 c 1
 106 316 132 336 166 358 c 0
 202 380 241 391 287 391 c 0
 331 391 367 381 390 359 c 0
 408 343.25 417 321.875 417 295.297 c 0
 417 286.438 416 277 414 267 c 2
 357 0 l 1
 310 0 l 1
 367 267 l 2
 368.489 273.329 369.285 279.242 369.285 284.842 c 0
 369.285 294.285 367.022 302.84 362 311 c 0
 356 323 345 333 330 340 c 0
 317 347 300 350 280 350 c 0
 240 350 202 338 167 313 c 1
 174 312 183 307 198 301 c 0
 213 294 226 284 236 271 c 1
 225 269 212 262 195 251 c 0
 176 240 164 220 158 193 c 2
 130 61 l 2
 126 42 118 26 102 14 c 0
 87 0 68 -7 46 -7 c 0
 25 -7 10 0 0 14 c 0
 -6.37384 23.2067 -9.73835 34.4195 -9.73835 46.9282 c 0
 -9.73835 52.082 -9.16718 57.4559 -8 63 c 0
 -4 82 5 98 20 112 c 0
 36 125 54 132 75 132 c 0
 85 132 92 131 97 128 c 1
53 28 m 0
 64 28 74 32 82 38 c 0
 90 45 94 53 97 63 c 0
 97.2361 65.1246 97.3607 67.1935 97.3607 69.2066 c 0
 97.3607 75.7214 96.0557 81.6525 93 87 c 0
 87 94 79 97 68 97 c 0
 58 97 48 94 41 87 c 0
 32 79 27 71 26 63 c 0
 25.3944 60.275 25.0639 57.6417 25.0639 55.1278 c 0
 25.0639 49.3389 26.8167 44.1833 31 40 c 0
 35 32 43 28 53 28 c 0
EndSplineSet
EndChar
StartChar: uni0E21
Encoding: 193 3617 163
OldEncoding: 3617
Width: 440
Flags: W
HStem: -7 40<66 75> 0 21G<293 341> 250 34<114 125> 354 35<135 147>
DStem: 111 132 159 130 94 52 144 59 137 253 199 319 119 167 167 167 375 384 423 384 310 80 341 0
Fore
119 167 m 1
 137 253 l 1
 132 251 125 250 116 250 c 0
 94 250 78 257 69 270 c 0
 62.6262 279.915 59.2616 291.334 59.2616 303.903 c 0
 59.2616 309.082 59.8328 314.456 61 320 c 0
 65 339 75 355 90 368 c 0
 105 382 123 389 145 389 c 0
 158 389 170 385 179 380 c 0
 188 374 195 365 199 355 c 0
 200.859 350.352 201.638 345.056 201.638 339.412 c 0
 201.638 332.915 200.606 325.957 199 319 c 2
 167 167 l 1
 191 165 213 158 233 149 c 0
 253 139 271 129 283 116 c 0
 296 103 306 90 310 80 c 1
 375 384 l 1
 423 384 l 1
 341 0 l 1
 293 0 l 1
 294.016 3.8105 294.516 7.75006 294.516 11.8187 c 0
 294.516 23.7662 290.206 36.8266 282 51 c 0
 271 70 255 88 233 103 c 0
 211 118 186 127 159 130 c 1
 144 59 l 2
 139 38 130 23 118 11 c 0
 104 -1 87 -7 66 -7 c 0
 44 -7 28 1 18 18 c 0
 12.6667 28.6667 9.55556 40.6667 9.55556 54.2963 c 0
 9.55556 61.1111 10.3333 68.3333 12 76 c 0
 16 99 29 121 48 139 c 0
 66 156 91 166 119 167 c 1
56 43 m 0
 60 36 65 33 73 33 c 0
 85 33 92 40 94 52 c 2
 111 132 l 1
 95 132 82 127 72 116 c 0
 62 105 55 93 52 78 c 0
 50.8131 72.0653 50.0957 66.6003 50.0957 61.6668 c 0
 50.0957 54.1307 51.7695 47.8349 56 43 c 0
138 354 m 0
 128 354 118 350 110 344 c 0
 102 336 97 328 95 319 c 0
 94.7639 317.111 94.6393 315.223 94.6393 313.334 c 0
 94.6393 307.223 95.9443 301.111 99 295 c 0
 104 287 113 284 123 284 c 0
 134 284 143 287 151 295 c 0
 158 302 163 310 165 319 c 0
 165.558 321.792 165.805 324.429 165.805 326.931 c 0
 165.805 333.39 164.162 338.955 162 344 c 0
 157 350 149 354 138 354 c 0
EndSplineSet
EndChar
StartChar: uni0E22
Encoding: 194 3618 164
OldEncoding: 3618
Width: 393
Flags: W
HStem: 0 41<64 233> 160 42<161 175> 259 34<150 160> 358 33<166 183>
VStem: 200 35<331 341>
DStem: 28 94 75 94 8 0 64 41 327 384 374 384 261 73 308 73
Fore
110 182 m 1
 88 190 73 202 65 220 c 0
 59.5205 230.959 57.0064 243.03 57.0064 255.536 c 0
 57.0064 263.571 58.0442 271.786 60 280 c 0
 66 308 80 334 104 357 c 0
 127 380 153 391 181 391 c 0
 202 391 216 384 227 372 c 0
 232.333 362.667 235 352.444 235 341.333 c 0
 235 335.778 234.333 330 233 324 c 0
 229 306 220 290 207 278 c 0
 191 266 172 259 152 259 c 0
 137 259 127 261 120 267 c 0
 113 272 109 277 107 280 c 1
 105.343 272.819 104.525 266.096 104.525 259.851 c 0
 104.525 243.486 110.143 230.409 121 221 c 0
 136 209 154 202 175 202 c 1
 166 160 l 1
 141 160 121 155 107 142 c 0
 90 130 80 114 75 94 c 2
 64 41 l 1
 219 41 l 2
 234 41 245 43 249 47 c 0
 254 51 258 60 261 73 c 2
 327 384 l 1
 374 384 l 1
 308 73 l 2
 302 43 292 23 280 14 c 0
 267 5 243 0 210 0 c 2
 8 0 l 1
 28 94 l 2
 32 113 39 128 47 140 c 0
 55 151 64 160 74 166 c 0
 83 172 91 176 97 179 c 0
 103 180 108 181 110 182 c 1
160 293 m 0
 181 294 195 304 200 325 c 0
 200.333 328 200.556 330.889 200.556 333.667 c 0
 200.556 339.222 199.667 344.333 197 349 c 0
 192 355 184 358 174 358 c 0
 164 358 155 355 148 349 c 0
 141 342 135 334 134 325 c 0
 133.464 323.124 133.215 321.177 133.215 319.196 c 0
 133.215 313.785 135.072 308.124 138 303 c 0
 142 296 150 293 160 293 c 0
EndSplineSet
EndChar
StartChar: uni0E23
Encoding: 195 3619 165
OldEncoding: 3619
Width: 353
Flags: W
HStem: -7 35<170 181> 97 35<185 201> 319 41<313 326> 328 21G<123 123> 354 37<178 201>
DStem: 234 186 281 189 222 129 254 61
Fore
281 189 m 2
 254 61 l 2
 250 40 239 24 224 11 c 0
 209 -1 191 -7 172 -7 c 0
 150 -7 134 0 125 15 c 0
 117.77 24.3992 114.722 35.3667 114.722 47.5244 c 0
 114.722 52.182 115.169 57.0143 116 62 c 0
 120 81 130 97 146 112 c 0
 161 125 178 132 199 132 c 0
 204 132 212 131 222 129 c 1
 234 186 l 2
 237.056 201.279 238.361 213.639 238.361 223.974 c 0
 238.361 227.167 238.236 230.167 238 233 c 0
 236 244 231 252 223 258 c 0
 215 262 202 267 187 271 c 0
 159 279 134 285 107 289 c 0
 81 294 60 297 47 299 c 1
 66 325 91 347 116 365 c 0
 141 382 167 391 195 391 c 0
 209 391 223 390 233 388 c 0
 243 384 255 381 268 375 c 0
 282 370 292 366 300 364 c 0
 307 362 316 360 324 360 c 0
 338 360 352 364 366 370 c 1
 366 330 l 1
 346 322 328 319 313 319 c 0
 302 319 293 320 287 322 c 0
 279 324 269 329 254 336 c 0
 238 341 225 346 216 349 c 0
 207 353 197 354 187 354 c 0
 174 354 162 350 148 345 c 0
 134 338 125 332 123 328 c 1
 123 328 l 1
 123 328 156 319 223 302 c 0
 258 294 278 281 284 264 c 0
 286.571 256.714 287.857 248.143 287.857 238.05 c 0
 287.857 224.592 285.571 208.429 281 189 c 2
179 28 m 0
 190 28 200 32 207 38 c 0
 214 45 219 53 222 63 c 0
 222.177 64.5941 222.26 66.1569 222.26 67.6882 c 0
 222.26 74.8026 220.469 81.2399 218 87 c 0
 213 94 205 97 194 97 c 0
 183 97 173 94 167 87 c 0
 158 79 153 71 152 63 c 0
 151.394 60.275 151.064 57.6417 151.064 55.1278 c 0
 151.064 49.3389 152.817 44.1833 157 40 c 0
 160 32 168 28 179 28 c 0
EndSplineSet
EndChar
StartChar: uni0E24
Encoding: 196 3620 166
OldEncoding: 3620
Width: 410
Flags: W
HStem: -7 35<110 123> 97 35<130 144> 350 41<239 263>
VStem: 161 35<69 81>
DStem: 83 191 132 193 56 63 118 128 340 267 387 267 241 -200 288 -200
Fore
56 63 m 2
 83 191 l 2
 88 214 97 231 107 243 c 0
 119 254 132 263 145 269 c 1
 141 273 133 279 120 287 c 0
 106 295 89 301 68 302 c 1
 81 316 105 336 140 358 c 0
 173 380 214 391 261 391 c 0
 289 391 314 386 336 377 c 0
 357 368 373 355 382 336 c 0
 387.949 324.103 390.713 311.143 390.713 297.123 c 0
 390.713 287.574 389.431 277.533 387 267 c 2
 288 -200 l 1
 241 -200 l 1
 340 267 l 2
 341.373 272.833 342.039 278.314 342.039 283.522 c 0
 342.039 293.49 339.598 302.461 335 311 c 0
 328 323 318 333 304 340 c 0
 289 347 272 350 253 350 c 0
 212 350 175 338 140 313 c 1
 147 312 157 307 172 301 c 0
 186 294 198 284 209 271 c 1
 199 269 184 262 167 251 c 0
 150 240 137 220 132 193 c 2
 118 128 l 1
 122 131 130 132 142 132 c 0
 164 132 178 125 188 112 c 0
 193.333 102.667 196 92.4444 196 81.037 c 0
 196 75.3333 195.333 69.3333 194 63 c 0
 190 44 181 28 167 15 c 0
 152 0 134 -7 112 -7 c 0
 92 -7 77 0 66 12 c 0
 58.0812 21.3586 54.3083 32.7901 54.3084 46.2946 c 0
 54.3084 51.5492 54.8796 57.1177 56 63 c 2
119 28 m 0
 131 28 141 32 147 38 c 0
 154 45 159 53 161 63 c 0
 161.633 65.8496 161.966 68.599 161.966 71.2481 c 0
 161.966 76.9657 160.417 82.2164 157 87 c 0
 153 94 144 97 133 97 c 0
 123 97 114 94 106 87 c 0
 99 80 93 72 91 63 c 0
 90.4641 60.3205 90.2154 57.7846 90.2154 55.3731 c 0
 90.2154 48.7846 92.0718 43.1244 95 38 c 0
 101 32 109 28 119 28 c 0
EndSplineSet
EndChar
StartChar: uni0E25
Encoding: 197 3621 167
OldEncoding: 3621
Width: 395
Flags: W
HStem: -7 34<88 99> 0 21G<248 296> 97 35<110 121> 243 39<157 166> 354 37<206 236>
DStem: 304 264 352 264 276 132 296 0
Fore
157 243 m 1
 123 240 101 211 90 158 c 0
 88 148 86 137 84 123 c 1
 87 124 90 127 97 129 c 0
 102 131 109 132 119 132 c 0
 141 132 157 125 166 112 c 0
 172.374 102.085 175.738 91.1672 175.738 78.8909 c 0
 175.738 73.8328 175.167 68.5441 174 63 c 0
 169 43 160 26 145 14 c 0
 130 0 112 -7 90 -7 c 0
 69 -7 53 0 43 15 c 0
 35.5214 26.6333 31.4953 39.6476 31.4953 54.6166 c 0
 31.4953 57.6619 31.6619 60.7881 32 64 c 0
 33 90 38 123 47 160 c 0
 54 194 70 223 88 244 c 0
 108 267 129 279 158 282 c 1
 189 282 211 272 229 253 c 0
 246 233 258 209 265 183 c 0
 271 156 275 139 276 132 c 1
 304 264 l 2
 305.636 271.909 306.455 279.223 306.455 286.003 c 0
 306.455 304.083 300.636 318.364 289 330 c 0
 274 346 249 354 218 354 c 0
 167 354 123 333 84 293 c 1
 59 316 l 1
 75 336 97 353 129 368 c 0
 160 383 192 391 228 391 c 0
 273 391 307 380 330 358 c 0
 347.308 342.855 355.775 321.989 355.775 296.153 c 0
 355.775 286.164 354.509 275.432 352 264 c 2
 296 0 l 1
 248 0 l 1
 249.652 7.70714 250.394 17.2327 250.394 28.7434 c 0
 250.394 38.1418 249.899 48.8638 249 61 c 0
 247 87 242 115 234 144 c 0
 227 172 216 195 203 215 c 0
 190 234 174 243 157 243 c 1
112 97 m 0
 102 97 92 94 84 87 c 0
 77 80 71 72 69 62 c 0
 68.5492 59.9714 68.3524 57.9935 68.3524 56.0665 c 0
 68.3524 49.4444 70.6762 43.4222 73 38 c 0
 79 31 87 27 97 27 c 0
 109 27 119 31 125 38 c 0
 133 45 137 53 139 62 c 0
 139.667 65.3333 140 68.4444 140 71.3704 c 0
 140 77.2222 138.667 82.3333 136 87 c 0
 132 94 124 97 112 97 c 0
EndSplineSet
EndChar
StartChar: uni0E26
Encoding: 198 3622 168
OldEncoding: 3622
Width: 456
Flags: W
HStem: -7 35<65 76> 97 35<86 98> 350 41<286 315>
DStem: 131 191 179 193 118 128 151 61 387 267 434 267 288 -200 335 -200
Fore
118 128 m 1
 131 191 l 2
 134 206 139 219 147 231 c 0
 152 241 160 250 167 255 c 0
 175 261 184 266 193 269 c 1
 188 273 179 279 166 287 c 0
 153 295 136 301 114 302 c 1
 127 316 152 336 187 358 c 0
 222 380 262 391 308 391 c 0
 352 391 388 381 411 359 c 0
 428.597 343.603 437.592 322.83 437.592 297.075 c 0
 437.592 287.703 436.401 277.672 434 267 c 2
 335 -200 l 1
 288 -200 l 1
 387 267 l 2
 388.541 273.548 389.34 279.651 389.34 285.423 c 0
 389.34 294.636 387.304 303.007 383 311 c 0
 376 323 365 333 351 340 c 0
 337 347 320 350 300 350 c 0
 260 350 223 338 187 313 c 1
 194 312 204 307 219 301 c 0
 233 294 246 284 256 271 c 1
 246 269 232 262 215 251 c 0
 197 240 184 220 179 193 c 2
 151 61 l 2
 147 42 138 26 123 14 c 0
 108 0 88 -7 66 -7 c 0
 45 -7 31 0 21 14 c 0
 13.8571 23.2857 10.2857 34.6122 10.2857 47.2507 c 0
 10.2857 52.3061 10.8571 57.5714 12 63 c 0
 16 82 26 98 41 112 c 0
 56 125 75 132 96 132 c 0
 106 132 113 131 118 128 c 1
74 28 m 0
 85 28 95 32 103 38 c 0
 110 45 115 53 117 63 c 0
 117.633 65.8496 117.966 68.599 117.966 71.2481 c 0
 117.966 76.9657 116.417 82.2164 113 87 c 0
 108 94 99 97 88 97 c 0
 78 97 69 94 61 87 c 0
 52 79 48 71 46 63 c 0
 45.3944 60.275 45.0639 57.6417 45.0639 55.1278 c 0
 45.0639 49.3389 46.8167 44.1833 51 40 c 0
 56 32 64 28 74 28 c 0
EndSplineSet
EndChar
StartChar: uni0E27
Encoding: 199 3623 169
OldEncoding: 3623
Width: 375
Flags: W
HStem: -7 35<202 213> 97 35<220 235> 354 37<188 213>
DStem: 284 264 330 264 256 129 288 63
Fore
330 264 m 2
 288 63 l 2
 284 44 275 28 261 15 c 0
 248 0 229 -7 205 -7 c 0
 184 -7 168 0 159 14 c 0
 151.857 23.2857 148.286 34.6122 148.286 47.2507 c 0
 148.286 52.3061 148.857 57.5714 150 63 c 0
 154 82 163 98 178 112 c 0
 193 125 211 132 233 132 c 0
 240 132 248 131 256 129 c 1
 284 264 l 2
 285.8 272.7 286.7 280.86 286.7 288.426 c 0
 286.7 306.08 281.8 320.5 272 331 c 0
 256 347 232 354 201 354 c 0
 175 354 151 347 126 334 c 0
 104 322 84 306 70 289 c 1
 45 313 l 1
 56 327 69 339 87 351 c 0
 103 363 122 372 144 380 c 0
 166 388 188 391 209 391 c 0
 253 391 287 380 310 357 c 0
 326.233 342.179 333.998 321.878 333.998 297.153 c 0
 333.998 286.846 332.648 275.769 330 264 c 2
226 97 m 0
 216 97 206 94 199 87 c 0
 191 79 185 71 184 63 c 0
 183.464 60.5885 183.215 58.2487 183.215 56 c 0
 183.215 49.8564 185.072 44.3923 188 40 c 0
 193 32 201 28 211 28 c 0
 223 28 233 32 239 38 c 0
 247 45 251 53 254 63 c 0
 254.236 65.1246 254.361 67.1935 254.361 69.2066 c 0
 254.361 75.7214 253.056 81.6525 250 87 c 0
 246 94 238 97 226 97 c 0
EndSplineSet
EndChar
StartChar: uni0E28
Encoding: 200 3624 170
OldEncoding: 3624
Width: 414
Flags: W
HStem: 0 21G<54 101 265 313> 160 34<175 186> 264 35<194 208> 356 37<211 244>
DStem: 68 69 138 174 54 0 101 0 319 257 368 261 265 0 313 0
Fore
352 349 m 1
 356 354 363 362 370 373 c 0
 378 383 385 394 392 408 c 1
 430 386 l 1
 421 371 412 356 400 344 c 0
 386 330 375 320 368 314 c 1
 370.362 306.44 371.385 298.434 371.385 290.087 c 0
 371.385 280.768 370.11 271.023 368 261 c 2
 313 0 l 1
 265 0 l 1
 319 257 l 2
 321 267 322 275 322 281 c 1
 317 278 306 272 293 266 c 0
 281 259 271 254 262 252 c 1
 262.333 251 262.444 249.889 262.444 248.741 c 0
 262.444 246.444 262 244 262 242 c 0
 262 237 261 232 260 226 c 0
 256 207 246 192 230 180 c 0
 215 167 197 160 177 160 c 0
 158 160 145 165 138 174 c 1
 101 0 l 1
 54 0 l 1
 68 69 l 2
 70.4222 79.2944 71.7443 88.8554 71.7443 97.683 c 0
 71.7443 103.433 71.1833 108.872 70 114 c 0
 68 127 62 142 53 162 c 0
 45 181 41 197 37 210 c 0
 36.1716 215.385 35.6863 221.113 35.6863 227.326 c 0
 35.6863 236.113 36.6569 245.87 39 257 c 0
 45 286 59 311 78 331 c 0
 99 353 122 367 150 377 c 0
 177 388 205 393 233 393 c 0
 286 393 326 379 352 349 c 1
312 313 m 1
 309 321 300 330 287 340 c 0
 273 350 252 356 225 356 c 0
 208 356 190 353 171 347 c 0
 152 340 133 329 117 314 c 0
 100 298 91 278 86 254 c 0
 84.6905 248.326 83.9526 242.08 83.9526 235.428 c 0
 83.9526 226.842 85.1825 217.58 88 208 c 0
 92 191 93 177 94 167 c 1
 102 203 l 2
 108 232 119 254 137 272 c 0
 156 290 179 299 206 299 c 0
 217 299 226 298 232 296 c 0
 238 293 243 289 246 285 c 0
 250 281 252 279 252 279 c 1
 260 281 270 286 282 293 c 0
 293 299 304 306 312 313 c 1
199 264 m 0
 188 264 178 261 171 254 c 0
 164 247 159 240 156 229 c 0
 155.549 226.971 155.352 224.994 155.352 223.078 c 0
 155.352 216.495 157.676 210.648 160 206 c 0
 165 198 173 194 184 194 c 0
 196 194 206 198 212 206 c 0
 220 212 224 220 226 229 c 0
 227 232.667 227.444 235.889 227.444 238.815 c 0
 227.444 244.667 225.667 249.333 223 254 c 0
 219 261 211 264 199 264 c 0
EndSplineSet
EndChar
StartChar: uni0E29
Encoding: 201 3625 171
OldEncoding: 3625
Width: 454
Flags: W
HStem: 0 41<35 284> 139 35<294 317.527> 246 30<259 271> 250 34<104 115> 354 35<123 137>
DStem: 127 253 189 319 82 41 130 41 326 141 376 156 311 73 358 73 377 384 424 384 333 175 384 193
Fore
376 156 m 1
 358 73 l 2
 352 43 343 23 330 14 c 0
 318 5 295 0 261 0 c 2
 28 0 l 1
 36 41 l 1
 82 41 l 1
 127 253 l 1
 122 251 115 250 106 250 c 0
 84 250 68 257 59 271 c 0
 52.6262 280.915 49.2616 291.833 49.2616 304.109 c 0
 49.2616 309.167 49.8328 314.456 51 320 c 0
 55 339 65 355 80 368 c 0
 95 382 113 389 135 389 c 0
 149 389 160 385 169 380 c 0
 178 374 185 365 189 355 c 0
 190.5 350 191.25 344.25 191.25 338.125 c 0
 191.25 332 190.5 325.5 189 319 c 2
 130 41 l 1
 269 41 l 2
 283 41 295 43 299 47 c 1
 303 51 308 60 311 73 c 2
 326 141 l 1
 319 140 309 139 294 139 c 0
 265 140 241 146 219 157 c 0
 201.164 165.918 193.844 180.752 193.844 200.436 c 0
 193.844 205.031 194.243 209.89 195 215 c 0
 198 229 206 244 219 257 c 0
 232 269 248 276 269 276 c 0
 290 276 305 270 313 259 c 0
 318.668 249.79 321.324 240.077 321.324 229.507 c 0
 321.324 225.158 320.875 220.664 320 216 c 0
 316 197 308 183 293 174 c 1
 307 174 320 174 333 175 c 1
 377 384 l 1
 424 384 l 1
 384 193 l 1
 393 199 402 208 412 220 c 0
 423 232 430 249 435 271 c 1
 473 271 l 1
 466 238 455 214 437 198 c 0
 421 183 399 168 376 156 c 1
250 185 m 0
 256 185 261 186 268 190 c 0
 273 193 278 197 280 201 c 0
 283 206 285 210 287 216 c 0
 287.333 219 287.556 221.778 287.556 224.333 c 0
 287.556 229.444 286.667 233.667 284 237 c 0
 279 243 273 246 263 246 c 0
 253 246 245 243 238 237 c 0
 232 232 227 224 226 216 c 0
 225.333 213.333 225 210.778 225 208.296 c 0
 225 203.333 226.333 198.667 229 194 c 0
 234 189 240 185 250 185 c 0
128 354 m 0
 116 354 106 350 100 344 c 0
 92 337 88 329 85 319 c 0
 84.7639 316.875 84.6393 314.807 84.6393 312.793 c 0
 84.6393 306.279 85.9443 300.348 89 295 c 0
 93 287 101 284 113 284 c 0
 124 284 134 287 141 295 c 0
 148 302 154 310 155 319 c 0
 155.879 321.929 156.243 324.686 156.243 327.297 c 0
 156.243 333.601 154.121 339.05 152 344 c 0
 147 350 139 354 128 354 c 0
EndSplineSet
EndChar
StartChar: uni0E2A
Encoding: 202 3626 172
OldEncoding: 3626
Width: 395
Flags: W
HStem: -7 34<85 96> 0 21G<245 293> 97 35<106 118> 243 39<153 163> 354 37<203 232>
DStem: 301 264 349 264 273 132 293 0
Fore
108 97 m 0
 98 97 89 94 80 87 c 0
 74 80 68 72 66 62 c 0
 65.4641 59.5885 65.2154 57.2487 65.2154 54.9808 c 0
 65.2154 48.7846 67.0718 43.1244 70 38 c 0
 75 31 84 27 94 27 c 0
 106 27 115 31 122 38 c 0
 129 45 134 53 136 62 c 0
 136.633 65.1662 136.966 68.132 136.966 70.929 c 0
 136.966 76.9657 135.417 82.2164 132 87 c 0
 129 94 120 97 108 97 c 0
299 311 m 1
 298 307 289 296 269 276 c 0
 251 257 241 244 240 241 c 1
 247 231 253 217 258 202 c 0
 263 188 265 174 268 162 c 0
 269 149 271 139 273 132 c 1
 301 264 l 2
 302.67 271.096 303.468 277.844 303.468 284.389 c 0
 303.468 293.523 301.913 302.261 299 311 c 1
225 268 m 2
 227 268 236 279 256 301 c 0
 275 322 284 332 284 332 c 1
 271 347 247 354 215 354 c 0
 164 354 120 333 81 293 c 1
 56 316 l 1
 71 336 94 353 126 368 c 0
 156 383 189 391 225 391 c 0
 259 391 287 384 311 371 c 0
 313 371 322 380 336 397 c 0
 351 414 361 423 365 423 c 0
 365 421 369 419 374 416 c 0
 380 411 384 407 389 403 c 0
 392.876 400.674 394.348 398.348 394.348 395.557 c 0
 394.348 394.747 394.225 393.899 394 393 c 1
 387 386 377 376 362 363 c 0
 346 350 340 344 339 342 c 0
 347.737 328.559 352.408 312.409 352.408 293.548 c 0
 352.408 284.344 351.296 274.495 349 264 c 2
 293 0 l 1
 245 0 l 1
 246.652 7.70714 247.394 17.2327 247.394 28.7434 c 0
 247.394 38.1418 246.899 48.8638 246 61 c 0
 243 87 238 115 230 144 c 0
 223 172 212 195 199 215 c 0
 187 234 170 243 153 243 c 1
 120 240 98 211 86 158 c 0
 84 148 83 137 81 123 c 1
 83 124 87 127 93 129 c 0
 99 131 106 132 116 132 c 0
 138 132 153 125 163 112 c 0
 169.079 102.544 171.964 92.1751 171.964 80.5858 c 0
 171.964 75.0171 171.298 69.1665 170 63 c 0
 166 43 156 26 142 14 c 0
 127 0 108 -7 86 -7 c 0
 65 -7 50 0 40 15 c 0
 32.3277 26.9347 27.5623 40.3229 27.5623 55.784 c 0
 27.5623 58.4595 27.705 61.1971 28 64 c 0
 30 90 35 123 44 160 c 0
 51 194 66 223 85 244 c 0
 105 267 126 279 155 282 c 1
 179 282 195 279 204 273 c 1
 204 273 206 273 209 272 c 0
 212 271 216 271 220 270 c 0
 223 269 225 268 225 268 c 2
EndSplineSet
EndChar
StartChar: uni0E2B
Encoding: 203 3627 173
OldEncoding: 3627
Width: 454
Flags: W
HStem: 0 21G<74 122 308 355> 250 34<104 115> 354 35<121 137 354 370>
DStem: 127 253 189 319 74 0 152 144 346 182 393 182 308 0 355 0
Fore
74 0 m 1
 127 253 l 1
 122 251 115 250 106 250 c 0
 84 250 68 257 59 271 c 0
 52.6262 280.915 49.2616 291.833 49.2616 304.109 c 0
 49.2616 309.167 49.8328 314.456 51 320 c 0
 55 339 65 355 80 368 c 0
 95 382 113 389 135 389 c 0
 149 389 160 385 169 380 c 0
 178 374 185 365 189 355 c 0
 190.5 350 191.25 344.25 191.25 338.125 c 0
 191.25 332 190.5 325.5 189 319 c 2
 152 144 l 1
 172 176 196 201 227 223 c 0
 256 243 279 258 295 264 c 1
 284.545 273.708 279.109 286.205 279.109 301.907 c 0
 279.109 307.231 279.734 312.923 281 319 c 0
 286 338 296 354 312 368 c 0
 327 382 346 389 368 389 c 0
 390 389 406 382 416 368 c 0
 422.374 358.793 425.738 348.082 425.738 335.866 c 0
 425.738 330.833 425.167 325.544 424 320 c 0
 421 307 415 296 407 285 c 0
 398 273 387 264 374 259 c 1
 379 257 386 250 391 237 c 0
 394.902 230.868 396.94 222.561 396.94 211.906 c 0
 396.94 203.446 395.655 193.507 393 182 c 2
 355 0 l 1
 308 0 l 1
 346 182 l 2
 348.386 192.022 349.634 200.677 349.634 207.966 c 0
 349.634 215.95 348.137 222.295 345 227 c 0
 339 235 334 241 329 243 c 1
 275 218 230 183 193 139 c 0
 155 95 133 53 125 15 c 2
 122 0 l 1
 74 0 l 1
361 355 m 0
 350 355 340 351 334 345 c 0
 326 338 321 330 319 320 c 0
 318.394 317.275 318.064 314.642 318.064 312.1 c 0
 318.064 306.247 319.817 300.881 324 296 c 0
 327 288 335 285 346 285 c 0
 357 285 367 288 375 296 c 0
 381 303 387 311 389 320 c 0
 389.536 322.68 389.785 325.215 389.785 327.627 c 0
 389.785 334.215 387.928 339.876 385 345 c 0
 380 351 372 355 361 355 c 0
128 354 m 0
 116 354 106 350 100 344 c 0
 92 337 88 329 85 319 c 0
 84.7639 316.875 84.6393 314.807 84.6393 312.793 c 0
 84.6393 306.279 85.9443 300.348 89 295 c 0
 93 287 101 284 113 284 c 0
 124 284 134 287 141 295 c 0
 148 302 154 310 155 319 c 0
 155.879 321.929 156.243 324.686 156.243 327.297 c 0
 156.243 333.601 154.121 339.05 152 344 c 0
 147 350 139 354 128 354 c 0
EndSplineSet
EndChar
StartChar: uni0E2C
Encoding: 204 3628 174
OldEncoding: 3628
Width: 490
Flags: W
HStem: 0 21G<68 116 337 385> 250 34<98 109> 321 33<394 405> 354 35<116 130> 412 31<412 424>
DStem: 122 253 184 319 68 0 142 123 287 271 307 367 340 47 363 123 307 367 287 271 142 123 135 47 405 321 455 330 363 123 385 0
Fore
68 0 m 1
 122 253 l 1
 116 251 109 250 100 250 c 0
 78 250 63 257 54 271 c 0
 46.8571 281 43.2857 292.02 43.2857 304.426 c 0
 43.2857 309.388 43.8571 314.571 45 320 c 0
 49 339 59 355 74 368 c 0
 89 382 108 389 130 389 c 0
 144 389 155 385 164 380 c 0
 172 374 180 365 183 355 c 0
 184.652 349.495 185.394 343.081 185.394 336.258 c 0
 185.394 330.687 184.899 324.843 184 319 c 2
 142 123 l 1
 307 367 l 1
 363 123 l 1
 405 321 l 1
 381 321 364 327 355 339 c 0
 348.921 346.43 346.036 355.685 346.036 366.764 c 0
 346.036 372.088 346.702 377.833 348 384 c 0
 351 401 360 415 374 426 c 0
 390 437 405 443 424 443 c 0
 441 443 454 437 462 425 c 0
 468.079 416.219 470.964 406.526 470.964 394.996 c 0
 470.964 389.456 470.298 383.491 469 377 c 1
 476 380 484 385 495 394 c 0
 506 403 514 416 523 432 c 1
 551 412 l 1
 540 391 525 374 505 359 c 0
 485 345 468 334 455 330 c 1
 385 0 l 1
 337 0 l 2
 336.707 0 336.586 0.257359 336.586 0.772078 c 0
 336.586 2.01472 337.293 4.75736 338 9 c 0
 339 15 339 21 340 29 c 0
 340.5 33 340.75 36.75 340.75 39.875 c 0
 340.75 43 340.5 45.5 340 47 c 2
 287 271 l 1
 135 47 l 2
 129 40 126 32 123 23 c 0
 119 12 118 5 116 0 c 1
 68 0 l 1
122 354 m 0
 110 354 100 350 94 344 c 0
 87 337 82 329 80 319 c 0
 79.3668 316.15 79.0343 313.401 79.0343 310.752 c 0
 79.0343 305.034 80.5831 299.784 84 295 c 0
 87 287 95 284 107 284 c 0
 118 284 128 287 136 295 c 0
 142 302 148 310 150 319 c 0
 150.536 321.68 150.785 324.215 150.785 326.627 c 0
 150.785 333.215 148.928 338.876 146 344 c 0
 141 350 133 354 122 354 c 0
402 354 m 0
 412 354 420 357 427 363 c 0
 432 368 436 375 437 383 c 0
 437.899 386.596 438.394 390.192 438.394 393.606 c 0
 438.394 397.788 437.652 401.697 436 405 c 0
 431 410 424 412 414 412 c 0
 405 412 398 409 393 403 c 0
 386 398 382 391 380 383 c 0
 379.691 380.528 379.477 378.151 379.477 375.9 c 0
 379.477 370.865 380.545 366.455 384 363 c 0
 387 357 393 354 402 354 c 0
EndSplineSet
EndChar
StartChar: uni0E2D
Encoding: 205 3629 175
OldEncoding: 3629
Width: 405
Flags: W
HStem: 0 41<97 241> 137 35<120 130> 241 35<137 153> 355 36<222 241>
DStem: 65 206 99 141 37 73 85 73 314 264 362 264 273 73 321 73
Fore
99 141 m 1
 85 73 l 2
 83.6077 66.9667 82.8616 61.7949 82.8616 57.5847 c 0
 82.8616 52.7231 83.8564 49.1436 86 47 c 1
 89 43 98 41 113 41 c 2
 231 41 l 2
 246 41 257 43 262 47 c 0
 266 51 270 60 273 73 c 2
 314 264 l 2
 315.55 271.492 316.299 278.517 316.299 285.074 c 0
 316.299 303.9 310.125 318.875 299 330 c 0
 282 346 258 355 227 355 c 0
 225.933 355.022 224.867 355.033 223.803 355.033 c 0
 176 355.033 131.151 333.107 93 293 c 1
 69 316 l 1
 84 336 106 353 138 368 c 0
 168 383 201 391 237 391 c 0
 266 391 290 386 311 376 c 0
 332 366 347 353 357 333 c 0
 362.1 320.888 365.168 307.558 365.168 292.231 c 0
 365.168 283.514 364.175 274.151 362 264 c 2
 321 73 l 2
 315 43 304 23 292 14 c 0
 280 5 255 0 222 0 c 2
 104 0 l 2
 80 0 64 2 54 6 c 0
 42 9 37 16 35 26 c 1
 33.6905 30.3649 32.9526 35.873 32.9526 42.441 c 0
 32.9526 50.9204 34.1825 61.1663 37 73 c 2
 65 206 l 2
 67 215 72 225 78 235 c 0
 84 245 94 255 106 263 c 0
 118 271 133 276 151 276 c 0
 173 276 189 269 198 255 c 0
 204.492 246.56 207.191 236.856 207.191 225.887 c 0
 207.191 219.961 206.403 213.665 205 207 c 0
 201 188 193 171 177 157 c 0
 162 144 144 137 122 137 c 0
 119 137 111 138 99 141 c 1
128 172 m 0
 139 172 149 175 156 183 c 0
 164 189 168 197 170 206 c 0
 170.667 209.333 171 212.444 171 215.37 c 0
 171 221.222 169.667 226.333 167 231 c 0
 163 237 155 241 143 241 c 0
 132 241 122 237 115 232 c 0
 108 225 103 217 100 207 c 0
 99.5492 204.746 99.3524 202.594 99.3524 200.531 c 0
 99.3524 193.444 101.676 187.422 104 182 c 0
 110 175 118 172 128 172 c 0
EndSplineSet
EndChar
StartChar: uni0E2E
Encoding: 206 3630 176
OldEncoding: 3630
Width: 405
Flags: W
HStem: 0 41<97 241> 99 34<111 126> 203 35<127 145> 257 38<175 218> 356 35<203 241>
DStem: 318 285 369 299 273 73 321 73
Fore
37 73 m 2
 57 167 l 2
 60 183 70 199 83 215 c 0
 96 231 117 238 143 238 c 0
 165 238 181 232 190 218 c 0
 196.492 209.56 199.191 199.856 199.191 188.887 c 0
 199.191 182.961 198.403 176.665 197 170 c 0
 193 150 185 134 169 120 c 0
 154 106 135 99 113 99 c 0
 106 99 99 101 91 104 c 1
 85 73 l 2
 83.6077 66.9667 82.8616 61.7949 82.8616 57.5847 c 0
 82.8616 52.7231 83.8564 49.1436 86 47 c 1
 88 43 98 41 113 41 c 2
 231 41 l 2
 246 41 256 43 262 47 c 0
 266 51 270 60 273 73 c 2
 318 285 l 1
 309 278 292 271 267 266 c 0
 240 260 218 257 197 257 c 0
 163 257 134 262 108 273 c 0
 85.6771 283.303 75.1486 296.554 75.1486 312.754 c 0
 75.1486 315.423 75.4343 318.171 76 321 c 0
 80 337 89 350 106 360 c 0
 123 371 142 379 164 384 c 0
 187 389 206 391 225 391 c 0
 255 391 279 388 297 382 c 0
 315 376 329 368 340 360 c 0
 347.413 354.44 353.109 350.598 353.109 349.268 c 0
 353.109 349.163 353.073 349.073 353 349 c 1
 353 349 l 1
 372 364 388 379 402 393 c 1
 429 367 l 1
 416 353 405 340 393 331 c 0
 381 322 371 316 366 313 c 1
 368 311 369 306 369 299 c 1
 321 73 l 2
 314 43 304 23 292 14 c 0
 279 5 255 0 222 0 c 2
 104 0 l 2
 80 0 64 2 54 6 c 0
 42 9 37 16 35 26 c 1
 33.6905 30.3649 32.9526 35.873 32.9526 42.441 c 0
 32.9526 50.9204 34.1825 61.1663 37 73 c 2
205 295 m 0
 224 295 242 297 259 302 c 0
 276 305 290 308 301 313 c 0
 311 318 315 320 315 321 c 0
 312 327 302 334 288 344 c 0
 273 351 249 356 218 356 c 0
 197 356 175 354 156 348 c 0
 137 342 126 334 124 323 c 0
 123.749 321.809 123.624 320.657 123.624 319.545 c 0
 123.624 302.907 151.573 295 205 295 c 0
120 133 m 0
 132 133 141 137 148 144 c 0
 155 151 160 159 162 168 c 0
 162.633 171.483 162.966 174.565 162.966 177.373 c 0
 162.966 183.433 161.417 188.216 158 193 c 0
 155 200 146 203 134 203 c 0
 124 203 115 200 106 193 c 0
 100 188 94 179 92 168 c 0
 91.4641 165.321 91.2154 162.785 91.2154 160.392 c 0
 91.2154 153.856 93.0718 148.392 96 144 c 0
 101 137 110 133 120 133 c 0
EndSplineSet
EndChar
StartChar: uni0E2F
Encoding: 207 3631 177
OldEncoding: 3631
Width: 377
Flags: W
HStem: 173 42<150 169> 254 33<132 141> 356 35<150 164>
DStem: 285 252 361 384 257 124 305 120
Fore
158 391 m 0
 181 391 197 384 205 372 c 0
 211.834 362.433 214.931 351.931 214.931 340.177 c 0
 214.931 334.731 214.266 329.016 213 323 c 0
 209 305 198 289 185 276 c 0
 170 261 153 254 134 254 c 0
 124 254 116 255 110 259 c 0
 105 261 101 263 98 264 c 1
 101 251 108 240 119 229 c 0
 129 219 144 215 162 215 c 0
 183 215 204 223 225 238 c 0
 245 254 263 275 281 301 c 0
 297 327 306 354 313 384 c 1
 361 384 l 1
 305 120 l 2
 296 81 281 52 257 32 c 0
 233 11 200 -5 155 -15 c 1
 152 28 l 1
 188 36 213 47 228 60 c 1
 241 72 251 94 257 124 c 2
 285 252 l 1
 269 226 250 206 227 193 c 0
 203 180 179 173 155 173 c 0
 130 173 108 180 89 194 c 0
 70 209 60 228 57 252 c 0
 56.634 256.392 56.4019 261.053 56.4019 265.932 c 0
 56.4019 274.383 57.0981 283.49 59 293 c 0
 65 320 76 344 92 363 c 0
 109 382 130 391 158 391 c 0
139 287 m 0
 150 287 160 290 167 297 c 0
 174 304 179 312 181 322 c 0
 181.517 324.325 181.766 326.583 181.766 328.775 c 0
 181.766 335.067 179.708 340.808 176 346 c 0
 172 353 164 356 154 356 c 0
 143 356 133 353 127 346 c 0
 119 339 114 331 112 322 c 0
 111.464 319.32 111.215 316.785 111.215 314.373 c 0
 111.215 307.785 113.072 302.124 116 297 c 0
 120 290 128 287 139 287 c 0
EndSplineSet
EndChar
StartChar: uni0E30
Encoding: 208 3632 178
OldEncoding: 3632
Width: 313
Flags: W
HStem: 0 43<58 86> 108 31<71 82> 252 43<111 140> 360 31<123 136>
Fore
140 252 m 0
 105 252 80 259 66 273 c 0
 55.1111 283.889 49.6667 296.593 49.6667 311.111 c 0
 49.6667 315.259 50.1111 319.556 51 324 c 0
 55 342 66 358 81 372 c 0
 95 384 113 391 132 391 c 0
 156 391 171 385 180 373 c 0
 186.079 364.219 188.964 354.982 188.964 344.673 c 0
 188.964 339.719 188.298 334.517 187 329 c 0
 184 315 178 302 166 289 c 1
 178 289 196 295 217 306 c 0
 240 319 256 345 264 384 c 1
 311 384 l 1
 305 356 295 331 279 312 c 0
 263 293 243 277 220 267 c 0
 196 257 170 252 140 252 c 0
86 0 m 0
 52 0 28 7 13 21 c 0
 2.11111 32.6667 -3.33333 45.5432 -3.33333 59.6296 c 0
 -3.33333 63.6543 -2.88889 67.7778 -2 72 c 0
 1 89 12 105 27 119 c 0
 41.1561 131.269 57.0935 139.084 74.8122 139.084 c 0
 75.8685 139.084 76.9311 139.056 78 139 c 0
 95 139 107 134 116 129 c 0
 125 123 130 115 134 106 c 0
 135 101.5 135.5 96.75 135.5 91.875 c 0
 135.5 87 135 82 134 77 c 0
 131 62 124 50 112 37 c 1
 124 37 143 43 164 55 c 0
 187 67 202 93 211 132 c 1
 258 132 l 1
 252 104 241 79 225 60 c 0
 209 40 190 25 167 15 c 0
 143 5 116 0 86 0 c 0
71 108 m 0
 61 108 53 105 46 99 c 0
 39 93 36 85 34 76 c 0
 33.3667 73.467 33.0343 70.934 33.0343 68.4327 c 0
 33.0343 63.0343 34.5831 57.7836 38 53 c 0
 41 46 48 43 58 43 c 0
 69 43 78 46 84 52 c 0
 92 59 96 67 98 76 c 0
 98.6332 79.1662 98.9657 82.132 98.9657 84.8655 c 0
 98.9657 90.7652 97.4169 95.5831 94 99 c 0
 91 105 82 108 71 108 c 0
125 360 m 0
 115 360 106 357 100 351 c 0
 93 345 89 337 87 328 c 0
 86.4641 325.856 86.2154 323.713 86.2154 321.588 c 0
 86.2154 315.785 88.0718 310.124 91 305 c 0
 95 298 101 295 111 295 c 0
 122 295 132 298 138 305 c 0
 146 311 149 319 151 328 c 0
 151.899 331.774 152.345 335.225 152.345 338.348 c 0
 152.345 352.599 143.046 360 125 360 c 0
EndSplineSet
EndChar
StartChar: uni0E31
Encoding: 209 3633 179
OldEncoding: 3633
Width: 0
Flags: W
HStem: 454 40<-106 -94> 580 32<-165 -154>
Fore
-237 538 m 1
 -232 559 -224 577 -209 591 c 0
 -194 606 -177 612 -156 612 c 0
 -134 612 -120 606 -110 593 c 0
 -103.626 583.793 -100.262 573.584 -100.262 562.371 c 0
 -100.262 557.751 -100.833 552.961 -102 548 c 0
 -106 529 -116 513 -134 499 c 1
 -130 498 -124 497 -114 496 c 0
 -105 495 -98 494 -94 494 c 0
 -72 495 -50 501 -29 508 c 0
 -6 518 14 529 32 546 c 0
 50 562 64 580 74 601 c 1
 109 582 l 1
 99 559 81 539 59 520 c 0
 36 501 11 486 -18 473 c 0
 -46 461 -76 454 -105 454 c 0
 -107.258 453.944 -109.49 453.916 -111.697 453.916 c 0
 -148.593 453.916 -178.467 461.677 -203 473 c 0
 -226.225 485.506 -237.481 503.597 -237.481 528.699 c 0
 -237.481 531.698 -237.32 534.798 -237 538 c 1
-177 514 m 0
 -167 514 -158 518 -151 523 c 0
 -145 530 -140 538 -138 547 c 0
 -137.333 550.333 -137 553.444 -137 556.333 c 0
 -137 562.111 -138.333 567 -141 571 c 0
 -146 576 -153 580 -163 580 c 0
 -173 580 -182 576 -189 571 c 0
 -195 565 -201 557 -203 547 c 0
 -203.451 545.197 -203.648 543.394 -203.648 541.602 c 0
 -203.648 535.444 -201.324 529.422 -199 524 c 0
 -194 518 -187 514 -177 514 c 0
EndSplineSet
EndChar
StartChar: uni0E32
Encoding: 210 3634 180
OldEncoding: 3634
Width: 334
Flags: W
HStem: 0 21G<186 234> 356 35<165 189>
DStem: 246 280 294 278 186 0 234 0
Fore
38 306 m 1
 58 333 80 355 103 370 c 0
 125 384 153 391 187 391 c 0
 226 391 255 381 275 362 c 0
 289.162 347.093 296.657 327.741 296.657 303.944 c 0
 296.657 295.815 295.782 287.167 294 278 c 2
 234 0 l 1
 186 0 l 1
 246 280 l 2
 247.435 286.886 248.128 293.443 248.128 299.6 c 0
 248.128 314.901 243.844 327.73 236 337 c 0
 223 350 204 356 179 356 c 0
 157 356 137 350 117 338 c 0
 98 325 82 308 70 289 c 1
 65 293 59 295 55 298 c 0
 49 301 43 303 38 306 c 1
EndSplineSet
EndChar
StartChar: uni0E33
Encoding: 211 3635 181
OldEncoding: 3635
Width: 334
Flags: W
HStem: 0 21G<165 213> 356 35<148 167> 455 31<-50 -40> 563 30<-28 -17>
DStem: 224 280 272 278 165 0 213 0
Fore
-48 455 m 0
 -70 455 -86 462 -95 476 c 0
 -102.417 485.642 -106.533 496.933 -106.533 509.875 c 0
 -106.533 514.383 -106.033 519.091 -105 524 c 0
 -100 544 -91 559 -75 573 c 0
 -60 586 -42 593 -19 593 c 0
 2 593 18 586 27 573 c 0
 33.5153 563.879 36.6347 554.333 36.6347 543.256 c 0
 36.6347 537.332 35.7423 530.969 34 524 c 0
 30 505 22 489 6 476 c 0
 -9 462 -27 455 -48 455 c 0
17 306 m 1
 37 333 58 355 82 370 c 0
 104 384 131 391 165 391 c 0
 204 391 234 381 254 362 c 0
 267.79 347.484 275.259 328.753 275.259 305.808 c 0
 275.259 297.14 274.193 287.871 272 278 c 2
 213 0 l 1
 165 0 l 1
 224 280 l 2
 225.889 287.557 226.787 294.717 226.787 301.387 c 0
 226.787 315.901 222.536 328.093 215 337 c 0
 201 350 183 356 158 356 c 0
 136 356 115 350 96 338 c 0
 76 325 60 308 48 289 c 1
 43 293 38 295 33 298 c 0
 28 301 21 303 17 306 c 1
-25 563 m 0
 -38 563 -48 559 -57 551 c 0
 -65 544 -71 534 -73 524 c 0
 -73.6056 520.972 -73.9361 518.036 -73.9361 515.192 c 0
 -73.9361 508.642 -72.1833 502.578 -68 497 c 0
 -63 489 -55 486 -42 486 c 0
 -35 486 -27 488 -20 492 c 0
 -14 495 -9 501 -4 506 c 0
 1 512 3 519 4 524 c 0
 4.73205 527.66 5.19615 531.32 5.19615 534.834 c 0
 5.19615 540.919 3.80385 546.562 0 551 c 0
 -5 559 -13 563 -25 563 c 0
EndSplineSet
EndChar
StartChar: uni0E34
Encoding: 212 3636 182
OldEncoding: 3636
Width: 0
Flags: W
HStem: 488 34<-283 -229> 575 35<-202 -181>
Fore
-181 610 m 1
 -131 603 -101 584 -85 553 c 0
 -72 521 -64 487 -64 450 c 1
 -76 454 -95 461 -119 469 c 0
 -143 477 -170 481 -201 485 c 0
 -220 487 -241 488 -262 488 c 0
 -287 488 -310 487 -329 486 c 0
 -350 484 -365 481 -374 480 c 1
 -365 503 -350 524 -330 545 c 0
 -312 565 -288 581 -263 592 c 0
 -236 605 -209 610 -181 610 c 1
-197 575 m 1
 -221 575 -242 570 -264 557 c 0
 -286 546 -300 533 -306 519 c 1
 -300 520 -294 520 -283 521 c 0
 -273 522 -257 522 -238 522 c 0
 -221 522 -209 522 -200 521 c 0
 -170 519 -149 514 -134 507 c 0
 -118 502 -109 496 -104 493 c 1
 -116 540 -146 567 -197 575 c 1
EndSplineSet
EndChar
StartChar: uni0E35
Encoding: 213 3637 183
OldEncoding: 3637
Width: 0
Flags: W
HStem: 488 34<-266 -210> 575 35<-184 -163>
DStem: -59 655 -16 655 -78 566 -50 498
Fore
-78 566 m 1
 -59 655 l 1
 -16 655 l 1
 -50 498 l 1
 -50 498 l 1
 -50 498 -49 494 -48 486 c 0
 -47 477 -47 464 -47 450 c 1
 -58 454 -77 461 -102 469 c 0
 -126 477 -153 481 -182 485 c 0
 -203 487 -223 488 -245 488 c 0
 -269 488 -292 487 -311 486 c 0
 -333 484 -347 481 -355 480 c 1
 -348 503 -333 524 -313 545 c 0
 -293 565 -271 581 -244 593 c 0
 -218 605 -191 610 -163 610 c 1
 -145 608 -130 603 -118 597 c 0
 -105 591 -96 584 -89 579 c 0
 -84 573 -81 568 -78 566 c 1
-179 575 m 1
 -196 575 -212 572 -226 566 c 0
 -241 560 -254 554 -265 545 c 0
 -275 537 -283 528 -288 519 c 1
 -283 520 -276 520 -266 521 c 0
 -255 522 -239 522 -220 522 c 0
 -203 522 -190 522 -182 521 c 0
 -153 519 -131 514 -116 507 c 0
 -100 502 -91 496 -86 493 c 1
 -90 512 -99 530 -112 546 c 0
 -126 562 -147 572 -179 575 c 1
EndSplineSet
EndChar
